<?xml version="1.0" encoding="iso-8859-1"?>
<!-- Generator: Adobe Illustrator 16.0.0, SVG Export Plug-In . SVG Version: 6.00 Build 0)  -->
<!DOCTYPE svg PUBLIC "-//W3C//DTD SVG 1.1//EN" "http://www.w3.org/Graphics/SVG/1.1/DTD/svg11.dtd">
<svg version="1.1" id="Capa_1" xmlns="http://www.w3.org/2000/svg" xmlns:xlink="http://www.w3.org/1999/xlink" x="0px" y="0px"
	 width="400.885px" height="400.885px" viewBox="0 0 400.885 400.885" style="enable-background:new 0 0 400.885 400.885;"
	 xml:space="preserve">
<g>
	<g>
		<path d="M317.467,200.665l-118-51.813c-4.016-1.763-8.663-1.291-12.246,1.241c-3.581,2.535-5.571,6.761-5.244,11.136l4.706,62.963
			l-95.161-24.196c-6.688-1.7-13.493,2.344-15.194,9.034c-1.701,6.69,2.343,13.493,9.034,15.194l112.002,28.479
			c1.018,0.26,2.051,0.387,3.079,0.387c2.907,0,5.76-1.016,8.036-2.926c3.082-2.586,4.729-6.496,4.43-10.507l-4.45-59.554
			l98.958,43.452c6.324,2.774,13.695-0.099,16.473-6.421C326.664,210.813,323.789,203.439,317.467,200.665z"/>
		<path d="M380.885,159.444v-35.137c0-17.921-14.58-32.5-32.5-32.5H32.5c-17.921,0-32.5,14.579-32.5,32.5v152.27
			c0,17.922,14.579,32.5,32.5,32.5h315.885c17.922,0,32.5-14.578,32.5-32.5V241.44c11.232-1.248,20-10.797,20-22.357v-37.281
			C400.885,170.241,392.117,160.692,380.885,159.444z M355.885,276.577c0,4.137-3.365,7.5-7.5,7.5H32.5c-4.136,0-7.5-3.363-7.5-7.5
			v-152.27c0-4.136,3.364-7.5,7.5-7.5h315.885c4.137,0,7.5,3.364,7.5,7.5v57.494v37.282V276.577L355.885,276.577z"/>
	</g>
</g>
<g>
</g>
<g>
</g>
<g>
</g>
<g>
</g>
<g>
</g>
<g>
</g>
<g>
</g>
<g>
</g>
<g>
</g>
<g>
</g>
<g>
</g>
<g>
</g>
<g>
</g>
<g>
</g>
<g>
</g>
</svg>
