<svg width="280" height="322" viewBox="0 0 280 322" fill="none" xmlns="http://www.w3.org/2000/svg">
<path d="M253.577 206.255C253.439 208.019 252.846 209.725 251.848 211.226C250.85 212.726 249.478 213.975 247.851 214.865L209.812 236.39C208.334 237.223 206.649 237.676 204.925 237.703C203.202 237.73 201.502 237.33 199.995 236.544L198.359 235.683C196.747 234.872 195.396 233.67 194.446 232.201C193.497 230.733 192.983 229.052 192.96 227.334V102.319C193.032 100.674 193.793 99.1221 195.077 98.0019C196.361 96.8817 198.064 96.2835 199.815 96.3376H231.555C233.094 96.3146 234.614 96.6629 235.969 97.3494C237.324 98.0358 238.469 99.0374 239.294 100.258C245.397 109.76 258.158 138.373 253.577 206.255ZM253.25 75.3352H194.253C193.729 78.81 193.369 85.2675 190.604 88.0043C184.272 94.3235 173.703 67.6476 171.773 64.2497C171.07 62.7738 169.868 61.5577 168.353 60.7903C165.277 59.5603 161.809 62.1433 160.598 65.0492C159.387 67.9551 159.338 71.1993 158.078 74.1667C157.473 75.5812 156.262 77.0572 154.626 77.0111C152.99 76.9649 152.107 75.7503 151.256 74.6433L140.458 60.6211C138.544 58.1304 135.14 55.3782 132.49 57.1771C131.772 57.7819 131.212 58.5343 130.854 59.3758L124.179 71.6759C122.706 74.3512 120.285 77.4877 117.176 76.7804C115.881 76.3625 114.744 75.5983 113.904 74.5818C108.197 68.762 103.253 62.3199 99.1791 55.3936C97.8251 52.6945 96.0555 50.1974 93.9273 47.9828C92.8347 46.838 91.4369 45.988 89.8781 45.5204C88.3193 45.0528 86.6559 44.9846 85.0596 45.3229C83.5796 45.8525 82.2631 46.7202 81.2291 47.8476C80.1951 48.975 79.4761 50.3266 79.137 51.7804C78.492 54.6919 78.1089 57.6493 77.9917 60.6211C77.4957 65.0624 76.1136 69.3761 73.9178 73.3364C73.0507 74.8739 71.7582 76.5498 69.8931 76.5959C68.8731 76.534 67.8923 76.2036 67.0626 75.6427C54.6119 68.524 45.7934 56.6544 33.1464 49.8893C31.2812 48.9053 29.0725 48.0135 27.0928 48.7515C25.4567 49.3819 24.3606 51.0578 22.7736 51.9496C20.254 53.3948 16.8182 52.4416 14.6913 50.5043C12.7297 48.4308 11.2725 45.9806 10.4211 43.3241C8.5559 51.6728 10.1266 59.4373 10.2084 67.8013C10.3502 82.213 10.432 96.6298 10.4538 111.052C10.4538 147.06 10.2247 183.1 8.94857 219.108C7.99963 245.984 8.24505 274.459 1.76612 300.858C1.35687 302.629 0.848981 304.379 0.24455 306.101C0.0296121 306.707 -0.0449051 307.348 0.0260044 307.983C0.0969139 308.618 0.311608 309.232 0.655662 309.782C0.999716 310.333 1.46516 310.808 2.02073 311.175C2.5763 311.543 3.20912 311.794 3.87668 311.913C34.8643 318.555 97.134 330.025 197.934 313.45C199.163 313.282 200.278 312.683 201.055 311.773C201.832 310.863 202.214 309.709 202.122 308.546C200.241 292.509 200.486 285.052 202.629 281.162C204.658 277.641 256.162 245.8 272.458 235.836C273.963 234.947 275.226 233.741 276.149 232.313C277.072 230.886 277.629 229.276 277.775 227.611C279.869 200.243 287.592 75.3352 253.25 75.3352Z" fill="black"/>
<path d="M190.539 27.5184C188.902 24.182 187.97 20.5996 185.63 17.5553C184.453 15.9368 182.874 14.6122 181.029 13.696C179.185 12.7798 177.131 12.2996 175.045 12.297C172.715 12.5868 170.423 13.1021 168.206 13.8345C150.667 18.4471 132.817 1.10388 115.36 5.8548C108.685 7.65369 103.433 12.42 97.363 15.5565C85.3541 21.7066 70.5475 21.23 57.4096 17.6322C50.4399 15.7103 43.7155 13.0196 36.5985 11.5897C27.9272 9.86772 17.6853 10.329 11.1082 16.5867C7.70513 19.8308 7.44335 23.1672 8.39229 27.3493C7.08702 25.1015 6.56082 22.5269 6.88708 19.9846C7.4381 17.9732 8.61772 16.1631 10.2738 14.7878C18.9124 6.88494 31.2158 8.99133 41.7522 11.5897C51.487 13.9883 61.5653 17.2478 71.7582 16.0947C73.5544 15.8929 75.3282 15.5431 77.0591 15.0491C86.0249 12.4815 93.0928 5.90093 101.748 2.51839C108.377 -0.0497398 115.678 -0.671524 122.69 0.734874C133.668 2.97965 143.255 10.0983 154.463 10.8671C163.363 11.4821 173.032 8.09957 180.853 12.1586C186.497 15.0799 190.015 21.7066 190.539 27.5184Z" fill="black"/>
</svg>
