<?xml version="1.0" encoding="iso-8859-1"?>
<!-- Generator: Adobe Illustrator 16.0.0, SVG Export Plug-In . SVG Version: 6.00 Build 0)  -->
<!DOCTYPE svg PUBLIC "-//W3C//DTD SVG 1.1//EN" "http://www.w3.org/Graphics/SVG/1.1/DTD/svg11.dtd">
<svg version="1.1" id="Capa_1" xmlns="http://www.w3.org/2000/svg" xmlns:xlink="http://www.w3.org/1999/xlink" x="0px" y="0px"
	 width="375px" height="375px" viewBox="0 0 375 375" style="enable-background:new 0 0 375 375;" xml:space="preserve">
<g>
	<path d="M362.5,328.534H40.605l52.362-104.942l54.308,35.322c3.451,2.245,7.788,2.647,11.593,1.071
		c3.806-1.572,6.592-4.92,7.448-8.947l21.218-99.675l59.662,30.512c5.044,2.581,11.191,1.445,14.981-2.767l49.665-55.179
		l1.562,16.711c0.604,6.479,6.053,11.339,12.432,11.339c0.389,0,0.782-0.018,1.177-0.055c6.874-0.642,11.925-6.734,11.284-13.608
		l-4.435-47.497c-0.644-6.874-6.729-11.928-13.608-11.284l-47.496,4.433c-6.873,0.642-11.926,6.734-11.285,13.607
		c0.645,6.874,6.719,11.927,13.609,11.284l18.221-1.701l-43.277,48.083l-65.629-33.564c-3.462-1.772-7.553-1.829-11.063-0.158
		c-3.512,1.671-6.045,4.881-6.855,8.685l-20.824,97.831l-50.8-33.04c-2.987-1.943-6.662-2.52-10.098-1.583
		c-3.438,0.935-6.313,3.292-7.902,6.479L25,303.817V33.966c0-6.904-5.597-12.5-12.5-12.5S0,27.062,0,33.966v307.068
		c0,6.903,5.597,12.5,12.5,12.5h350c6.902,0,12.5-5.597,12.5-12.5S369.402,328.534,362.5,328.534z"/>
</g>
<g>
</g>
<g>
</g>
<g>
</g>
<g>
</g>
<g>
</g>
<g>
</g>
<g>
</g>
<g>
</g>
<g>
</g>
<g>
</g>
<g>
</g>
<g>
</g>
<g>
</g>
<g>
</g>
<g>
</g>
</svg>
