<svg width="322" height="232" viewBox="0 0 322 232" fill="none" xmlns="http://www.w3.org/2000/svg">
<path d="M199.636 136.334C199.432 135.894 199.203 135.466 198.949 135.053C197.016 131.596 194.617 128.42 191.82 125.613L191.784 125.504C187.746 121.478 182.949 118.289 177.67 116.121C172.391 113.952 166.734 112.847 161.026 112.869V120.089C163.921 120.089 166.807 120.434 169.62 121.118C170.054 121.208 170.488 121.335 170.904 121.443H171.103C171.646 121.587 172.171 121.75 172.696 121.93C173.515 122.198 174.318 122.511 175.102 122.869C175.536 123.031 175.952 123.212 176.369 123.41H176.495C177.056 123.681 177.599 123.952 178.124 124.241C178.648 124.53 179.119 124.782 179.589 125.071C180.06 125.36 180.548 125.649 181.018 125.974C181.489 126.298 181.598 126.353 181.887 126.569C182.2 126.776 182.502 126.999 182.792 127.237C183.243 127.558 183.678 127.901 184.094 128.266C184.384 128.501 184.673 128.735 184.945 128.988C185.134 129.14 185.316 129.303 185.487 129.475L186.175 130.125C186.537 130.468 186.881 130.811 187.206 131.172C187.419 131.363 187.618 131.568 187.803 131.786L188.419 132.49C192.983 137.721 195.939 144.154 196.935 151.018C197.931 157.882 196.924 164.886 194.035 171.194C191.145 177.502 186.496 182.847 180.642 186.588C174.788 190.329 167.978 192.308 161.026 192.29V199.51C169.557 199.521 177.899 197.009 184.999 192.29C185.867 191.73 186.808 191.116 187.532 190.485C192.74 186.493 196.97 181.371 199.901 175.508C202.832 169.644 204.387 163.193 204.449 156.641V156.189C204.47 149.281 202.819 142.47 199.636 136.334Z" fill="black"/>
<path d="M232.982 132.273L232.077 131.371C231.788 131.084 231.399 130.922 230.992 130.919H214.165C213.758 130.922 213.368 131.084 213.079 131.371L212.175 132.273C211.888 132.561 211.725 132.95 211.722 133.356V232H233.434V133.356C233.431 132.95 233.269 132.561 232.982 132.273ZM213.496 228.39V132.724H215.305V136.334L214.925 156.641L214.255 190.485L213.93 207.253L213.496 228.39ZM231.589 230.195L231.173 207.596L230.847 190.539L230.232 156.731L229.852 136.334V132.724H231.661L231.589 230.195Z" fill="black"/>
<path d="M290.699 21.5536L282.919 29.0985C269.077 14.9472 257.878 8.84626 250.55 11.4996C240.002 15.3082 235.026 35.9937 232.276 56.9499C231.95 59.3325 231.679 61.7512 231.408 64.1699C230.557 71.9134 229.978 79.4584 229.472 85.8301C228.332 100.27 227.662 108.537 225.853 113.032C217.458 133.952 193.286 136.19 192.309 136.28L191.856 130.865L191.386 125.45C192.11 125.45 209.967 123.41 215.739 108.988C217.024 105.794 217.82 95.6674 218.67 84.9456C219.177 78.3573 219.738 71.2456 220.479 64.0616C220.479 63.1591 220.66 62.2566 220.769 61.3541L231.625 60.4516H220.878C221.004 59.2603 221.149 58.0509 221.312 56.8416C224.478 31.5714 230.72 7.05931 246.859 1.24717C258.837 -3.01266 273.203 3.61174 290.699 21.5536Z" fill="black"/>
<path d="M320.697 48.8995L314.636 55.6864C313.657 56.776 312.285 57.4349 310.821 57.5194C309.357 57.604 307.918 57.1073 306.82 56.1377L279.173 31.6436C278.087 30.6674 277.43 29.303 277.345 27.8465C277.26 26.3901 277.755 24.9591 278.721 23.864L284.8 17.0772C285.282 16.5361 285.866 16.0953 286.519 15.7797C287.172 15.4642 287.881 15.2802 288.606 15.2383C289.33 15.1964 290.055 15.2973 290.741 15.5355C291.426 15.7736 292.057 16.1441 292.598 16.6259L297.465 20.958C297.576 21.3314 297.6 21.7248 297.538 22.1091C297.475 22.4934 297.327 22.8587 297.104 23.1781L298.461 21.8244L301.247 24.3153C301.417 24.7617 301.482 25.2409 301.438 25.7163C301.394 26.1917 301.242 26.6509 300.994 27.0589L302.568 25.4705L305.77 28.3043C306.132 29.7123 306.259 31.066 305.644 31.6797L307.453 29.8747L310.185 32.2934C310.692 33.9179 310.981 35.6508 310.185 36.3547L312.32 34.2429L315.124 36.7338C315.287 37.1793 315.347 37.6556 315.3 38.1274C315.253 38.5993 315.1 39.0545 314.853 39.4593L316.409 37.889L320.136 41.1921C321.217 42.151 321.881 43.4928 321.985 44.9322C322.09 46.3716 321.628 47.7949 320.697 48.8995Z" fill="black"/>
<path d="M197.212 136.334H230.232C230.662 136.334 231.088 136.419 231.485 136.583C231.882 136.747 232.243 136.988 232.548 137.291L235.207 139.944C235.775 140.516 236.094 141.288 236.094 142.092V159.511C236.091 159.679 236.039 159.842 235.944 159.981C235.85 160.12 235.717 160.229 235.562 160.294C235.406 160.359 235.235 160.378 235.07 160.348C234.904 160.318 234.751 160.24 234.628 160.124L232.367 157.868C231.569 157.074 230.49 156.626 229.363 156.623H200.83L197.212 136.334Z" fill="black"/>
<path d="M236.148 195.25V209.69C236.148 210.322 235.225 210.629 234.683 210.177L233.434 209.149L232.421 208.318C232.181 208.118 231.912 207.954 231.625 207.831C231.499 207.745 231.357 207.684 231.209 207.65C230.634 207.417 230.019 207.3 229.399 207.307H161.026V204.925H201.029C201.456 204.925 201.866 204.756 202.168 204.454C202.47 204.153 202.64 203.744 202.64 203.318V193.896C202.64 193.47 202.47 193.061 202.168 192.76C201.866 192.459 201.456 192.29 201.029 192.29H161.026C164.867 192.293 168.685 191.684 172.334 190.485H230.232C230.436 190.466 230.642 190.466 230.847 190.485C231.103 190.521 231.353 190.594 231.589 190.701C231.942 190.806 232.269 190.985 232.548 191.225L233.398 191.929L235.207 193.427C235.493 193.639 235.726 193.913 235.89 194.229C236.053 194.546 236.141 194.895 236.148 195.25Z" fill="black"/>
<path d="M191.784 111.515V130.468C191.794 130.534 191.794 130.601 191.784 130.667C191.746 131.097 191.584 131.508 191.318 131.848C191.051 132.189 190.692 132.446 190.282 132.587C189.873 132.728 189.431 132.748 189.01 132.644C188.59 132.541 188.208 132.318 187.912 132.002C187.727 131.785 187.528 131.58 187.315 131.389C186.989 131.028 186.645 130.685 186.284 130.342L185.596 129.692C185.424 129.52 185.243 129.357 185.053 129.205C184.783 128.949 184.499 128.708 184.203 128.483C183.786 128.118 183.352 127.774 182.9 127.454C182.611 127.215 182.309 126.992 181.996 126.786C181.706 126.569 181.416 126.371 181.127 126.19C180.657 125.865 180.186 125.576 179.698 125.288C179.209 124.999 178.739 124.71 178.232 124.457C177.726 124.205 177.165 123.88 176.604 123.627H176.477C176.061 123.429 175.645 123.248 175.211 123.086C174.427 122.728 173.623 122.414 172.804 122.147C172.28 121.966 171.755 121.804 171.212 121.66H171.013C170.597 121.551 170.163 121.425 169.728 121.335C166.889 120.569 163.966 120.151 161.026 120.089V109.259H189.522C190.122 109.259 190.697 109.497 191.121 109.92C191.546 110.343 191.784 110.917 191.784 111.515Z" fill="black"/>
<path d="M233.398 58.8271V62.2205C233.398 63.2855 232.747 64.1338 231.969 64.1338H218.543C217.765 64.1338 217.114 63.2855 217.114 62.2205V61.7331L220.733 61.4263L231.589 60.5238H217.114V58.8271C217.114 57.7621 217.765 56.9138 218.543 56.9138H231.969H232.24C232.62 57.0566 232.941 57.323 233.151 57.6701C233.361 58.0172 233.448 58.4247 233.398 58.8271Z" fill="black"/>
<path d="M165.223 102.472C165.654 102.177 166.167 102.026 166.689 102.039H188.002C188.596 102.017 189.177 102.217 189.631 102.599C180.403 105.649 169.783 103.609 165.223 102.472Z" fill="black"/>
<path d="M189.975 103.339V109.043H164.644V103.339C164.643 103.157 164.7 102.98 164.807 102.833C169.343 103.994 174.003 104.6 178.685 104.638C182.489 104.688 186.276 104.127 189.902 102.978C189.956 103.09 189.981 103.214 189.975 103.339Z" fill="black"/>
<path d="M117.602 156.189V156.641C117.669 163.196 119.23 169.649 122.167 175.513C125.104 181.377 129.341 186.497 134.556 190.485C135.37 191.116 136.22 191.73 137.089 192.29C144.178 197.002 152.507 199.514 161.026 199.51V192.29C154.11 192.287 147.339 190.307 141.517 186.584C135.694 182.861 131.062 177.552 128.17 171.284C125.279 165.017 124.248 158.054 125.2 151.22C126.152 144.386 129.047 137.968 133.542 132.724L134.158 132.02C134.342 131.803 134.542 131.598 134.755 131.407C135.08 131.046 135.424 130.703 135.786 130.36L136.473 129.71L137.016 129.223C137.288 128.97 137.577 128.735 137.867 128.501C138.326 128.076 138.809 127.678 139.314 127.309C139.603 127.071 139.905 126.848 140.219 126.641C140.508 126.425 140.798 126.226 141.087 126.046C141.557 125.721 142.028 125.432 142.517 125.143C143.005 124.854 143.475 124.566 143.982 124.313C144.489 124.06 145.049 123.753 145.61 123.483H145.737C146.153 123.284 146.569 123.104 147.004 122.941C147.787 122.583 148.591 122.27 149.41 122.003C149.935 121.822 150.459 121.66 151.002 121.515H151.201C151.617 121.407 152.052 121.281 152.486 121.19C155.279 120.486 158.145 120.117 161.026 120.089V112.869C155.338 112.864 149.705 113.977 144.449 116.145C139.193 118.313 134.417 121.494 130.394 125.504L130.267 125.631C127.47 128.438 125.072 131.614 123.139 135.071C122.885 135.484 122.655 135.912 122.451 136.352C119.259 142.479 117.596 149.284 117.602 156.189Z" fill="black"/>
<path d="M88.6534 133.356V232H110.365V133.356C110.362 132.95 110.2 132.561 109.913 132.273L109.008 131.371C108.719 131.084 108.33 130.922 107.923 130.919H91.0959C90.6888 130.922 90.2991 131.084 90.0104 131.371L89.1057 132.273C88.8187 132.561 88.6563 132.95 88.6534 133.356ZM108.158 207.253L107.832 190.485L107.199 156.641L106.855 136.334V132.724H108.664V228.39L108.158 207.253ZM90.4627 132.724H92.272V136.334L91.892 156.731L91.2407 190.485L90.915 207.542L90.4627 230.195V132.724Z" fill="black"/>
<path d="M31.425 21.5536L39.2051 29.0985C53.0463 14.9472 64.2458 8.84626 71.5735 11.4996C82.1218 15.3082 87.0973 35.9937 89.8475 56.9499C90.1732 59.3325 90.4446 61.7512 90.716 64.1699C91.5664 71.9134 92.1454 79.4584 92.652 85.8301C93.7919 100.27 94.4613 108.537 96.2706 113.032C104.666 133.952 128.838 136.19 129.815 136.28L130.267 130.865L130.738 125.45C130.014 125.45 112.156 123.41 106.385 108.988C105.1 105.794 104.304 95.6674 103.453 84.9456C102.947 78.3573 102.386 71.2456 101.644 64.0616C101.644 63.1591 101.463 62.2566 101.355 61.3541L90.4989 60.4516H101.319C101.192 59.2603 101.047 58.0509 100.884 56.8416C97.718 31.5714 91.4759 7.05931 75.3369 1.24717C63.3231 -3.01266 48.9391 3.61174 31.425 21.5536Z" fill="black"/>
<path d="M1.4267 48.8995L7.48789 55.6864C8.46704 56.776 9.8384 57.4349 11.3027 57.5194C12.7671 57.604 14.2055 57.1073 15.3041 56.1377L42.9503 31.6436C44.037 30.6674 44.694 29.303 44.7787 27.8465C44.8634 26.3901 44.3689 24.9591 43.4026 23.864L37.3233 17.0772C36.8414 16.5361 36.2572 16.0953 35.6043 15.7797C34.9513 15.4642 34.2424 15.2802 33.5181 15.2383C32.7938 15.1964 32.0683 15.2973 31.3831 15.5355C30.698 15.7736 30.0667 16.1441 29.5252 16.6259L24.6582 20.958C24.548 21.3314 24.5233 21.7248 24.5859 22.1091C24.6486 22.4934 24.7969 22.8587 25.02 23.1781L23.663 21.8244L20.8768 24.3153C20.7072 24.7617 20.6418 25.2409 20.6857 25.7163C20.7296 26.1917 20.8816 26.6509 21.13 27.0589L19.5559 25.4705L16.2811 28.2322C15.9192 29.6401 15.7926 30.9938 16.4078 31.6075L14.5985 29.8025L11.8664 32.2212C11.3598 33.8458 11.0703 35.5786 11.8664 36.2825L9.73141 34.1706L6.92696 36.6616C6.76424 37.1071 6.70417 37.5834 6.75115 38.0552C6.79813 38.5271 6.95101 38.9823 7.1984 39.3871L5.64236 37.8168L1.80664 41.1019C0.724779 42.0886 0.0777298 43.462 0.00655724 44.9226C-0.0646153 46.3833 0.445875 47.8128 1.4267 48.8995Z" fill="black"/>
<path d="M124.84 136.334H91.8559C91.4258 136.334 90.9998 136.419 90.6025 136.583C90.2051 136.747 89.8441 136.988 89.5399 137.291L86.8441 139.944C86.2762 140.516 85.9575 141.288 85.9575 142.092V159.511C85.9605 159.679 86.0124 159.842 86.1069 159.981C86.2014 160.12 86.3344 160.229 86.4897 160.294C86.645 160.359 86.8159 160.378 86.9817 160.348C87.1474 160.318 87.3008 160.24 87.4231 160.124L89.6847 157.868C90.4819 157.074 91.5614 156.626 92.6881 156.623H121.221L124.84 136.334Z" fill="black"/>
<path d="M85.9757 195.25V209.69C85.9757 210.322 86.8985 210.629 87.4413 210.177L88.6897 209.149L89.7029 208.318C89.9433 208.118 90.2114 207.954 90.499 207.831C90.6251 207.745 90.7662 207.684 90.9151 207.65C91.4892 207.417 92.1044 207.3 92.7244 207.307H161.026V204.925H121.058C120.631 204.925 120.222 204.756 119.92 204.454C119.618 204.153 119.448 203.744 119.448 203.318V193.896C119.448 193.47 119.618 193.061 119.92 192.76C120.222 192.459 120.631 192.29 121.058 192.29H161.026C157.184 192.293 153.366 191.684 149.718 190.485H91.8198C91.6151 190.466 91.4092 190.466 91.2045 190.485C90.9481 190.521 90.6982 190.594 90.4628 190.701C90.1096 190.806 89.7827 190.985 89.5038 191.225L88.6535 191.929L86.8442 193.427C86.5716 193.646 86.352 193.924 86.2016 194.24C86.0513 194.555 85.974 194.901 85.9757 195.25Z" fill="black"/>
<path d="M130.267 111.515V130.468C130.258 130.534 130.258 130.601 130.267 130.667C130.305 131.097 130.467 131.508 130.734 131.848C131 132.189 131.36 132.446 131.769 132.587C132.179 132.728 132.62 132.748 133.041 132.644C133.462 132.541 133.843 132.318 134.139 132.002C134.324 131.785 134.524 131.58 134.736 131.389C135.062 131.028 135.406 130.685 135.768 130.342L136.455 129.692L136.998 129.205C137.269 128.949 137.552 128.708 137.848 128.483C138.314 128.064 138.803 127.672 139.314 127.309C139.603 127.071 139.905 126.848 140.219 126.641C140.508 126.425 140.798 126.226 141.087 126.046C141.557 125.721 142.028 125.432 142.516 125.143C143.005 124.855 143.475 124.566 143.982 124.313C144.489 124.06 145.049 123.735 145.61 123.483H145.737C146.153 123.284 146.569 123.104 147.004 122.941C147.787 122.583 148.591 122.27 149.41 122.003C149.935 121.822 150.459 121.66 151.002 121.515H151.201C151.617 121.407 152.052 121.281 152.486 121.19C155.279 120.487 158.145 120.117 161.026 120.089V109.259H132.565C132.265 109.254 131.967 109.309 131.689 109.42C131.41 109.532 131.156 109.697 130.943 109.907C130.729 110.117 130.559 110.367 130.443 110.644C130.327 110.92 130.267 111.216 130.267 111.515Z" fill="black"/>
<path d="M88.6533 58.8271V62.2205C88.6533 63.2855 89.3046 64.1338 90.0826 64.1338H103.508C104.286 64.1338 104.937 63.2855 104.937 62.2205V61.7331L101.318 61.4263L90.4626 60.5238H104.937V58.8271C104.937 57.7621 104.286 56.9138 103.508 56.9138H90.0826H89.8113C89.4309 57.0566 89.1099 57.323 88.8998 57.6701C88.6897 58.0172 88.6029 58.4247 88.6533 58.8271Z" fill="black"/>
<path d="M156.9 102.472C156.47 102.177 155.957 102.026 155.435 102.039H134.121C133.528 102.017 132.947 102.217 132.493 102.599C141.72 105.649 152.341 103.609 156.9 102.472Z" fill="black"/>
<path d="M132.077 103.339V109.043H157.407V103.339C157.408 103.157 157.351 102.98 157.244 102.833C152.709 103.994 148.049 104.6 143.367 104.638C139.563 104.688 135.775 104.127 132.149 102.978C132.095 103.09 132.07 103.214 132.077 103.339Z" fill="black"/>
<path d="M161.026 190.485C151.908 190.485 143.164 186.871 136.717 180.44C130.271 174.008 126.649 165.285 126.649 156.189C126.649 147.094 130.271 138.371 136.717 131.939C143.164 125.507 151.908 121.894 161.026 121.894C154.527 132.158 151.078 144.05 151.078 156.189C151.078 168.329 154.527 180.221 161.026 190.485Z" fill="black"/>
<rect x="160" y="194" width="2" height="13" fill="black"/>
<path d="M162 204C162 204.552 162.448 205 163 205H162V204Z" fill="black"/>
<path d="M160 204C160 204.552 159.552 205 159 205H160V204Z" fill="black"/>
</svg>
