<?xml version="1.0" encoding="iso-8859-1"?>
<!-- Generator: Adobe Illustrator 16.0.0, SVG Export Plug-In . SVG Version: 6.00 Build 0)  -->
<!DOCTYPE svg PUBLIC "-//W3C//DTD SVG 1.1//EN" "http://www.w3.org/Graphics/SVG/1.1/DTD/svg11.dtd">
<svg version="1.1" id="Capa_1" xmlns="http://www.w3.org/2000/svg" xmlns:xlink="http://www.w3.org/1999/xlink" x="0px" y="0px"
	 width="370.859px" height="370.859px" viewBox="0 0 370.859 370.859" style="enable-background:new 0 0 370.859 370.859;"
	 xml:space="preserve">
<g>
	<g>
		<path d="M351.58,29.837l-10.558-10.559C328.59,6.846,312.061,0,294.481,0c-17.582,0-34.108,6.847-46.541,19.279l-76.629,76.628
			c-12.432,12.433-19.277,28.961-19.277,46.542c0,3.522,0.287,6.999,0.826,10.412c-3.412-0.539-6.891-0.826-10.412-0.826
			c-17.582,0-34.111,6.847-46.543,19.278l-76.626,76.629c-25.662,25.663-25.662,67.421-0.002,93.081l10.557,10.559
			c12.434,12.434,28.963,19.277,46.543,19.277c17.582,0,34.109-6.846,46.539-19.277l76.629-76.629
			c15.486-15.484,21.611-36.829,18.408-56.962c3.428,0.544,6.918,0.835,10.455,0.835h0.006c17.58,0,34.106-6.848,46.536-19.277
			l76.63-76.631C377.242,97.254,377.242,55.498,351.58,29.837z M181.867,257.275l-76.629,76.629
			c-7.709,7.709-17.959,11.955-28.861,11.955c-10.904,0-21.154-4.246-28.863-11.955l-10.557-10.557
			c-15.916-15.916-15.916-41.812,0-57.729l76.627-76.629c7.711-7.709,17.961-11.955,28.865-11.955
			c10.902,0,21.154,4.246,28.863,11.955l10.557,10.557C197.784,215.463,197.784,241.36,181.867,257.275z M333.902,105.241
			l-76.631,76.629c-7.709,7.711-17.955,11.956-28.856,11.956h-0.004c-10.904-0.001-21.156-4.246-28.863-11.954l-10.555-10.558
			c-7.711-7.71-11.958-17.961-11.958-28.864s4.246-21.154,11.956-28.864l76.629-76.629c7.711-7.71,17.961-11.956,28.862-11.956
			c10.902,0,21.154,4.246,28.863,11.956l10.557,10.558C349.818,63.429,349.816,89.325,333.902,105.241z"/>
		<path d="M281.873,71.308l-58.531,58.531c-4.881,4.882-4.881,12.797,0,17.678c2.441,2.441,5.641,3.661,8.84,3.661
			s6.398-1.22,8.838-3.661l58.531-58.531c4.883-4.881,4.883-12.796,0-17.678C294.669,66.426,286.753,66.426,281.873,71.308z"/>
		<path d="M129.837,223.344l-58.531,58.53c-4.881,4.882-4.881,12.796,0,17.679c2.441,2.439,5.641,3.66,8.84,3.66
			c3.199,0,6.398-1.221,8.838-3.66l58.531-58.531c4.883-4.883,4.883-12.797,0-17.678
			C142.634,218.461,134.718,218.461,129.837,223.344z"/>
	</g>
</g>
<g>
</g>
<g>
</g>
<g>
</g>
<g>
</g>
<g>
</g>
<g>
</g>
<g>
</g>
<g>
</g>
<g>
</g>
<g>
</g>
<g>
</g>
<g>
</g>
<g>
</g>
<g>
</g>
<g>
</g>
</svg>
