<?xml version="1.0" encoding="iso-8859-1"?>
<!-- Generator: Adobe Illustrator 16.0.0, SVG Export Plug-In . SVG Version: 6.00 Build 0)  -->
<!DOCTYPE svg PUBLIC "-//W3C//DTD SVG 1.1//EN" "http://www.w3.org/Graphics/SVG/1.1/DTD/svg11.dtd">
<svg version="1.1" id="Capa_1" xmlns="http://www.w3.org/2000/svg" xmlns:xlink="http://www.w3.org/1999/xlink" x="0px" y="0px"
	 width="338.332px" height="338.333px" viewBox="0 0 338.332 338.333" style="enable-background:new 0 0 338.332 338.333;"
	 xml:space="preserve">
<g>
	<path d="M303.005,64.671c3.574-3.575,4.646-8.952,2.709-13.623c-1.934-4.671-6.492-7.716-11.548-7.716H243.88l19.568-22.664
		c4.512-5.226,3.933-13.119-1.292-17.63c-5.226-4.511-13.117-3.933-17.63,1.292l-33.675,39.002H44.166
		c-5.056,0-9.614,3.045-11.548,7.716c-1.935,4.671-0.865,10.047,2.709,13.623L156.666,186.01v127.322h-27.5
		c-6.903,0-12.5,5.597-12.5,12.5s5.597,12.5,12.5,12.5h80c6.902,0,12.5-5.597,12.5-12.5s-5.598-12.5-12.5-12.5h-27.5V186.01
		L303.005,64.671z M263.988,68.333l-94.822,94.822L74.344,68.333H263.988z"/>
</g>
<g>
</g>
<g>
</g>
<g>
</g>
<g>
</g>
<g>
</g>
<g>
</g>
<g>
</g>
<g>
</g>
<g>
</g>
<g>
</g>
<g>
</g>
<g>
</g>
<g>
</g>
<g>
</g>
<g>
</g>
</svg>
