<?xml version="1.0" encoding="iso-8859-1"?>
<!-- Generator: Adobe Illustrator 16.0.0, SVG Export Plug-In . SVG Version: 6.00 Build 0)  -->
<!DOCTYPE svg PUBLIC "-//W3C//DTD SVG 1.1//EN" "http://www.w3.org/Graphics/SVG/1.1/DTD/svg11.dtd">
<svg version="1.1" id="Capa_1" xmlns="http://www.w3.org/2000/svg" xmlns:xlink="http://www.w3.org/1999/xlink" x="0px" y="0px"
	 width="365.033px" height="365.033px" viewBox="0 0 365.033 365.033" style="enable-background:new 0 0 365.033 365.033;"
	 xml:space="preserve">
<g>
	<g>
		<path d="M182.517,0C81.877,0,0,81.877,0,182.518c0,100.64,81.877,182.516,182.517,182.516
			c100.639,0,182.516-81.876,182.516-182.516C365.033,81.877,283.156,0,182.517,0z M195.018,339.539v-17.225
			c0-6.902-5.598-12.5-12.5-12.5s-12.5,5.598-12.5,12.5v17.225c-76.908-6.068-138.454-67.613-144.521-144.521h17.223
			c6.903,0,12.5-5.598,12.5-12.5c0-6.903-5.597-12.5-12.5-12.5H25.496C31.563,93.109,93.109,31.563,170.017,25.496v17.223
			c0,6.903,5.597,12.5,12.5,12.5s12.5-5.597,12.5-12.5V25.496c76.908,6.067,138.453,67.613,144.521,144.521h-17.225
			c-6.902,0-12.5,5.597-12.5,12.5c0,6.902,5.598,12.5,12.5,12.5h17.225C333.471,271.926,271.926,333.471,195.018,339.539z"/>
		<path d="M217.753,187.658c1.556-10.749-1.794-22.077-10.047-30.331c-6.729-6.729-15.674-10.434-25.189-10.434
			c-1.743,0-3.467,0.127-5.161,0.372l-53.493-40.926c-4.979-3.809-12.005-3.341-16.435,1.089
			c-4.431,4.431-4.896,11.457-1.089,16.435l40.941,53.514c-1.555,10.749,1.794,22.077,10.047,30.331
			c6.729,6.729,15.674,10.435,25.189,10.435c1.744,0,3.466-0.127,5.162-0.373l53.492,40.926c2.256,1.726,4.93,2.572,7.592,2.572
			c3.219,0,6.42-1.236,8.844-3.66c4.43-4.432,4.896-11.457,1.088-16.436L217.753,187.658z"/>
	</g>
</g>
<g>
</g>
<g>
</g>
<g>
</g>
<g>
</g>
<g>
</g>
<g>
</g>
<g>
</g>
<g>
</g>
<g>
</g>
<g>
</g>
<g>
</g>
<g>
</g>
<g>
</g>
<g>
</g>
<g>
</g>
</svg>
