<?xml version="1.0" encoding="iso-8859-1"?>
<!-- Generator: Adobe Illustrator 16.0.0, SVG Export Plug-In . SVG Version: 6.00 Build 0)  -->
<!DOCTYPE svg PUBLIC "-//W3C//DTD SVG 1.1//EN" "http://www.w3.org/Graphics/SVG/1.1/DTD/svg11.dtd">
<svg version="1.1" id="Capa_1" xmlns="http://www.w3.org/2000/svg" xmlns:xlink="http://www.w3.org/1999/xlink" x="0px" y="0px"
	 width="375px" height="375px" viewBox="0 0 375 375" style="enable-background:new 0 0 375 375;" xml:space="preserve">
<g>
	<path d="M362.5,284.094h-53.406V83.584l42.91-42.91c4.881-4.882,4.881-12.796,0-17.678c-4.881-4.881-12.797-4.881-17.678,0
		l-42.91,42.91H90.906V12.5c0-6.903-5.597-12.5-12.5-12.5c-6.903,0-12.5,5.597-12.5,12.5v53.406H12.5c-6.903,0-12.5,5.597-12.5,12.5
		c0,6.903,5.597,12.5,12.5,12.5h53.406v205.688c0,6.903,5.597,12.5,12.5,12.5h205.688V362.5c0,6.903,5.597,12.5,12.5,12.5
		s12.5-5.597,12.5-12.5v-53.406H362.5c6.902,0,12.5-5.597,12.5-12.5C375,289.691,369.402,284.094,362.5,284.094z M266.416,90.906
		l-175.51,175.51V90.906H266.416z M108.584,284.094l175.51-175.51v175.51H108.584z"/>
</g>
<g>
</g>
<g>
</g>
<g>
</g>
<g>
</g>
<g>
</g>
<g>
</g>
<g>
</g>
<g>
</g>
<g>
</g>
<g>
</g>
<g>
</g>
<g>
</g>
<g>
</g>
<g>
</g>
<g>
</g>
</svg>
