<svg width="322" height="260" viewBox="0 0 322 260" fill="none" xmlns="http://www.w3.org/2000/svg">
<path d="M129.882 182.561C129.882 221.851 103.825 253.669 71.7059 253.669C39.5871 253.669 13.5294 221.96 13.5294 182.561C13.5294 143.162 39.5871 111.453 71.7059 111.453C92.1082 111.453 110.075 124.305 120.412 143.732L92.1624 163.839C90.1146 160.154 87.152 157.064 83.5626 154.869C79.9732 152.674 75.8792 151.449 71.6788 151.313C57.5541 151.313 46.1083 165.307 46.1083 182.561C46.1083 199.815 57.5541 213.808 71.6788 213.808C85.8035 213.808 96.8977 200.222 97.2494 183.322C111.022 179.925 123.821 176.583 129.476 174.599C129.882 177.208 129.882 179.871 129.882 182.561Z" fill="black"/>
<path d="M224.588 34.6381C221.42 31.8627 217.571 29.9867 213.44 29.2038C205.063 27.6917 196.43 28.635 188.573 31.9209C173.528 37.7085 159.864 48.2239 147.714 58.4948C136.891 67.7332 127.231 78.9551 122.576 92.6224C119.77 99.6665 119.702 107.513 122.387 114.604C126.717 124.169 138.622 130.391 148.391 132.565C145.685 138.162 139.651 141.124 134.076 143.814C119.228 151.233 104.858 159.582 91.0529 168.812C86.6992 171.562 82.5155 174.574 78.5247 177.833C76.8316 179.229 75.2318 180.736 73.7353 182.343C73.14 182.995 71.0294 186.528 70.4882 186.691C101.498 178.675 144.954 163.269 175.341 153.107C179.13 151.987 182.766 150.399 186.165 148.379C189.596 146.305 192.119 143.005 193.227 139.14C193.66 136.424 193.37 133.641 192.386 131.074C191.403 128.507 189.76 126.246 187.626 124.522C179.508 117.322 167.657 116.968 158.484 111.534C157.203 110.942 156.059 110.088 155.127 109.026C154.195 107.963 153.495 106.717 153.072 105.366C152.179 100.91 156.346 97.2145 160.324 95.0136C175.666 86.8621 193.768 86.536 209.029 77.8411C218.608 72.4068 226.888 63.4944 229.134 52.6257C230.339 47.7366 229.683 42.5721 227.294 38.1433C226.553 36.8581 225.643 35.6791 224.588 34.6381Z" fill="black"/>
<path d="M71.76 260C36.5836 260 8.17181 225.247 8.17181 182.561C8.17181 139.874 36.6918 105.121 71.76 105.121C106.828 105.121 135.294 139.874 135.294 182.561C135.294 225.247 106.828 260 71.76 260ZM71.76 107.839C38.18 107.839 10.8777 141.368 10.8777 182.561C10.8777 223.753 38.18 257.283 71.76 257.283C105.34 257.283 132.588 223.753 132.588 182.561C132.588 141.368 105.34 107.839 71.76 107.839Z" fill="black"/>
<path d="M266.584 260C236.007 260 211.113 229.704 211.113 192.478C211.113 155.253 236.007 124.957 266.584 124.957C297.16 124.957 322 155.253 322 192.478C322 229.704 297.16 260 266.584 260ZM266.584 127.674C237.495 127.674 213.819 156.748 213.819 192.478C213.819 228.209 237.495 257.283 266.584 257.283C295.672 257.283 319.294 228.209 319.294 192.478C319.294 156.748 295.672 127.674 266.584 127.674Z" fill="black"/>
<path d="M316.588 192.478C316.588 226.28 294.184 253.669 266.529 253.669C238.875 253.669 216.471 226.28 216.471 192.478C216.471 172.235 224.588 154.275 236.9 143.135L252.784 171.583C248.507 175.834 245.514 181.213 244.152 187.098C240.553 202.206 247.642 216.987 260.008 219.704C272.374 222.422 285.281 212.857 288.907 197.75C292.533 182.642 285.416 167.997 273.051 165.144C269.607 164.33 266.009 164.462 262.633 165.524L254.515 133.054C258.402 131.875 262.442 131.28 266.502 131.288C294.238 131.288 316.588 158.677 316.588 192.478Z" fill="black"/>
<path d="M261.623 55.3349C275.158 53.1822 284.628 41.9089 282.774 30.1552C280.92 18.4016 268.445 10.6185 254.91 12.7712C241.375 14.9238 231.905 26.1972 233.759 37.9508C235.613 49.7045 248.088 57.4875 261.623 55.3349Z" fill="black"/>
<path d="M216.471 77.9498C214.387 73.1405 267.882 197.315 267.882 194.788C267.882 192.261 227.294 67.0812 227.294 67.0812L216.471 77.9498Z" fill="black"/>
<path d="M283.089 40.0725C294.238 27.655 286.878 9.77608 271.616 5.40144C257.411 1.32569 233.734 9.99343 237.874 28.0082C238.74 31.7579 243.286 31.5406 245.315 28.9593C247.26 26.1277 249.592 23.5849 252.242 21.4056C257.654 17.3841 261.009 19.0688 266.232 21.786C270.101 23.7967 274.863 18.4982 271.156 15.4006C269.587 17.4385 269.722 19.096 271.535 20.4274C274.431 23.9325 278.841 19.9654 278.327 16.4603L278.11 15.1017L276.243 19.6937L274.89 21.6772L282.467 19.6122L282.25 19.3405L281.601 24.2857L281.98 23.9597L275.188 22.1664L273.916 24.6118C271.211 29.0679 278.138 33.1709 280.925 28.7419C281.923 27.5506 282.634 26.143 283 24.6297C283.366 23.1164 283.378 21.5385 283.035 20.0198C282.836 19.3392 282.467 18.7215 281.961 18.2261C281.456 17.7307 280.832 17.3744 280.149 17.1915C279.467 17.0086 278.749 17.0052 278.065 17.1817C277.381 17.3582 276.753 17.7087 276.243 18.1993L275.865 18.4982C275.231 19.1371 274.825 19.9692 274.713 20.8641C274.6 21.759 274.786 22.6662 275.242 23.4434L275.459 23.7423C277.678 26.6497 283.17 26.1334 283.008 21.6772C282.819 16.2429 278.57 7.79254 272.185 12.6563C271.442 13.1437 270.865 13.8472 270.532 14.6727C270.198 15.4981 270.123 16.4062 270.318 17.2754L270.507 18.634L277.299 14.667C274.458 11.189 269.398 8.14578 265.23 11.7324C264.556 12.3245 264.019 13.0582 263.658 13.8816C263.297 14.7051 263.121 15.5981 263.141 16.4976C263.162 17.3971 263.379 18.281 263.778 19.0868C264.176 19.8927 264.746 20.6008 265.447 21.161L270.345 14.7485C265.095 12.0313 258.682 8.41748 252.756 11.1618C246.831 13.9062 242.122 19.7481 238.334 24.7477L245.748 25.7258C243.042 14.0692 262.362 11.0803 269.479 13.1453C278.516 15.8625 284.578 26.2149 277.38 34.2034C273.889 38.0889 279.599 43.8765 283.116 39.9638L283.089 40.0725Z" fill="black"/>
<path d="M275.784 11.4607C264.5 3.82549 257.302 8.03709 249.482 18.1178C246.398 22.1392 251.593 27.8452 255.246 23.9054C256.653 22.3566 270.128 8.60772 272.915 14.9659L276.406 8.82507C272.185 8.82507 270.994 6.86871 267.152 9.88476L271.102 8.82507C255.922 6.56982 248.941 16.2701 236.656 23.1174L242.772 26.6497C241.581 13.5801 258.087 5.94487 269.208 8.3088C272.016 8.83267 274.643 10.0724 276.837 11.909C279.031 13.7456 280.718 16.1174 281.736 18.7971C283.089 22.7913 284.578 35.3446 275.215 31.758C270.318 29.8831 268.207 37.7629 273.051 39.6106C295.374 48.1425 293.778 14.1507 280.762 4.74932C264.527 -7.01601 232.598 4.12436 234.762 26.6497C234.775 27.3599 234.97 28.0547 235.33 28.6662C235.69 29.2776 236.202 29.7849 236.815 30.1381C237.429 30.4914 238.123 30.6787 238.831 30.6816C239.538 30.6845 240.234 30.503 240.851 30.1548C246.939 26.7856 251.864 21.1067 258.168 18.1993C263.932 15.4821 269.452 18.5526 274.214 14.667L270.264 15.7267C272.316 16.2891 274.404 16.7068 276.514 16.9766C277.224 16.9689 277.919 16.7759 278.532 16.4164C279.144 16.0569 279.653 15.5435 280.008 14.9265C280.363 14.3096 280.552 13.6104 280.556 12.8979C280.56 12.1854 280.38 11.484 280.032 10.8629C273.727 -3.56521 255.814 11.352 249.591 18.1178L255.354 23.9054C260.144 17.683 264.121 13.3084 271.806 18.471C276.135 21.4056 280.194 14.3409 275.892 11.4336L275.784 11.4607Z" fill="black"/>
<path d="M122.144 75.8848C120.114 78.7921 118.436 81.3191 117.083 83.3841H0L122.144 75.8848Z" fill="black"/>
<path d="M141.058 51.5118C138.866 53.9845 136.782 56.4842 134.78 58.9297H35.1765L141.058 51.5118Z" fill="black"/>
<path d="M156.184 36.2412C153.856 38.2791 151.583 40.4257 149.392 42.6266H64.9412L156.184 36.2412Z" fill="black"/>
<path d="M180.482 20.6991C176.561 22.1719 172.806 24.0572 169.28 26.3237H100.118L180.482 20.6991Z" fill="black"/>
</svg>
