<?xml version="1.0" encoding="iso-8859-1"?>
<!-- Generator: Adobe Illustrator 16.0.0, SVG Export Plug-In . SVG Version: 6.00 Build 0)  -->
<!DOCTYPE svg PUBLIC "-//W3C//DTD SVG 1.1//EN" "http://www.w3.org/Graphics/SVG/1.1/DTD/svg11.dtd">
<svg version="1.1" id="Capa_1" xmlns="http://www.w3.org/2000/svg" xmlns:xlink="http://www.w3.org/1999/xlink" x="0px" y="0px"
	 width="338.485px" height="338.485px" viewBox="0 0 338.485 338.485" style="enable-background:new 0 0 338.485 338.485;"
	 xml:space="preserve">
<g>
	<path d="M336.872,115.853l-55-97.495C279.656,14.429,275.495,12,270.985,12H67.5c-4.51,0-8.671,2.43-10.887,6.358l-55,97.495
		c-2.529,4.483-2.051,10.059,1.204,14.047l156.743,191.99c2.374,2.907,5.93,4.595,9.684,4.595s7.309-1.688,9.683-4.595
		L335.669,129.9C338.923,125.912,339.402,120.336,336.872,115.853z M110.231,36.999h118.022l-59.011,66.209L110.231,36.999z
		 M156.743,278.908l-117.9-144.414h117.9V278.908z M181.743,134.494h117.9l-117.9,144.414V134.494z M304.582,109.494H197.127
		l64.614-72.495h1.942L304.582,109.494z M74.8,36.999h1.942l64.614,72.495H33.903L74.8,36.999z"/>
</g>
<g>
</g>
<g>
</g>
<g>
</g>
<g>
</g>
<g>
</g>
<g>
</g>
<g>
</g>
<g>
</g>
<g>
</g>
<g>
</g>
<g>
</g>
<g>
</g>
<g>
</g>
<g>
</g>
<g>
</g>
</svg>
