<svg width="322" height="322" viewBox="0 0 322 322" fill="none" xmlns="http://www.w3.org/2000/svg">
<path d="M161 85.4867L0 37.0443V253.611L138.793 322V125.381L36.0862 91.1858V210.867L94.3793 236.513V173.823L74.9483 165.274V196.619L55.5172 190.92V128.23L116.586 151.027V279.257L16.6552 233.664V54.1416L161 99.7345L305.345 54.1416V233.664L205.414 279.257V151.027L266.483 128.23V188.071L247.052 196.619V165.274L227.621 173.823V236.513L285.914 210.867V91.1858L183.207 125.381V322L322 253.611V37.0443L161 85.4867Z" fill="black"/>
<path d="M161 8.54867L252.603 31.3451L161 56.9911L99.931 39.8938L161 25.646L185.983 31.3451L141.569 42.7434L161 48.4425L219.293 31.3451L161 17.0973L58.2931 42.7434L161 71.2389L299.793 31.3451L161 0L0 37.0442L18.404 42.5724L161 8.54867Z" fill="black"/>
</svg>
