<svg width="322" height="276" viewBox="0 0 322 276" fill="none" xmlns="http://www.w3.org/2000/svg">
<path d="M161.405 32.1158L113.397 13.3915C113.17 13.3035 112.925 13.272 112.683 13.2995C112.441 13.327 112.209 13.4128 112.007 13.5495C111.806 13.6862 111.641 13.8697 111.526 14.0842C111.411 14.2988 111.35 14.538 111.348 14.7813V50.2843C111.35 50.5276 111.411 50.7668 111.526 50.9813C111.641 51.1959 111.806 51.3793 112.007 51.516C112.209 51.6527 112.441 51.7385 112.683 51.766C112.925 51.7935 113.17 51.762 113.397 51.6741L161.468 32.9876C161.817 32.8484 162.207 32.8484 162.556 32.9876L210.627 51.6741C210.854 51.762 211.099 51.7935 211.341 51.766C211.583 51.7385 211.815 51.6527 212.017 51.516C212.218 51.3793 212.384 51.1959 212.498 50.9813C212.613 50.7668 212.674 50.5276 212.676 50.2843V14.7813C212.674 14.538 212.613 14.2988 212.498 14.0842C212.384 13.8697 212.218 13.6862 212.017 13.5495C211.815 13.4128 211.583 13.327 211.341 13.2995C211.099 13.272 210.854 13.3035 210.627 13.3915L162.556 32.0779C162.377 32.1615 162.182 32.2079 161.984 32.2144C161.786 32.2209 161.589 32.1874 161.405 32.1158Z" fill="black"/>
<path d="M161.316 56.1467C164.97 56.1467 167.932 53.1882 167.932 49.5388C167.932 45.8894 164.97 42.931 161.316 42.931C157.662 42.931 154.7 45.8894 154.7 49.5388C154.7 53.1882 157.662 56.1467 161.316 56.1467Z" fill="black"/>
<path d="M161.316 83.2225C164.97 83.2225 167.932 80.264 167.932 76.6146C167.932 72.9652 164.97 70.0068 161.316 70.0068C157.662 70.0068 154.7 72.9652 154.7 76.6146C154.7 80.264 157.662 83.2225 161.316 83.2225Z" fill="black"/>
<path d="M161.316 111.031C164.97 111.031 167.932 108.073 167.932 104.423C167.932 100.774 164.97 97.8154 161.316 97.8154C157.662 97.8154 154.7 100.774 154.7 104.423C154.7 108.073 157.662 111.031 161.316 111.031Z" fill="black"/>
<path d="M161.316 138.284C164.97 138.284 167.932 135.325 167.932 131.676C167.932 128.026 164.97 125.068 161.316 125.068C157.662 125.068 154.7 128.026 154.7 131.676C154.7 135.325 157.662 138.284 161.316 138.284Z" fill="black"/>
<path d="M312.955 85.4841H311.576C305.846 75.7049 302.266 65.8626 299.141 57.2333C293.613 41.996 289.236 29.9553 276.952 26.4429C263.037 22.501 258.331 32.0274 254.485 39.6839C252.474 43.7143 250.69 47.1888 247.996 47.8837C247.175 48.029 246.331 47.9911 245.527 47.7727C244.722 47.5542 243.975 47.1607 243.341 46.6202C239.052 43.6259 236.421 36.639 233.613 29.2351C228.261 15.1224 222.227 -0.872915 203.176 1.4392C193.427 2.48835 183.924 5.17072 175.067 9.37368C170.184 11.5468 166.212 13.2398 161.329 13.2398H160.658C155.712 13.2398 151.803 11.5468 146.92 9.37368C138.097 5.17339 128.629 2.4868 118.913 1.42657C99.9371 -0.847649 93.8144 15.135 88.4633 29.2225C85.655 36.6263 83.0237 43.6132 78.7353 46.6076C78.1006 47.1481 77.3541 47.5416 76.5493 47.76C75.7445 47.9785 74.9012 48.0164 74.08 47.8711C71.3475 47.1762 69.6018 43.7017 67.5904 39.6713C63.7953 32.0147 58.9629 22.4883 45.1362 26.4303C32.8528 29.9427 28.4631 41.9834 22.9349 57.2206C19.8103 65.85 16.2303 75.6923 10.4997 85.4714H9.09555C14.9653 75.5786 18.6086 65.5594 21.7458 56.8163C27.3878 41.2506 31.866 29.0204 44.7187 25.23C59.5322 21.0101 64.7567 31.4588 68.5771 39.128C70.462 42.9183 72.0939 46.1528 74.295 46.7087C74.948 46.813 75.616 46.7707 76.2506 46.5849C76.8852 46.3992 77.4703 46.0746 77.9636 45.6348C81.9611 42.8552 84.5418 36.0325 87.2742 28.8182C92.4988 15.0213 98.9884 -2.17427 118.976 0.226289C128.844 1.29747 138.461 4.01811 147.426 8.27447C152.271 10.4223 156.104 12.0648 160.987 12.0648C165.87 12.0648 169.691 10.4476 174.548 8.27447C183.509 4.01947 193.122 1.29886 202.986 0.226289C222.961 -2.17427 229.451 15.0087 234.688 28.8182C237.42 36.0325 240.014 42.8552 243.998 45.6348C244.492 46.0738 245.077 46.3979 245.712 46.5836C246.346 46.7694 247.014 46.8121 247.667 46.7087C249.868 46.1528 251.462 42.9183 253.385 39.128C257.18 31.5473 262.443 21.0606 277.243 25.23C290.109 28.9067 294.574 41.2 300.216 56.8163C303.442 65.572 307.073 75.5912 312.955 85.4841Z" fill="black"/>
<path d="M35.9521 10.5613C32.157 12.7723 32.7389 20.8963 37.3183 28.3633L189.122 276L50.6011 20.6436C50.4619 20.4162 50.3481 20.1761 50.2089 19.9487C46.0723 12.6965 39.6586 8.43867 35.9521 10.5613ZM47.1349 23.0821L50.5125 34.1752C50.544 34.2385 50.5501 34.3113 50.5297 34.3789C50.5093 34.4466 50.4639 34.5039 50.4027 34.5393C50.3415 34.5746 50.2691 34.5854 50.2002 34.5694C50.1313 34.5535 50.0711 34.5119 50.0318 34.4532L42.2646 25.7985C41.9911 25.5006 41.7838 25.1483 41.6562 24.7647C41.5286 24.3812 41.4836 23.975 41.5242 23.5729C41.5648 23.1708 41.69 22.7818 41.8916 22.4314C42.0933 22.081 42.3668 21.7771 42.6942 21.5396C43.0217 21.3022 43.3957 21.1365 43.7918 21.0535C44.1878 20.9706 44.5969 20.9721 44.9923 21.0581C45.3877 21.1441 45.7605 21.3126 46.0861 21.5525C46.4118 21.7925 46.6829 22.0984 46.8819 22.4503C46.9867 22.6522 47.0714 22.8638 47.1349 23.0821Z" fill="black"/>
<path d="M287.465 10.953C283.67 8.72935 276.902 13.3283 272.702 21.0606L133.41 275.962L286.035 28.6919C286.174 28.4645 286.314 28.2497 286.44 28.0223C290.665 20.7448 291.159 13.1641 287.465 10.953ZM282.177 26.8852L274.233 35.3377C274.193 35.3964 274.133 35.438 274.064 35.4539C273.995 35.4699 273.923 35.4591 273.862 35.4238C273.801 35.3884 273.755 35.3311 273.735 35.2634C273.714 35.1958 273.72 35.123 273.752 35.0597L277.357 24.0424C277.475 23.6523 277.675 23.2919 277.943 22.985C278.212 22.6781 278.542 22.4318 278.914 22.2626C279.285 22.0934 279.688 22.0051 280.096 22.0036C280.504 22.0021 280.907 22.0874 281.28 22.2539C281.652 22.4204 281.984 22.6642 282.255 22.9691C282.526 23.274 282.728 23.6331 282.849 24.0222C282.97 24.4114 283.006 24.8218 282.956 25.2262C282.905 25.6305 282.769 26.0195 282.556 26.3671C282.456 26.5575 282.328 26.7321 282.177 26.8852Z" fill="black"/>
</svg>
