<?xml version="1.0" encoding="iso-8859-1"?>
<!-- Generator: Adobe Illustrator 16.0.0, SVG Export Plug-In . SVG Version: 6.00 Build 0)  -->
<!DOCTYPE svg PUBLIC "-//W3C//DTD SVG 1.1//EN" "http://www.w3.org/Graphics/SVG/1.1/DTD/svg11.dtd">
<svg version="1.1" id="Capa_1" xmlns="http://www.w3.org/2000/svg" xmlns:xlink="http://www.w3.org/1999/xlink" x="0px" y="0px" width="322.746px" height="322.746px" viewBox="0 0 322.746 322.746" style="enable-background:new 0 0 322.746 322.746;" xml:space="preserve">

		<path d="M70.246,303.279H12.5c-6.903,0-12.5-5.598-12.5-12.5V151.967c0-6.903,5.597-12.5,12.5-12.5h57.746 c6.903,0,12.5,5.597,12.5,12.5V290.78C82.746,297.684,77.149,303.279,70.246,303.279z M25,278.279h32.746V164.467H25V278.279z"/>

		<path d="M190.246,303.279H132.5c-6.904,0-12.5-5.598-12.5-12.5V31.967c0-6.903,5.596-12.5,12.5-12.5h57.746 c6.902,0,12.5,5.597,12.5,12.5V290.78C202.746,297.684,197.148,303.279,190.246,303.279z M145,278.279h32.746V44.467H145V278.279 L145,278.279z"/>
	
		<path d="M310.246,303.279H252.5c-6.904,0-12.5-5.598-12.5-12.5V67.967c0-6.903,5.596-12.5,12.5-12.5h57.746 c6.903,0,12.5,5.597,12.5,12.5V290.78C322.746,297.684,317.149,303.279,310.246,303.279z M265,278.279h32.746V80.467H265V278.279 z"/>


</svg>
