<?xml version="1.0" encoding="iso-8859-1"?>
<!-- Generator: Adobe Illustrator 16.0.0, SVG Export Plug-In . SVG Version: 6.00 Build 0)  -->
<!DOCTYPE svg PUBLIC "-//W3C//DTD SVG 1.1//EN" "http://www.w3.org/Graphics/SVG/1.1/DTD/svg11.dtd">
<svg version="1.1" id="Capa_1" xmlns="http://www.w3.org/2000/svg" xmlns:xlink="http://www.w3.org/1999/xlink" x="0px" y="0px"
	 width="400.885px" height="400.885px" viewBox="0 0 400.885 400.885" style="enable-background:new 0 0 400.885 400.885;"
	 xml:space="preserve">
<g>
	<path d="M380.885,159.444v-35.137c0-17.921-14.58-32.5-32.5-32.5H32.5c-17.921,0-32.5,14.579-32.5,32.5v152.27
		c0,17.922,14.579,32.5,32.5,32.5h315.885c17.922,0,32.5-14.578,32.5-32.5V241.44c11.232-1.248,20-10.797,20-22.357v-37.281
		C400.885,170.241,392.117,160.692,380.885,159.444z M355.885,276.577c0,4.137-3.365,7.5-7.5,7.5H32.5c-4.136,0-7.5-3.363-7.5-7.5
		v-152.27c0-4.136,3.364-7.5,7.5-7.5h315.885c4.137,0,7.5,3.364,7.5,7.5v57.494v37.282V276.577L355.885,276.577z"/>
</g>
<g>
</g>
<g>
</g>
<g>
</g>
<g>
</g>
<g>
</g>
<g>
</g>
<g>
</g>
<g>
</g>
<g>
</g>
<g>
</g>
<g>
</g>
<g>
</g>
<g>
</g>
<g>
</g>
<g>
</g>
</svg>
