<?xml version="1.0" encoding="iso-8859-1"?>
<!-- Generator: Adobe Illustrator 16.0.0, SVG Export Plug-In . SVG Version: 6.00 Build 0)  -->
<!DOCTYPE svg PUBLIC "-//W3C//DTD SVG 1.1//EN" "http://www.w3.org/Graphics/SVG/1.1/DTD/svg11.dtd">
<svg version="1.1" id="Capa_1" xmlns="http://www.w3.org/2000/svg" xmlns:xlink="http://www.w3.org/1999/xlink" x="0px" y="0px"
	 width="400.885px" height="400.885px" viewBox="0 0 400.885 400.885" style="enable-background:new 0 0 400.885 400.885;"
	 xml:space="preserve">
<g>
	<g>
		<path d="M380.885,159.444v-35.137c0-17.921-14.58-32.5-32.5-32.5H32.5c-17.92,0-32.5,14.579-32.5,32.5v152.27
			c0,17.922,14.58,32.5,32.5,32.5h315.885c17.92,0,32.5-14.578,32.5-32.5V241.44c11.234-1.248,20-10.797,20-22.357v-37.281
			C400.885,170.241,392.117,160.692,380.885,159.444z M355.885,276.577c0,4.137-3.365,7.5-7.5,7.5H32.5c-4.136,0-7.5-3.363-7.5-7.5
			v-152.27c0-4.136,3.364-7.5,7.5-7.5h315.885c4.137,0,7.5,3.364,7.5,7.5v57.494v37.282V276.577L355.885,276.577z"/>
		<path d="M85.442,146.157c-6.903,0-12.5,5.597-12.5,12.5v83.57c0,6.902,5.597,12.5,12.5,12.5s12.5-5.598,12.5-12.5v-83.57
			C97.942,151.754,92.345,146.157,85.442,146.157z"/>
		<path d="M155.442,146.157c-6.903,0-12.5,5.597-12.5,12.5v83.57c0,6.902,5.597,12.5,12.5,12.5s12.5-5.598,12.5-12.5v-83.57
			C167.942,151.754,162.345,146.157,155.442,146.157z"/>
		<path d="M225.441,146.157c-6.902,0-12.5,5.597-12.5,12.5v83.57c0,6.902,5.598,12.5,12.5,12.5c6.903,0,12.5-5.598,12.5-12.5v-83.57
			C237.941,151.754,232.345,146.157,225.441,146.157z"/>
		<path d="M295.441,146.157c-6.902,0-12.5,5.597-12.5,12.5v83.57c0,6.902,5.598,12.5,12.5,12.5c6.904,0,12.5-5.598,12.5-12.5v-83.57
			C307.941,151.754,302.346,146.157,295.441,146.157z"/>
	</g>
</g>
<g>
</g>
<g>
</g>
<g>
</g>
<g>
</g>
<g>
</g>
<g>
</g>
<g>
</g>
<g>
</g>
<g>
</g>
<g>
</g>
<g>
</g>
<g>
</g>
<g>
</g>
<g>
</g>
<g>
</g>
</svg>
