<?xml version="1.0" encoding="iso-8859-1"?>
<!-- Generator: Adobe Illustrator 16.0.0, SVG Export Plug-In . SVG Version: 6.00 Build 0)  -->
<!DOCTYPE svg PUBLIC "-//W3C//DTD SVG 1.1//EN" "http://www.w3.org/Graphics/SVG/1.1/DTD/svg11.dtd">
<svg version="1.1" id="Capa_1" xmlns="http://www.w3.org/2000/svg" xmlns:xlink="http://www.w3.org/1999/xlink" x="0px" y="0px"
	 width="333.086px" height="333.087px" viewBox="0 0 333.086 333.087" style="enable-background:new 0 0 333.086 333.087;"
	 xml:space="preserve">
<g>
	<g>
		<path d="M284.662,333.087c-3.614,0-7.136-1.57-9.559-4.441l-108.56-128.714L57.983,328.646c-3.384,4.014-8.916,5.481-13.845,3.683
			c-4.93-1.802-8.21-6.492-8.21-11.741V12.5c0-6.903,5.597-12.5,12.5-12.5h236.23c6.902,0,12.5,5.597,12.5,12.5v308.086
			c0,5.249-3.28,9.939-8.21,11.741C287.546,332.839,286.096,333.087,284.662,333.087z M166.543,168.043
			c3.684,0,7.18,1.625,9.555,4.441l96.061,113.893V25H60.928v261.377l96.06-113.893
			C159.363,169.668,162.859,168.043,166.543,168.043z"/>
	</g>
</g>
<g>
</g>
<g>
</g>
<g>
</g>
<g>
</g>
<g>
</g>
<g>
</g>
<g>
</g>
<g>
</g>
<g>
</g>
<g>
</g>
<g>
</g>
<g>
</g>
<g>
</g>
<g>
</g>
<g>
</g>
</svg>
