<?xml version="1.0" encoding="iso-8859-1"?>
<!-- Generator: Adobe Illustrator 16.0.0, SVG Export Plug-In . SVG Version: 6.00 Build 0)  -->
<!DOCTYPE svg PUBLIC "-//W3C//DTD SVG 1.1//EN" "http://www.w3.org/Graphics/SVG/1.1/DTD/svg11.dtd">
<svg version="1.1" id="Capa_1" xmlns="http://www.w3.org/2000/svg" xmlns:xlink="http://www.w3.org/1999/xlink" x="0px" y="0px"
	 width="419.251px" height="419.251px" viewBox="0 0 419.251 419.251" style="enable-background:new 0 0 419.251 419.251;"
	 xml:space="preserve">
<g>
	<g>
		<path d="M381.644,19.317h-24.518V12.5c0-6.903-5.596-12.5-12.5-12.5s-12.5,5.597-12.5,12.5v6.817h-65V12.5
			c0-6.903-5.596-12.5-12.5-12.5s-12.5,5.597-12.5,12.5v6.817h-65V12.5c0-6.903-5.596-12.5-12.5-12.5s-12.5,5.597-12.5,12.5v6.817
			h-65V12.5c0-6.903-5.596-12.5-12.5-12.5s-12.5,5.597-12.5,12.5v6.817H37.607c-17.92,0-32.5,14.579-32.5,32.5v47.272
			c0,13.495,8.268,25.091,20.003,29.998v257.664c0,17.921,14.58,32.5,32.5,32.5h304.03c17.92,0,32.5-14.579,32.5-32.5V129.088
			c11.736-4.907,20.004-16.503,20.004-29.998V51.817C414.144,33.897,399.566,19.317,381.644,19.317z M30.107,51.817
			c0-4.136,3.364-7.5,7.5-7.5h24.519v5.682c0,6.904,5.596,12.5,12.5,12.5s12.5-5.596,12.5-12.5v-5.682h65v5.682
			c0,6.904,5.596,12.5,12.5,12.5s12.5-5.596,12.5-12.5v-5.682h65v5.682c0,6.904,5.596,12.5,12.5,12.5s12.5-5.596,12.5-12.5v-5.682
			h65v5.682c0,6.904,5.596,12.5,12.5,12.5s12.5-5.596,12.5-12.5v-5.682h24.518c4.137,0,7.5,3.364,7.5,7.5v47.272
			c0,4.136-3.363,7.5-7.5,7.5H37.607c-4.136,0-7.5-3.364-7.5-7.5V51.817z M361.642,394.252H57.61c-4.136,0-7.5-3.364-7.5-7.5V131.59
			h319.03v255.162C369.142,390.888,365.777,394.252,361.642,394.252z"/>
		<path d="M251.819,199.835c6.904,0,12.501-5.597,12.501-12.5s-5.597-12.5-12.501-12.5h-84.386c-6.904,0-12.5,5.597-12.5,12.5
			v61.578c0,6.903,5.596,12.5,12.5,12.5h71.886v43.422h-71.886c-6.904,0-12.5,5.597-12.5,12.5s5.596,12.5,12.5,12.5h84.386
			c6.904,0,12.501-5.597,12.501-12.5v-68.422c0-6.903-5.597-12.5-12.501-12.5h-71.886v-36.578H251.819z"/>
	</g>
</g>
<g>
</g>
<g>
</g>
<g>
</g>
<g>
</g>
<g>
</g>
<g>
</g>
<g>
</g>
<g>
</g>
<g>
</g>
<g>
</g>
<g>
</g>
<g>
</g>
<g>
</g>
<g>
</g>
<g>
</g>
</svg>
