<svg width="266" height="322" viewBox="0 0 266 322" fill="none" xmlns="http://www.w3.org/2000/svg">
<path d="M10.3475 9.32181C8.21496 9.32181 6.19767 9.32181 4.39653 9.4659C4.65589 7.75121 4.94409 6.06534 5.21786 4.4227C5.42102 3.14277 6.09081 1.98337 7.09815 1.16805C8.1055 0.352725 9.37901 -0.0607852 10.6732 0.00723458C11.9673 0.0752544 13.1905 0.619993 14.1069 1.53642C15.0232 2.45285 15.5678 3.67608 15.6356 4.97026C15.7221 6.41117 15.823 7.93853 15.9383 9.45149C14.238 9.32181 12.336 9.32181 10.3475 9.32181Z" fill="black"/>
<path d="M265.274 307.591C261.787 311.914 257.464 309.032 256.023 306.15C241.528 236.309 194.856 184.393 102.566 184.393C-5.50252 184.393 -5.8628 77.4482 3.99305 12.0452C5.89505 12.146 8.05647 12.2037 10.3475 12.2037C12.6386 12.2037 14.3821 12.2037 16.1112 12.0596C20.2034 65.8056 34.6125 144.047 83.8341 144.047C227.176 144.047 264.64 214.306 265.274 307.591Z" fill="black"/>
<path d="M258.473 321.107L256.095 313.801C256.027 313.603 256.004 313.393 256.025 313.185C256.047 312.978 256.113 312.777 256.22 312.597C256.327 312.418 256.472 312.264 256.644 312.145C256.817 312.027 257.013 311.948 257.219 311.914H263.473C263.683 311.95 263.883 312.033 264.057 312.156C264.232 312.28 264.377 312.44 264.482 312.626C264.587 312.813 264.649 313.02 264.664 313.233C264.678 313.446 264.646 313.66 264.568 313.859L261.873 321.164C261.796 321.397 261.65 321.602 261.454 321.751C261.259 321.9 261.023 321.987 260.778 322H259.582C259.326 321.99 259.08 321.897 258.88 321.736C258.68 321.576 258.537 321.355 258.473 321.107Z" fill="black"/>
<path d="M71.0243 321.236L69.1656 314.968C68.935 314.19 69.3961 313.354 70.0445 313.354H74.9724C75.6496 313.354 76.0963 314.233 75.8369 315.026L73.7044 321.28C73.6537 321.475 73.543 321.65 73.388 321.779C73.2329 321.908 73.0412 321.985 72.8399 322H71.9033C71.6943 321.983 71.4962 321.9 71.338 321.763C71.1798 321.625 71.0699 321.441 71.0243 321.236Z" fill="black"/>
<path d="M90.2893 190.228C90.275 192.429 90.1451 194.627 89.9003 196.813L79.0934 294.882C78.3441 301.726 76.3557 311.914 74.4537 311.914H70.131C68.1569 311.914 66.1972 301.337 65.4912 294.075L56.0388 196.007C55.5758 191.359 55.5758 186.677 56.0388 182.03C67.0053 186.385 78.5394 189.146 90.2893 190.228Z" fill="black"/>
</svg>
