<?xml version="1.0" encoding="iso-8859-1"?>
<!-- Generator: Adobe Illustrator 16.0.0, SVG Export Plug-In . SVG Version: 6.00 Build 0)  -->
<!DOCTYPE svg PUBLIC "-//W3C//DTD SVG 1.1//EN" "http://www.w3.org/Graphics/SVG/1.1/DTD/svg11.dtd">
<svg version="1.1" id="Capa_1" xmlns="http://www.w3.org/2000/svg" xmlns:xlink="http://www.w3.org/1999/xlink" x="0px" y="0px"
	 width="393.849px" height="393.848px" viewBox="0 0 393.849 393.848" style="enable-background:new 0 0 393.849 393.848;"
	 xml:space="preserve">
<g>
	<g>
		<path d="M301.351,329.424H92.499C41.495,329.424,0,287.929,0,236.925c0-34.444,18.917-65.593,48.864-81.584
			c0.849-50.276,42.01-90.917,92.483-90.917c29.681,0,57.638,14.46,74.925,38.258c4.199-0.578,8.445-0.87,12.698-0.87
			c31.842,0,61.089,16.215,78.01,42.78c48.395,2.918,86.869,43.216,86.869,92.333C393.85,287.929,352.354,329.424,301.351,329.424z
			 M141.348,89.424c-37.218,0-67.497,30.28-67.497,67.5c0,1.759,0.066,3.523,0.198,5.244c0.409,5.369-2.664,10.397-7.629,12.479
			C41.258,185.2,25,209.647,25,236.925c0,37.22,30.28,67.499,67.499,67.499h208.852c37.219,0,67.499-30.279,67.499-67.499
			c0-37.221-30.28-67.502-67.499-67.502c-0.457,0-0.91,0.01-1.365,0.02c-4.747,0.093-9.104-2.473-11.316-6.65
			c-11.745-22.193-34.618-35.979-59.697-35.979c-5.297,0-10.575,0.617-15.688,1.834c-5.346,1.27-10.894-1.093-13.674-5.831
			C187.516,102.219,165.192,89.424,141.348,89.424z"/>
	</g>
</g>
<g>
</g>
<g>
</g>
<g>
</g>
<g>
</g>
<g>
</g>
<g>
</g>
<g>
</g>
<g>
</g>
<g>
</g>
<g>
</g>
<g>
</g>
<g>
</g>
<g>
</g>
<g>
</g>
<g>
</g>
</svg>
