<svg width="322" height="322" viewBox="0 0 322 322" fill="none" xmlns="http://www.w3.org/2000/svg">
<path d="M28.4761 0C28.4761 0 8.23016 100.29 76.7749 111.625C145.32 122.961 148.8 165.687 148.8 186.618C155.572 161.835 154.032 132.767 143.074 109.302C133.95 89.7369 116.032 73.3118 94.5284 70.2416C87.474 69.2376 80.1375 69.6462 73.3653 67.5333C57.5871 62.6536 47.0173 45.9483 40.1628 31.998C36.7297 25.1105 26.83 8.1717 28.4761 0Z" fill="black"/>
<path d="M57.6105 34.9515C57.6105 34.9515 63.4891 68.5606 91.5302 63.8093C118.078 59.3032 133.598 81.2267 136.525 88.0793C135.62 78.8803 123.733 58.4043 116.291 52.4623C112.995 49.8211 109.119 47.9881 104.976 47.1119C100.834 46.2357 96.5413 46.341 92.4473 47.4192C89.6373 48.213 86.9214 49.5205 84.0408 49.9174C77.3862 50.8397 71.1079 47.0573 66.4991 43.5785C64.23 41.8625 58.1044 37.8934 57.6105 34.9515Z" fill="black"/>
<path d="M312.743 107.248C303.337 92.0717 256.308 107.096 256.308 107.096C266.741 122.72 272.34 141.034 272.415 159.78C272.417 168.642 271.147 177.459 268.641 185.965C268.336 187.004 268.018 188.031 267.677 189.046C266.367 192.993 264.796 196.85 262.975 200.592C242.987 242.303 193.242 271.802 135.032 271.802C70.908 271.802 17.0598 235.964 1.93998 187.494C1.19535 185.159 0.548672 182.766 0 180.314C0.29785 183.038 0.650597 185.731 1.05818 188.393C12.545 264.378 67.9805 322 134.644 322C193.43 322 243.469 277.207 262.363 214.53C264.171 213.828 266.035 213.277 267.936 212.884C268.834 212.752 269.714 212.517 270.558 212.184C274.308 210.731 277.917 208.941 281.339 206.837C296.048 197.814 314.848 178.68 320.985 138.72C324.065 118.84 319.797 109.641 312.743 107.248ZM302.585 127.257C300.233 138.826 289.181 172.61 276.966 190.949C276.868 191.093 276.724 191.199 276.557 191.25C276.391 191.301 276.211 191.294 276.049 191.23C275.887 191.166 275.752 191.048 275.667 190.898C275.581 190.747 275.55 190.571 275.578 190.401L283.573 137.355C284.502 124.747 299.669 124.513 299.669 124.513C300.061 124.398 300.477 124.387 300.875 124.48C301.273 124.573 301.64 124.768 301.94 125.045C302.239 125.322 302.46 125.672 302.581 126.059C302.703 126.447 302.72 126.86 302.632 127.257H302.585Z" fill="black"/>
</svg>
