<?xml version="1.0" encoding="iso-8859-1"?>
<!-- Generator: Adobe Illustrator 16.0.0, SVG Export Plug-In . SVG Version: 6.00 Build 0)  -->
<!DOCTYPE svg PUBLIC "-//W3C//DTD SVG 1.1//EN" "http://www.w3.org/Graphics/SVG/1.1/DTD/svg11.dtd">
<svg version="1.1" id="Capa_1" xmlns="http://www.w3.org/2000/svg" xmlns:xlink="http://www.w3.org/1999/xlink" x="0px" y="0px"
	 width="348.153px" height="348.153px" viewBox="0 0 348.153 348.153" style="enable-background:new 0 0 348.153 348.153;"
	 xml:space="preserve">
<g>
	<g>
		<path d="M174.077,96.087c-6.904,0-12.5,5.597-12.5,12.5v169.354c0,6.902,5.596,12.5,12.5,12.5c6.902,0,12.5-5.598,12.5-12.5
			V108.587C186.577,101.684,180.979,96.087,174.077,96.087z"/>
		<path d="M293.077,38.374h-61V12.5c0-6.903-5.597-12.5-12.5-12.5h-91c-6.903,0-12.5,5.597-12.5,12.5v25.874h-61
			c-6.904,0-12.5,5.596-12.5,12.5c0,6.904,5.596,12.5,12.5,12.5h11.255v272.279c0,6.902,5.597,12.5,12.5,12.5h190.49
			c6.903,0,12.5-5.598,12.5-12.5V63.374h11.255c6.903,0,12.5-5.596,12.5-12.5C305.577,43.97,299.98,38.374,293.077,38.374z
			 M141.077,25h66v13.374h-66V25z M256.822,323.154H91.332V63.374h37.245h91h37.245V323.154z"/>
	</g>
</g>
<g>
</g>
<g>
</g>
<g>
</g>
<g>
</g>
<g>
</g>
<g>
</g>
<g>
</g>
<g>
</g>
<g>
</g>
<g>
</g>
<g>
</g>
<g>
</g>
<g>
</g>
<g>
</g>
<g>
</g>
</svg>
