<?xml version="1.0" encoding="iso-8859-1"?>
<!-- Generator: Adobe Illustrator 16.0.0, SVG Export Plug-In . SVG Version: 6.00 Build 0)  -->
<!DOCTYPE svg PUBLIC "-//W3C//DTD SVG 1.1//EN" "http://www.w3.org/Graphics/SVG/1.1/DTD/svg11.dtd">
<svg version="1.1" id="Capa_1" xmlns="http://www.w3.org/2000/svg" xmlns:xlink="http://www.w3.org/1999/xlink" x="0px" y="0px"
	 width="332.003px" height="332.003px" viewBox="0 0 332.003 332.003" style="enable-background:new 0 0 332.003 332.003;"
	 xml:space="preserve">
<g>
	<g>
		<path d="M273.93,8.29h-75.561C196.64,3.461,192.035,0,186.61,0h-41.218c-5.424,0-10.027,3.461-11.758,8.29H58.073
			c-19.063,0-34.572,15.509-34.572,34.571v31.448c0,6.903,5.597,12.5,12.5,12.5H59.51v232.694c0,6.903,5.597,12.5,12.5,12.5h187.982
			c6.902,0,12.5-5.597,12.5-12.5V86.81h23.51c6.903,0,12.5-5.597,12.5-12.5V42.862C308.502,23.799,292.993,8.29,273.93,8.29z
			 M247.493,307.004H84.511V86.81h162.982V307.004z M283.502,61.81h-235V42.862c0-5.277,4.293-9.571,9.572-9.571h215.855
			c5.277,0,9.572,4.294,9.572,9.571L283.502,61.81L283.502,61.81z"/>
		<path d="M133.245,263.873c6.903,0,12.5-5.598,12.5-12.5V119.638c0-6.903-5.597-12.5-12.5-12.5c-6.903,0-12.5,5.597-12.5,12.5
			v131.735C120.745,258.275,126.342,263.873,133.245,263.873z"/>
		<path d="M198.759,263.873c6.903,0,12.5-5.598,12.5-12.5V119.638c0-6.903-5.597-12.5-12.5-12.5c-6.902,0-12.5,5.597-12.5,12.5
			v131.735C186.259,258.275,191.856,263.873,198.759,263.873z"/>
	</g>
</g>
<g>
</g>
<g>
</g>
<g>
</g>
<g>
</g>
<g>
</g>
<g>
</g>
<g>
</g>
<g>
</g>
<g>
</g>
<g>
</g>
<g>
</g>
<g>
</g>
<g>
</g>
<g>
</g>
<g>
</g>
</svg>
