<?xml version="1.0" encoding="iso-8859-1"?>
<!-- Generator: Adobe Illustrator 16.0.0, SVG Export Plug-In . SVG Version: 6.00 Build 0)  -->
<!DOCTYPE svg PUBLIC "-//W3C//DTD SVG 1.1//EN" "http://www.w3.org/Graphics/SVG/1.1/DTD/svg11.dtd">
<svg version="1.1" id="Capa_1" xmlns="http://www.w3.org/2000/svg" xmlns:xlink="http://www.w3.org/1999/xlink" x="0px" y="0px"
	 width="361.887px" height="361.887px" viewBox="0 0 361.887 361.887" style="enable-background:new 0 0 361.887 361.887;"
	 xml:space="preserve">
<g>
	<path d="M324.508,344.648l-85.316-208.282V12.5c0-6.903-5.596-12.5-12.5-12.5h-91.496c-6.904,0-12.5,5.597-12.5,12.5v123.867
		L37.379,344.648c-1.579,3.854-1.134,8.244,1.188,11.703c2.321,3.459,6.214,5.535,10.38,5.535h263.994
		c4.166,0,8.059-2.076,10.38-5.535C325.642,352.893,326.087,348.504,324.508,344.648z M146.762,143.566
		c0.616-1.504,0.933-3.113,0.933-4.738V25h66.496v113.828c0,1.625,0.316,3.234,0.933,4.738l15.612,38.113H131.15L146.762,143.566z
		 M67.574,336.887l53.335-130.208h120.066l53.335,130.208H67.574z"/>
</g>
<g>
</g>
<g>
</g>
<g>
</g>
<g>
</g>
<g>
</g>
<g>
</g>
<g>
</g>
<g>
</g>
<g>
</g>
<g>
</g>
<g>
</g>
<g>
</g>
<g>
</g>
<g>
</g>
<g>
</g>
</svg>
