<?xml version="1.0" encoding="iso-8859-1"?>
<!-- Generator: Adobe Illustrator 16.0.0, SVG Export Plug-In . SVG Version: 6.00 Build 0)  -->
<!DOCTYPE svg PUBLIC "-//W3C//DTD SVG 1.1//EN" "http://www.w3.org/Graphics/SVG/1.1/DTD/svg11.dtd">
<svg version="1.1" id="Capa_1" xmlns="http://www.w3.org/2000/svg" xmlns:xlink="http://www.w3.org/1999/xlink" x="0px" y="0px"
	 width="415.979px" height="415.978px" viewBox="0 0 415.979 415.978" style="enable-background:new 0 0 415.979 415.978;"
	 xml:space="preserve">
<g>
	<path d="M412.762,119.011c-2.369-2.629-5.744-4.13-9.283-4.13h-2.346c-2.904-26.221-25.189-46.685-52.172-46.685H210.488V55.898
		c0-6.903-5.597-12.5-12.5-12.5H52.5C23.552,43.398,0,66.95,0,95.898c0,0.371,0.017,0.741,0.05,1.11l20,224.184
		c0.005,0.063,0.012,0.126,0.018,0.188c3.199,30.624,24.27,51.2,52.433,51.2H343.48c27.082,0,47.633-19.862,52.354-50.603
		c0.031-0.201,0.059-0.404,0.078-0.607l20-192.701C416.277,125.15,415.133,121.639,412.762,119.011z M375.838,114.881h-137.85
		c-13.168,0-24.199-9.306-26.875-21.685h137.85C362.131,93.196,373.16,102.501,375.838,114.881z M371.078,318.468
		c-1.154,7.209-6.426,29.112-27.6,29.112H72.5c-18.068,0-26.078-14.812-27.558-28.706L25.005,95.392
		c-1.138-14.935,12.5-26.994,27.495-26.994h132.989V87.38c0,28.948,23.552,52.5,52.5,52.5h151.625L371.078,318.468z"/>
</g>
<g>
</g>
<g>
</g>
<g>
</g>
<g>
</g>
<g>
</g>
<g>
</g>
<g>
</g>
<g>
</g>
<g>
</g>
<g>
</g>
<g>
</g>
<g>
</g>
<g>
</g>
<g>
</g>
<g>
</g>
</svg>
