<?xml version="1.0" encoding="iso-8859-1"?>
<!-- Generator: Adobe Illustrator 16.0.0, SVG Export Plug-In . SVG Version: 6.00 Build 0)  -->
<!DOCTYPE svg PUBLIC "-//W3C//DTD SVG 1.1//EN" "http://www.w3.org/Graphics/SVG/1.1/DTD/svg11.dtd">
<svg version="1.1" id="Capa_1" xmlns="http://www.w3.org/2000/svg" xmlns:xlink="http://www.w3.org/1999/xlink" x="0px" y="0px"
	 width="369.865px" height="369.865px" viewBox="0 0 369.865 369.865" style="enable-background:new 0 0 369.865 369.865;"
	 xml:space="preserve">
<g>
	<g>
		<path d="M337.852,209.27c1.271-8.035,1.913-16.19,1.913-24.336c0-8.145-0.642-16.3-1.913-24.336
			c7.503-6.647,12.858-15.384,15.386-25.289c3.278-12.85,1.432-26.251-5.2-37.738l-5.893-10.206
			c-8.997-15.582-25.774-25.262-43.783-25.262c-5.396,0-10.774,0.881-15.892,2.581c-12.739-10.362-26.866-18.529-42.158-24.371
			c-2.008-9.815-6.896-18.814-14.207-25.95C216.617,5.101,204.088,0,190.826,0h-11.785c-13.262,0-25.791,5.101-35.279,14.362
			c-7.311,7.136-12.2,16.135-14.208,25.949c-15.292,5.843-29.419,14.01-42.158,24.372c-5.118-1.7-10.495-2.581-15.893-2.581
			c-18.009,0-34.786,9.68-43.783,25.262L21.83,97.569c-6.632,11.486-8.479,24.888-5.201,37.738
			c2.527,9.905,7.882,18.643,15.385,25.29c-1.271,8.036-1.913,16.191-1.913,24.336c0,8.145,0.642,16.299,1.913,24.336
			c-7.503,6.646-12.858,15.383-15.386,25.289c-3.278,12.851-1.431,26.252,5.2,37.738l5.893,10.205
			c8.996,15.582,25.773,25.262,43.783,25.262c5.397,0,10.774-0.879,15.892-2.58c12.739,10.361,26.866,18.528,42.158,24.371
			c2.008,9.814,6.896,18.812,14.207,25.949c9.488,9.262,22.017,14.361,35.278,14.361l0,0h11.786c13.262,0,25.791-5.1,35.278-14.361
			c7.312-7.137,12.199-16.135,14.207-25.949c15.292-5.843,29.419-14.01,42.158-24.371c5.117,1.699,10.495,2.58,15.892,2.58
			c0.001,0,0,0,0.001,0c18.008,0,34.785-9.68,43.782-25.262l5.891-10.205c6.633-11.486,8.479-24.889,5.201-37.738
			C350.71,224.654,345.354,215.917,337.852,209.27z M311.926,157.837c1.883,8.874,2.838,17.991,2.838,27.097
			s-0.955,18.223-2.838,27.097c-1.1,5.179,1.183,10.487,5.697,13.253c11.884,7.281,15.732,22.441,8.763,34.516l-5.892,10.204
			c-4.545,7.872-13.024,12.761-22.131,12.761c-4.221,0-8.424-1.072-12.155-3.103c-4.659-2.534-10.408-1.853-14.346,1.7
			c-13.674,12.336-29.447,21.453-46.883,27.102c-5.041,1.633-8.505,6.266-8.644,11.562c-0.367,13.93-11.571,24.842-25.508,24.842
			h-11.786c-13.937,0-25.141-10.912-25.508-24.842c-0.14-5.297-3.603-9.93-8.644-11.562c-17.436-5.646-33.209-14.766-46.884-27.102
			c-2.352-2.121-5.349-3.219-8.375-3.219c-2.04,0-4.093,0.498-5.969,1.52c-3.785,2.059-7.875,3.104-12.155,3.104
			c-9.107,0-17.587-4.891-22.132-12.764l-5.893-10.205c-6.969-12.072-3.12-27.232,8.764-34.514
			c4.514-2.766,6.796-8.075,5.697-13.253c-1.883-8.874-2.838-17.991-2.838-27.097c0-9.104,0.955-18.222,2.838-27.096
			c1.099-5.178-1.183-10.487-5.696-13.253c-11.884-7.282-15.733-22.442-8.763-34.515l5.891-10.205
			C53.92,91.993,62.4,87.103,71.508,87.103c4.22,0,8.424,1.073,12.156,3.103c4.658,2.534,10.408,1.853,14.345-1.699
			c13.675-12.336,29.449-21.454,46.884-27.103c5.041-1.632,8.504-6.266,8.644-11.562c0.367-13.93,11.572-24.841,25.509-24.841
			h11.785c13.937,0,25.141,10.912,25.508,24.841c0.139,5.296,3.603,9.93,8.644,11.562c17.437,5.647,33.209,14.766,46.884,27.103
			c3.938,3.551,9.688,4.232,14.346,1.699c3.785-2.059,7.874-3.103,12.154-3.103c9.106,0,17.587,4.891,22.133,12.763l5.893,10.205
			c6.969,12.072,3.12,27.232-8.764,34.514C313.108,147.35,310.826,152.659,311.926,157.837z"/>
		<path d="M184.934,74.939c-60.651,0-109.995,49.344-109.995,109.995c0,60.651,49.344,109.996,109.995,109.996
			c60.651,0,109.995-49.345,109.995-109.996C294.929,124.283,245.585,74.939,184.934,74.939z M184.934,269.93
			c-46.866,0-84.995-38.129-84.995-84.996c0-46.866,38.129-84.995,84.995-84.995s84.995,38.129,84.995,84.995
			C269.929,231.801,231.8,269.93,184.934,269.93z"/>
	</g>
</g>
<g>
</g>
<g>
</g>
<g>
</g>
<g>
</g>
<g>
</g>
<g>
</g>
<g>
</g>
<g>
</g>
<g>
</g>
<g>
</g>
<g>
</g>
<g>
</g>
<g>
</g>
<g>
</g>
<g>
</g>
</svg>
