<?xml version="1.0" encoding="iso-8859-1"?>
<!-- Generator: Adobe Illustrator 16.0.0, SVG Export Plug-In . SVG Version: 6.00 Build 0)  -->
<!DOCTYPE svg PUBLIC "-//W3C//DTD SVG 1.1//EN" "http://www.w3.org/Graphics/SVG/1.1/DTD/svg11.dtd">
<svg version="1.1" id="Capa_1" xmlns="http://www.w3.org/2000/svg" xmlns:xlink="http://www.w3.org/1999/xlink" x="0px" y="0px"
	 width="367.473px" height="367.473px" viewBox="0 0 367.473 367.473" style="enable-background:new 0 0 367.473 367.473;"
	 xml:space="preserve">
<g>
	<path d="M314.98,90h-13.537c4.111-5.801,7.141-12.379,8.875-19.496c3.604-14.794,1.23-30.107-6.684-43.116
		C293.202,10.239,274.98,0,254.89,0c-10.416,0-20.646,2.873-29.581,8.308c-15.162,9.221-30.998,38.1-41.572,60.589
		c-10.574-22.489-26.41-51.367-41.572-60.588C133.229,2.873,123,0,112.583,0C92.492,0,74.271,10.239,63.839,27.388
		c-7.915,13.009-10.288,28.322-6.685,43.116c1.734,7.117,4.763,13.695,8.875,19.496H52.492c-6.903,0-12.5,5.597-12.5,12.5v252.473
		c0,6.902,5.597,12.5,12.5,12.5H314.98c6.903,0,12.5-5.598,12.5-12.5V102.5C327.48,95.596,321.884,90,314.98,90z M238.301,29.668
		C243.32,26.614,249.057,25,254.89,25c11.29,0,21.527,5.75,27.386,15.381c4.443,7.304,5.776,15.9,3.753,24.206
		s-7.16,15.326-14.466,19.77c-1.939,1.18-9.768,4.737-33.912,5.497c5.711-4.212,10.461-9.126,13.934-14.615
		c3.69-5.834,1.952-13.556-3.883-17.246c-5.831-3.689-13.555-1.952-17.246,3.882c-3.781,5.978-11.777,11.99-23.092,15.65
		C217.668,56.004,229.979,34.728,238.301,29.668z M85.197,40.38C91.054,30.749,101.293,25,112.583,25
		c5.833,0,11.569,1.614,16.59,4.668c8.308,5.052,20.62,26.329,30.929,47.854c-11.311-3.66-19.305-9.67-23.084-15.647
		c-3.69-5.834-11.411-7.572-17.246-3.883c-5.834,3.69-7.573,11.411-3.883,17.246c3.472,5.489,8.223,10.403,13.934,14.615
		c-24.146-0.761-31.973-4.317-33.914-5.498c-7.304-4.442-12.44-11.463-14.464-19.769S80.754,47.684,85.197,40.38z M64.992,115
		h74.402h0.007h31.835v227.473H64.992V115z M302.48,342.473H196.236V115h31.841h0.003h74.4V342.473z"/>
</g>
<g>
</g>
<g>
</g>
<g>
</g>
<g>
</g>
<g>
</g>
<g>
</g>
<g>
</g>
<g>
</g>
<g>
</g>
<g>
</g>
<g>
</g>
<g>
</g>
<g>
</g>
<g>
</g>
<g>
</g>
</svg>
