<?xml version="1.0" encoding="iso-8859-1"?>
<!-- Generator: Adobe Illustrator 16.0.0, SVG Export Plug-In . SVG Version: 6.00 Build 0)  -->
<!DOCTYPE svg PUBLIC "-//W3C//DTD SVG 1.1//EN" "http://www.w3.org/Graphics/SVG/1.1/DTD/svg11.dtd">
<svg version="1.1" id="Capa_1" xmlns="http://www.w3.org/2000/svg" xmlns:xlink="http://www.w3.org/1999/xlink" x="0px" y="0px"
	 width="322.873px" height="322.873px" viewBox="0 0 322.873 322.873" style="enable-background:new 0 0 322.873 322.873;"
	 xml:space="preserve">
<g>
	<g>
		<g>
			<g>
				<path d="M186.984,41.437c6.621,0,13.267,2.332,18.606,7.076l68.854,61.155c12.037,12.296,23.428,33.273,23.428,51.304v60.223
					c0,33.27-24.143,60.242-53.93,60.242l-68.719-0.025c-15.48,0-28.036-12.558-28.036-28.033c0-5.088,1.378-9.846,3.748-13.963
					c-12.984-2.444-22.81-13.832-22.81-27.535c0-5.558,1.637-10.719,4.429-15.078c-10.464-4.072-17.882-14.219-17.882-26.109
					c0-5.22,1.45-10.082,3.934-14.271H53.032c-15.486,0-28.034-12.557-28.034-28.033c0-15.487,12.548-28.033,28.034-28.033h126.495
					l-11.174-9.928c-11.576-10.273-12.621-27.994-2.344-39.57C171.551,44.62,179.251,41.437,186.984,41.437 M186.984,16.437
					c-15.148,0-29.605,6.494-39.665,17.816c-9.408,10.598-14.125,24.217-13.29,38.354c0.055,0.921,0.132,1.838,0.233,2.748H53.034
					C23.791,75.354,0,99.146,0,128.388c0,29.242,23.791,53.033,53.034,53.033h37.729c1.437,6.988,4.282,13.621,8.429,19.563
					c1.305,1.869,2.718,3.644,4.232,5.313c-0.196,1.848-0.294,3.709-0.294,5.58c0,16.175,7.32,30.912,19.067,40.726
					c-0.004,0.258-0.006,0.515-0.006,0.772c0,29.242,23.792,53.032,53.036,53.032l68.709,0.028c21.621,0,41.781-9.225,56.771-25.971
					c14.295-15.971,22.166-37.021,22.166-59.271v-60.223c0-12.144-3.346-25.51-9.676-38.652
					c-5.385-11.178-12.801-21.881-20.885-30.139c-0.406-0.416-0.828-0.818-1.264-1.205l-68.855-61.154
					C212.479,21.19,199.975,16.437,186.984,16.437L186.984,16.437z"/>
			</g>
		</g>
	</g>
</g>
<g>
</g>
<g>
</g>
<g>
</g>
<g>
</g>
<g>
</g>
<g>
</g>
<g>
</g>
<g>
</g>
<g>
</g>
<g>
</g>
<g>
</g>
<g>
</g>
<g>
</g>
<g>
</g>
<g>
</g>
</svg>
