<?xml version="1.0" encoding="iso-8859-1"?>
<!-- Generator: Adobe Illustrator 16.0.0, SVG Export Plug-In . SVG Version: 6.00 Build 0)  -->
<!DOCTYPE svg PUBLIC "-//W3C//DTD SVG 1.1//EN" "http://www.w3.org/Graphics/SVG/1.1/DTD/svg11.dtd">
<svg version="1.1" id="Capa_1" xmlns="http://www.w3.org/2000/svg" xmlns:xlink="http://www.w3.org/1999/xlink" x="0px" y="0px"
	 width="322.877px" height="322.877px" viewBox="0 0 322.877 322.877" style="enable-background:new 0 0 322.877 322.877;"
	 xml:space="preserve">
<g>
	<g>
		<g>
			<g>
				<path d="M135.892,41.438c7.732,0.001,15.432,3.183,20.973,9.42c10.278,11.576,9.233,29.297-2.344,39.57l-11.172,9.928h126.493
					c15.484,0,28.035,12.546,28.035,28.033c0,15.477-12.551,28.033-28.035,28.033h-65.576c2.483,4.188,3.934,9.051,3.934,14.271
					c0,11.892-7.416,22.037-17.881,26.109c2.791,4.358,4.428,9.521,4.428,15.079c0,13.701-9.824,25.089-22.809,27.533
					c2.369,4.117,3.748,8.877,3.748,13.963c0,15.478-12.556,28.033-28.036,28.033l-68.719,0.027
					c-29.787,0-53.93-26.975-53.93-60.242v-60.223c0-18.03,11.393-39.008,23.428-51.304l68.855-61.155
					C122.625,43.771,129.269,41.438,135.892,41.438 M135.894,16.438L135.894,16.438c-12.99-0.001-25.496,4.753-35.213,13.387
					L31.827,90.978c-0.436,0.387-0.857,0.789-1.265,1.205c-8.083,8.258-15.499,18.961-20.884,30.139
					C3.346,135.464,0,148.831,0,160.974v60.223c0,22.252,7.873,43.303,22.168,59.271c14.994,16.746,35.152,25.971,56.763,25.971
					l68.729-0.026c29.234,0,53.025-23.79,53.025-53.032c0-0.258-0.002-0.517-0.006-0.773c11.745-9.812,19.064-24.55,19.064-40.725
					c0-1.87-0.098-3.731-0.295-5.579c1.518-1.673,2.932-3.445,4.234-5.316c4.146-5.94,6.99-12.573,8.428-19.563h37.73
					c29.244,0,53.035-23.791,53.035-53.032c0-29.242-23.791-53.033-53.035-53.033h-81.23c0.102-0.91,0.179-1.827,0.232-2.748
					c0.838-14.138-3.882-27.757-13.283-38.348C165.498,22.934,151.043,16.44,135.894,16.438L135.894,16.438L135.894,16.438z"/>
			</g>
		</g>
	</g>
</g>
<g>
</g>
<g>
</g>
<g>
</g>
<g>
</g>
<g>
</g>
<g>
</g>
<g>
</g>
<g>
</g>
<g>
</g>
<g>
</g>
<g>
</g>
<g>
</g>
<g>
</g>
<g>
</g>
<g>
</g>
</svg>
