<?xml version="1.0" encoding="iso-8859-1"?>
<!-- Generator: Adobe Illustrator 16.0.0, SVG Export Plug-In . SVG Version: 6.00 Build 0)  -->
<!DOCTYPE svg PUBLIC "-//W3C//DTD SVG 1.1//EN" "http://www.w3.org/Graphics/SVG/1.1/DTD/svg11.dtd">
<svg version="1.1" id="Capa_1" xmlns="http://www.w3.org/2000/svg" xmlns:xlink="http://www.w3.org/1999/xlink" x="0px" y="0px"
	 width="314.105px" height="314.105px" viewBox="0 0 314.105 314.105" style="enable-background:new 0 0 314.105 314.105;"
	 xml:space="preserve">
<g>
	<path d="M305.539,187.731c-0.281-47.624-12.479-88.82-35.332-119.218c-26.279-34.956-65.408-53.432-113.155-53.432
		c-47.747,0-86.876,18.476-113.156,53.432C21.043,98.911,8.847,140.108,8.566,187.731C3.105,198.232,0,210.146,0,222.777
		c0,42.043,34.204,76.247,76.246,76.247c6.903,0,12.5-5.596,12.5-12.5V159.032c0-6.904-5.597-12.5-12.5-12.5
		c-14.921,0-28.844,4.325-40.611,11.764c8.432-61.61,43.419-118.214,121.418-118.214c78,0,112.986,56.604,121.417,118.214
		c-11.768-7.438-25.691-11.764-40.611-11.764c-6.902,0-12.5,5.596-12.5,12.5v127.493c0,6.903,5.598,12.499,12.5,12.499
		c42.043,0,76.246-34.203,76.246-76.246C314.105,210.146,311,198.233,305.539,187.731z M63.745,173.073v99.41
		c-22.236-5.594-38.746-25.758-38.746-49.705C24.999,198.83,41.509,178.667,63.745,173.073z M250.359,272.483v-99.41
		c22.236,5.594,38.746,25.757,38.746,49.705C289.105,246.726,272.596,266.89,250.359,272.483z"/>
</g>
<g>
</g>
<g>
</g>
<g>
</g>
<g>
</g>
<g>
</g>
<g>
</g>
<g>
</g>
<g>
</g>
<g>
</g>
<g>
</g>
<g>
</g>
<g>
</g>
<g>
</g>
<g>
</g>
<g>
</g>
</svg>
