<?xml version="1.0" encoding="iso-8859-1"?>
<!-- Generator: Adobe Illustrator 16.0.0, SVG Export Plug-In . SVG Version: 6.00 Build 0)  -->
<!DOCTYPE svg PUBLIC "-//W3C//DTD SVG 1.1//EN" "http://www.w3.org/Graphics/SVG/1.1/DTD/svg11.dtd">
<svg version="1.1" id="Capa_1" xmlns="http://www.w3.org/2000/svg" xmlns:xlink="http://www.w3.org/1999/xlink" x="0px" y="0px"
	 width="354.607px" height="354.607px" viewBox="0 0 354.607 354.607" style="enable-background:new 0 0 354.607 354.607;"
	 xml:space="preserve">
<g>
	<g>
		<path d="M221.034,177.305c48.344-53.182,62.551-158.461,63.166-163.191c0.465-3.566-0.631-7.16-3.006-9.862
			C278.823,1.549,275.401,0,271.803,0h-189c-3.597,0-7.019,1.549-9.391,4.251c-2.375,2.703-3.469,6.296-3.005,9.862
			c0.615,4.73,14.823,110.01,63.166,163.191C85.23,230.485,71.022,335.766,70.408,340.496c-0.464,3.564,0.63,7.158,3.005,9.861
			c2.372,2.701,5.794,4.25,9.391,4.25h189c3.598,0,7.02-1.549,9.391-4.25c2.375-2.703,3.471-6.297,3.006-9.861
			C283.584,335.766,269.377,230.485,221.034,177.305z M97.519,329.607c5.843-31.889,23.525-109.276,62.067-142.881
			c2.723-2.375,4.285-5.811,4.285-9.422c0-3.612-1.563-7.048-4.285-9.422c-38.545-33.608-56.227-111-62.067-142.882H257.09
			c-5.842,31.889-23.525,109.277-62.066,142.882c-2.723,2.374-4.285,5.81-4.285,9.422c0,3.611,1.562,7.047,4.285,9.422
			c38.541,33.604,56.225,110.994,62.066,142.881H97.519L97.519,329.607z"/>
		<path d="M177.305,203.344c-16.228,0-29.653,16.387-42.253,51.572c-7.929,22.141-12.743,43.903-12.944,44.819
			c-0.813,3.698,0.096,7.565,2.468,10.516s5.955,4.666,9.741,4.666l85.977-0.002c3.787,0,7.368-1.716,9.742-4.667
			c2.371-2.949,3.279-6.816,2.467-10.516c-0.201-0.915-5.016-22.678-12.943-44.817C206.958,219.73,193.532,203.344,177.305,203.344z
			 M204.278,289.914l-53.947,0.001c1.816-6.69,4.229-14.931,7.113-23.312c10.205-29.641,17.768-36.568,19.861-38
			c2.09,1.429,9.624,8.328,19.793,37.804C200.008,274.84,202.444,283.161,204.278,289.914z"/>
	</g>
</g>
<g>
</g>
<g>
</g>
<g>
</g>
<g>
</g>
<g>
</g>
<g>
</g>
<g>
</g>
<g>
</g>
<g>
</g>
<g>
</g>
<g>
</g>
<g>
</g>
<g>
</g>
<g>
</g>
<g>
</g>
</svg>
