<?xml version="1.0" encoding="iso-8859-1"?>
<!-- Generator: Adobe Illustrator 16.0.0, SVG Export Plug-In . SVG Version: 6.00 Build 0)  -->
<!DOCTYPE svg PUBLIC "-//W3C//DTD SVG 1.1//EN" "http://www.w3.org/Graphics/SVG/1.1/DTD/svg11.dtd">
<svg version="1.1" id="Capa_1" xmlns="http://www.w3.org/2000/svg" xmlns:xlink="http://www.w3.org/1999/xlink" x="0px" y="0px"
	 width="305.002px" height="305.002px" viewBox="0 0 305.002 305.002" style="enable-background:new 0 0 305.002 305.002;"
	 xml:space="preserve">
<g>
	<g>
		<path d="M152.502,0.001C68.413,0.001,0,68.412,0,152.501s68.413,152.5,152.502,152.5c84.09,0,152.5-68.411,152.5-152.5
			S236.592,0.001,152.502,0.001z M152.502,280.001C82.198,280.001,25,222.806,25,152.501c0-70.304,57.198-127.5,127.502-127.5
			c70.305,0,127.5,57.196,127.5,127.5C280.002,222.806,222.807,280.001,152.502,280.001z"/>
		<path d="M225.999,140.001h-60.997V79.005c0-6.903-5.596-12.5-12.5-12.5c-6.902,0-12.5,5.597-12.5,12.5v60.996H79.007
			c-6.903,0-12.5,5.597-12.5,12.5c0,6.902,5.597,12.5,12.5,12.5h60.995v60.996c0,6.902,5.598,12.5,12.5,12.5
			c6.904,0,12.5-5.598,12.5-12.5v-60.996h60.997c6.903,0,12.5-5.598,12.5-12.5C238.499,145.598,232.902,140.001,225.999,140.001z"/>
	</g>
</g>
<g>
</g>
<g>
</g>
<g>
</g>
<g>
</g>
<g>
</g>
<g>
</g>
<g>
</g>
<g>
</g>
<g>
</g>
<g>
</g>
<g>
</g>
<g>
</g>
<g>
</g>
<g>
</g>
<g>
</g>
</svg>
