<?xml version="1.0" encoding="iso-8859-1"?>
<!-- Generator: Adobe Illustrator 16.0.0, SVG Export Plug-In . SVG Version: 6.00 Build 0)  -->
<!DOCTYPE svg PUBLIC "-//W3C//DTD SVG 1.1//EN" "http://www.w3.org/Graphics/SVG/1.1/DTD/svg11.dtd">
<svg version="1.1" id="Capa_1" xmlns="http://www.w3.org/2000/svg" xmlns:xlink="http://www.w3.org/1999/xlink" x="0px" y="0px"
	 width="409px" height="409px" viewBox="0 0 409 409" style="enable-background:new 0 0 409 409;" xml:space="preserve">
<g>
	<g>
		<path d="M200.979,74.794h7.041c4.324,0,8.342-2.235,10.621-5.909c3.031-4.884,3.358-10.622,3.358-12.861
			c0-7.845-5.272-15.645-7.54-18.635c-2.363-3.116-6.049-4.947-9.96-4.947s-7.597,1.831-9.96,4.947
			c-2.267,2.99-7.54,10.79-7.54,18.635c0,2.24,0.327,7.977,3.358,12.861C192.638,72.561,196.655,74.794,200.979,74.794z"/>
		<path d="M303.979,74.794h7.041c4.324,0,8.342-2.235,10.621-5.909c3.031-4.884,3.358-10.622,3.358-12.861
			c0-7.845-5.273-15.645-7.54-18.635c-2.363-3.116-6.049-4.947-9.96-4.947s-7.597,1.831-9.96,4.947
			c-2.267,2.99-7.54,10.79-7.54,18.635c0,2.24,0.327,7.977,3.358,12.861C295.638,72.561,299.655,74.794,303.979,74.794z"/>
		<path d="M97.979,74.794h7.041c4.324,0,8.341-2.235,10.621-5.909c3.031-4.884,3.358-10.622,3.358-12.861
			c0-7.845-5.273-15.645-7.54-18.635c-2.363-3.116-6.049-4.947-9.96-4.947s-7.597,1.831-9.96,4.947
			c-2.267,2.99-7.54,10.79-7.54,18.635c0,2.24,0.327,7.977,3.358,12.861C89.638,72.561,93.655,74.794,97.979,74.794z"/>
		<path d="M398,282.843v-96.598c0-34.462-28.038-62.5-62.5-62.5H320V94.193c0-6.904-5.596-12.5-12.5-12.5S295,87.29,295,94.193
			v29.551h-78V94.193c0-6.904-5.596-12.5-12.5-12.5c-6.904,0-12.5,5.596-12.5,12.5v29.551h-78V94.193c0-6.904-5.596-12.5-12.5-12.5
			S89,87.29,89,94.193v29.551H73.5c-34.462,0-62.5,28.038-62.5,62.5v96.598c-6.195,0.742-11,6.007-11,12.402
			c0,6.902,5.597,12.5,12.5,12.5h11H192v43.812h-46.5c-6.903,0-12.5,5.598-12.5,12.5c0,6.904,5.597,12.5,12.5,12.5h118
			c6.903,0,12.5-5.596,12.5-12.5c0-6.902-5.597-12.5-12.5-12.5H217v-43.812h168.5h11c6.903,0,12.5-5.598,12.5-12.5
			C409,288.85,404.195,283.585,398,282.843z M36,282.745v-96.5c0-20.678,16.822-37.5,37.5-37.5h262c20.678,0,37.5,16.822,37.5,37.5
			v96.5H36z"/>
	</g>
</g>
<g>
</g>
<g>
</g>
<g>
</g>
<g>
</g>
<g>
</g>
<g>
</g>
<g>
</g>
<g>
</g>
<g>
</g>
<g>
</g>
<g>
</g>
<g>
</g>
<g>
</g>
<g>
</g>
<g>
</g>
</svg>
