<?xml version="1.0" encoding="iso-8859-1"?>
<!-- Generator: Adobe Illustrator 16.0.0, SVG Export Plug-In . SVG Version: 6.00 Build 0)  -->
<!DOCTYPE svg PUBLIC "-//W3C//DTD SVG 1.1//EN" "http://www.w3.org/Graphics/SVG/1.1/DTD/svg11.dtd">
<svg version="1.1" id="Capa_1" xmlns="http://www.w3.org/2000/svg" xmlns:xlink="http://www.w3.org/1999/xlink" x="0px" y="0px"
	 width="379.955px" height="379.955px" viewBox="0 0 379.955 379.955" style="enable-background:new 0 0 379.955 379.955;"
	 xml:space="preserve">
<g>
	<g>
		<path d="M181.139,265.171c2.441,2.44,5.64,3.661,8.839,3.661s6.398-1.221,8.839-3.661l80-80c4.881-4.882,4.881-12.796,0-17.678
			c-4.882-4.881-12.796-4.881-17.678,0l-58.661,58.661V12.5c0-6.903-5.598-12.5-12.5-12.5c-6.904,0-12.5,5.597-12.5,12.5v213.654
			l-58.661-58.659c-4.882-4.881-12.797-4.881-17.678,0c-4.881,4.882-4.881,12.796,0,17.678L181.139,265.171z"/>
		<path d="M358.862,243.832H245.475c-6.904,0-12.5,5.598-12.5,12.5v23.454c0,6.903,5.596,12.5,12.5,12.5s12.5-5.597,12.5-12.5
			v-10.954h88.388v86.123H33.593v-86.123h88.388v10.954c0,6.903,5.596,12.5,12.5,12.5c6.904,0,12.5-5.597,12.5-12.5v-23.454
			c0-6.902-5.596-12.5-12.5-12.5H21.093c-6.904,0-12.5,5.598-12.5,12.5v111.123c0,6.902,5.596,12.5,12.5,12.5h337.77
			c6.903,0,12.5-5.598,12.5-12.5V256.332C371.362,249.43,365.766,243.832,358.862,243.832z"/>
	</g>
</g>
<g>
</g>
<g>
</g>
<g>
</g>
<g>
</g>
<g>
</g>
<g>
</g>
<g>
</g>
<g>
</g>
<g>
</g>
<g>
</g>
<g>
</g>
<g>
</g>
<g>
</g>
<g>
</g>
<g>
</g>
</svg>
