<?xml version="1.0" encoding="iso-8859-1"?>
<!-- Generator: Adobe Illustrator 16.0.0, SVG Export Plug-In . SVG Version: 6.00 Build 0)  -->
<!DOCTYPE svg PUBLIC "-//W3C//DTD SVG 1.1//EN" "http://www.w3.org/Graphics/SVG/1.1/DTD/svg11.dtd">
<svg version="1.1" id="Capa_1" xmlns="http://www.w3.org/2000/svg" xmlns:xlink="http://www.w3.org/1999/xlink" x="0px" y="0px"
	 width="395px" height="395px" viewBox="0 0 395 395" style="enable-background:new 0 0 395 395;" xml:space="preserve">
<g>
	<path d="M197.5,0C88.598,0,0,88.598,0,197.5C0,306.402,88.598,395,197.5,395C306.402,395,395,306.402,395,197.5
		C395,88.598,306.402,0,197.5,0z M369.544,185h-89.72c-1.199-43.439-8.627-84.031-21.229-115.404
		c-6.881-17.133-15.076-30.779-24.215-40.613C307.887,45.057,364.012,108.129,369.544,185z M197.5,359.295
		c-12.865,0-27.032-16.152-37.898-43.208c-11.462-28.54-18.255-65.831-19.421-106.087H254.82
		c-1.167,40.256-7.959,77.547-19.422,106.087C224.532,343.143,210.364,359.295,197.5,359.295z M140.181,185
		c1.166-40.256,7.959-77.547,19.421-106.087c10.866-27.056,25.034-43.208,37.898-43.208c12.864,0,27.032,16.152,37.896,43.208
		c11.463,28.54,18.256,65.831,19.423,106.087H140.181z M160.618,28.982c-9.138,9.834-17.334,23.48-24.215,40.613
		c-12.6,31.374-20.028,71.965-21.227,115.404h-89.72C30.988,108.129,87.113,45.057,160.618,28.982z M25.456,210h89.72
		c1.199,43.439,8.627,84.031,21.227,115.404c6.881,17.133,15.077,30.778,24.215,40.612C87.113,349.943,30.988,286.871,25.456,210z
		 M234.382,366.018c9.138-9.834,17.334-23.479,24.215-40.613c12.602-31.373,20.028-71.965,21.229-115.403h89.72
		C364.012,286.871,307.887,349.943,234.382,366.018z"/>
</g>
<g>
</g>
<g>
</g>
<g>
</g>
<g>
</g>
<g>
</g>
<g>
</g>
<g>
</g>
<g>
</g>
<g>
</g>
<g>
</g>
<g>
</g>
<g>
</g>
<g>
</g>
<g>
</g>
<g>
</g>
</svg>
