<?xml version="1.0" encoding="iso-8859-1"?>
<!-- Generator: Adobe Illustrator 16.0.0, SVG Export Plug-In . SVG Version: 6.00 Build 0)  -->
<!DOCTYPE svg PUBLIC "-//W3C//DTD SVG 1.1//EN" "http://www.w3.org/Graphics/SVG/1.1/DTD/svg11.dtd">
<svg version="1.1" id="Capa_1" xmlns="http://www.w3.org/2000/svg" xmlns:xlink="http://www.w3.org/1999/xlink" x="0px" y="0px"
	 width="335.001px" height="335.001px" viewBox="0 0 335.001 335.001" style="enable-background:new 0 0 335.001 335.001;"
	 xml:space="preserve">
<g>
	<path d="M300.219,34.809C277.774,12.362,247.928,0,216.182,0c-31.744,0-61.59,12.362-84.037,34.809
		c-15.987,15.987-27.031,36.051-31.938,58.024c-4.195,18.785-3.78,38.241,1.156,56.734L3.689,247.24
		c-2.419,2.419-3.741,5.723-3.657,9.143l1.577,64.845c0.162,6.666,5.526,12.03,12.192,12.193l64.845,1.576
		c0.102,0.003,0.203,0.004,0.304,0.004c3.311,0,6.492-1.314,8.839-3.661l72.549-72.549c0.001-0.001,0.003-0.003,0.005-0.004
		s0.003-0.003,0.005-0.006l25.115-25.114c10.002,2.67,20.308,4.021,30.73,4.021c0.002,0,0,0,0.002,0
		c31.741,0,61.583-12.36,84.024-34.804C346.558,156.544,346.558,81.146,300.219,34.809z M282.542,185.206
		c-17.722,17.722-41.285,27.481-66.349,27.481c-10.334,0-20.517-1.679-30.263-4.986c-4.507-1.53-9.491-0.367-12.856,2.998
		l-21.569,21.568l-5.871-5.871c-4.881-4.881-12.795-4.883-17.678-0.002c-4.882,4.881-4.882,12.797-0.001,17.678l5.872,5.873
		l-24.1,24.101l-5.872-5.873c-4.881-4.881-12.795-4.881-17.678,0c-4.881,4.882-4.882,12.796,0,17.679l5.872,5.873l-18.151,18.15
		l-47.587-1.157l-1.157-47.587l99.176-99.175c3.365-3.365,4.528-8.35,2.998-12.857c-11.586-34.131-2.967-71.15,22.495-96.611
		c17.725-17.725,41.292-27.486,66.359-27.486c20.852,0,40.661,6.76,56.937,19.232l-36.033,36.033
		c-5.959-3.139-12.628-4.809-19.555-4.809c-11.229,0-21.787,4.373-29.729,12.314c-16.391,16.392-16.39,43.063,0.002,59.455
		c7.94,7.94,18.498,12.313,29.728,12.313c11.229,0,21.786-4.373,29.727-12.313c7.94-7.941,12.314-18.499,12.314-29.728
		c0-6.927-1.669-13.596-4.809-19.555l36.012-36.011C318.862,98.693,316.134,151.613,282.542,185.206z M229.581,105.449
		c3.22,3.219,4.992,7.498,4.992,12.048c0,4.551-1.772,8.831-4.993,12.05c-3.219,3.218-7.498,4.991-12.048,4.991
		c-4.551,0-8.831-1.772-12.048-4.991c-6.646-6.645-6.646-17.456-0.003-24.099c3.219-3.219,7.499-4.992,12.051-4.992
		C222.082,100.457,226.361,102.229,229.581,105.449z"/>
</g>
<g>
</g>
<g>
</g>
<g>
</g>
<g>
</g>
<g>
</g>
<g>
</g>
<g>
</g>
<g>
</g>
<g>
</g>
<g>
</g>
<g>
</g>
<g>
</g>
<g>
</g>
<g>
</g>
<g>
</g>
</svg>
