<?xml version="1.0" encoding="iso-8859-1"?>
<!-- Generator: Adobe Illustrator 16.0.0, SVG Export Plug-In . SVG Version: 6.00 Build 0)  -->
<!DOCTYPE svg PUBLIC "-//W3C//DTD SVG 1.1//EN" "http://www.w3.org/Graphics/SVG/1.1/DTD/svg11.dtd">
<svg version="1.1" id="Capa_1" xmlns="http://www.w3.org/2000/svg" xmlns:xlink="http://www.w3.org/1999/xlink" x="0px" y="0px"
	 width="455px" height="455px" viewBox="0 0 455 455" style="enable-background:new 0 0 455 455;" xml:space="preserve">
<g>
	<path d="M442.5,305.727h-19.51V84.737c0-6.903-5.598-12.5-12.5-12.5H44.51c-6.903,0-12.5,5.597-12.5,12.5v220.988H12.5
		c-6.904,0-12.5,5.598-12.5,12.5v28.037c0,4.251,2.16,8.21,5.732,10.511c4.135,2.66,45.463,25.989,221.768,25.989
		c176.305,0,217.633-23.329,221.767-25.989c3.573-2.301,5.733-6.26,5.733-10.511v-28.037C455,311.322,449.403,305.727,442.5,305.727
		z M57.01,97.237H215v1.577c0,6.903,5.596,12.5,12.5,12.5c6.902,0,12.5-5.597,12.5-12.5v-1.577h157.99v208.488H57.01V97.237z
		 M430,338.2c-15.715,5.735-67.635,19.562-202.5,19.562c-133.637,0-186.316-13.871-202.5-19.674v-7.363h19.51h217.771v3.537
		c0,6.902,5.597,12.5,12.5,12.5c6.902,0,12.5-5.598,12.5-12.5v-3.537h13v3.537c0,6.902,5.597,12.5,12.5,12.5
		c6.902,0,12.5-5.598,12.5-12.5v-3.537h85.209H430V338.2z"/>
</g>
<g>
</g>
<g>
</g>
<g>
</g>
<g>
</g>
<g>
</g>
<g>
</g>
<g>
</g>
<g>
</g>
<g>
</g>
<g>
</g>
<g>
</g>
<g>
</g>
<g>
</g>
<g>
</g>
<g>
</g>
</svg>
