<?xml version="1.0" encoding="iso-8859-1"?>
<!-- Generator: Adobe Illustrator 16.0.0, SVG Export Plug-In . SVG Version: 6.00 Build 0)  -->
<!DOCTYPE svg PUBLIC "-//W3C//DTD SVG 1.1//EN" "http://www.w3.org/Graphics/SVG/1.1/DTD/svg11.dtd">
<svg version="1.1" id="Capa_1" xmlns="http://www.w3.org/2000/svg" xmlns:xlink="http://www.w3.org/1999/xlink" x="0px" y="0px"
	 width="385px" height="385px" viewBox="0 0 385 385" style="enable-background:new 0 0 385 385;" xml:space="preserve">
<g>
	<g>
		<path d="M315.17,122.668C315.17,55.029,260.141,0,192.5,0C124.859,0,69.83,55.029,69.83,122.668
			c0,46.923,18.832,71.88,35.447,93.9c14.031,18.595,26.148,34.652,26.148,62.873l-0.006,51.556
			c0,29.777,23.928,54.003,53.706,54.003h14.748c29.777,0,53.806-24.226,53.806-54.003l-0.104-51.556
			c0-28.221,12.117-44.278,26.147-62.873C296.338,194.549,315.17,169.591,315.17,122.668z M199.874,360h-14.748
			c-12.76,0-23.614-8.286-27.484-19.756h69.717C223.488,351.714,212.634,360,199.874,360z M228.879,315.244h-72.758v-11.952h72.758
			V315.244z M228.579,278.292H156.42c-0.327-35.888-16.013-56.672-31.187-76.782c-15.636-20.721-30.403-40.292-30.403-78.841
			c0-53.854,43.814-97.668,97.67-97.668c53.856,0,97.67,43.814,97.67,97.668c0,38.549-14.768,58.121-30.403,78.841
			C244.593,221.62,228.907,242.404,228.579,278.292z"/>
		<path d="M174.57,220.372c6.487-2.362,9.83-9.536,7.468-16.022l-27.179-74.628l9.22-14.428l19.927,18.455
			c4.793,4.438,12.195,4.438,16.988,0l19.926-18.455l9.221,14.428l-27.179,74.628c-2.362,6.486,0.979,13.66,7.468,16.022
			c1.412,0.515,2.855,0.758,4.276,0.758c5.104,0,9.897-3.151,11.746-8.226l29.293-80.432c1.332-3.658,0.884-7.728-1.212-11.009
			l-20.6-32.236c-1.994-3.121-5.271-5.196-8.943-5.667c-3.668-0.472-7.365,0.71-10.084,3.228L192.5,107.54l-22.406-20.751
			c-2.719-2.517-6.419-3.696-10.084-3.228c-3.674,0.471-6.949,2.547-8.943,5.667l-20.6,32.236
			c-2.096,3.281-2.544,7.351-1.212,11.009l29.293,80.432C160.909,219.391,168.086,222.736,174.57,220.372z"/>
	</g>
</g>
<g>
</g>
<g>
</g>
<g>
</g>
<g>
</g>
<g>
</g>
<g>
</g>
<g>
</g>
<g>
</g>
<g>
</g>
<g>
</g>
<g>
</g>
<g>
</g>
<g>
</g>
<g>
</g>
<g>
</g>
</svg>
