<?xml version="1.0" encoding="iso-8859-1"?>
<!-- Generator: Adobe Illustrator 16.0.0, SVG Export Plug-In . SVG Version: 6.00 Build 0)  -->
<!DOCTYPE svg PUBLIC "-//W3C//DTD SVG 1.1//EN" "http://www.w3.org/Graphics/SVG/1.1/DTD/svg11.dtd">
<svg version="1.1" id="Capa_1" xmlns="http://www.w3.org/2000/svg" xmlns:xlink="http://www.w3.org/1999/xlink" x="0px" y="0px"
	 width="363px" height="363px" viewBox="0 0 363 363" style="enable-background:new 0 0 363 363;" xml:space="preserve">
<g>
	<path d="M305.307,175.536l-42.104-71.994l42.444-72.574c2.261-3.866,2.281-8.646,0.053-12.53c-2.228-3.884-6.364-6.28-10.843-6.28
		H80.607C80.424,5.414,74.913,0,68.125,0c-6.904,0-12.5,5.596-12.5,12.5v338c0,6.904,5.596,12.5,12.5,12.5
		c6.904,0,12.5-5.596,12.5-12.5V194.927h214.23c0.008,0.001,0.013,0,0.02,0c6.904,0,12.5-5.596,12.5-12.5
		C307.375,179.88,306.614,177.512,305.307,175.536z M80.625,169.927V37.157h192.439l-35.134,60.074c-2.28,3.898-2.28,8.723,0,12.621
		l35.134,60.074L80.625,169.927L80.625,169.927z"/>
</g>
<g>
</g>
<g>
</g>
<g>
</g>
<g>
</g>
<g>
</g>
<g>
</g>
<g>
</g>
<g>
</g>
<g>
</g>
<g>
</g>
<g>
</g>
<g>
</g>
<g>
</g>
<g>
</g>
<g>
</g>
</svg>
