<?xml version="1.0" encoding="iso-8859-1"?>
<!-- Generator: Adobe Illustrator 16.0.0, SVG Export Plug-In . SVG Version: 6.00 Build 0)  -->
<!DOCTYPE svg PUBLIC "-//W3C//DTD SVG 1.1//EN" "http://www.w3.org/Graphics/SVG/1.1/DTD/svg11.dtd">
<svg version="1.1" id="Capa_1" xmlns="http://www.w3.org/2000/svg" xmlns:xlink="http://www.w3.org/1999/xlink" x="0px" y="0px"
	 width="385px" height="385.001px" viewBox="0 0 385 385.001" style="enable-background:new 0 0 385 385.001;" xml:space="preserve"
	>
<g>
	<g>
		<g>
			<path d="M192.5,385.001c-9.209,0-18.442-6.438-35.991-38.477c-10.677-19.493-23.208-46.456-35.287-75.921
				C99.481,217.57,76.25,149.169,76.25,116.25C76.25,52.149,128.399,0,192.5,0c64.101,0,116.25,52.149,116.25,116.25
				c0,32.919-23.231,101.318-44.972,154.354c-12.079,29.465-24.61,56.428-35.287,75.921
				C210.942,378.563,201.709,385.001,192.5,385.001z M192.5,25.001c-50.315,0-91.25,40.935-91.25,91.25
				c0,22.752,15.666,76.524,39.909,136.992c10.956,27.323,22.621,53.231,32.848,72.952c9.113,17.572,15.069,26.398,18.493,30.73
				c3.424-4.332,9.38-13.158,18.493-30.73c10.227-19.721,21.892-45.629,32.848-72.952c24.244-60.468,39.909-114.24,39.909-136.992
				C283.75,65.936,242.815,25.001,192.5,25.001z"/>
		</g>
		<g>
			<path d="M192.5,158.465c-26.191,0-47.5-21.309-47.5-47.5c0-26.191,21.309-47.5,47.5-47.5c26.191,0,47.5,21.309,47.5,47.5
				C240,137.156,218.692,158.465,192.5,158.465z M192.5,88.465c-12.407,0-22.5,10.094-22.5,22.5c0,12.406,10.093,22.5,22.5,22.5
				s22.5-10.094,22.5-22.5C215,98.559,204.908,88.465,192.5,88.465z"/>
		</g>
	</g>
</g>
<g>
</g>
<g>
</g>
<g>
</g>
<g>
</g>
<g>
</g>
<g>
</g>
<g>
</g>
<g>
</g>
<g>
</g>
<g>
</g>
<g>
</g>
<g>
</g>
<g>
</g>
<g>
</g>
<g>
</g>
</svg>
