<?xml version="1.0" encoding="iso-8859-1"?>
<!-- Generator: Adobe Illustrator 16.0.0, SVG Export Plug-In . SVG Version: 6.00 Build 0)  -->
<!DOCTYPE svg PUBLIC "-//W3C//DTD SVG 1.1//EN" "http://www.w3.org/Graphics/SVG/1.1/DTD/svg11.dtd">
<svg version="1.1" id="Capa_1" xmlns="http://www.w3.org/2000/svg" xmlns:xlink="http://www.w3.org/1999/xlink" x="0px" y="0px"
	 width="352.518px" height="352.518px" viewBox="0 0 352.518 352.518" style="enable-background:new 0 0 352.518 352.518;"
	 xml:space="preserve">
<g>
	<g>
		<path d="M176.259,0c-76.645,0-139,62.355-139,139c0,28.248,8.428,55.441,24.374,78.639c14.717,21.411,34.875,38.124,58.495,48.551
			l45.251,79.983c2.218,3.921,6.375,6.345,10.879,6.345s8.661-2.424,10.879-6.345l45.251-79.983
			c23.62-10.427,43.778-27.14,58.495-48.551c15.948-23.197,24.376-50.391,24.376-78.639C315.259,62.355,252.903,0,176.259,0z
			 M218.923,244.742c-2.621,1.06-4.807,2.976-6.198,5.436l-36.466,64.455l-36.466-64.455c-1.392-2.46-3.577-4.376-6.198-5.436
			C90.26,227.238,62.259,185.732,62.259,139c0-62.86,51.14-114,114-114c62.86,0,114,51.14,114,114
			C290.259,185.732,262.258,227.238,218.923,244.742z"/>
		<path d="M176.259,85.759c-28.949,0-52.5,23.551-52.5,52.5s23.551,52.5,52.5,52.5s52.5-23.551,52.5-52.5
			S205.208,85.759,176.259,85.759z M176.259,165.759c-15.164,0-27.5-12.336-27.5-27.5s12.336-27.5,27.5-27.5s27.5,12.336,27.5,27.5
			S191.423,165.759,176.259,165.759z"/>
	</g>
</g>
<g>
</g>
<g>
</g>
<g>
</g>
<g>
</g>
<g>
</g>
<g>
</g>
<g>
</g>
<g>
</g>
<g>
</g>
<g>
</g>
<g>
</g>
<g>
</g>
<g>
</g>
<g>
</g>
<g>
</g>
</svg>
