<?xml version="1.0" encoding="iso-8859-1"?>
<!-- Generator: Adobe Illustrator 16.0.0, SVG Export Plug-In . SVG Version: 6.00 Build 0)  -->
<!DOCTYPE svg PUBLIC "-//W3C//DTD SVG 1.1//EN" "http://www.w3.org/Graphics/SVG/1.1/DTD/svg11.dtd">
<svg version="1.1" id="Capa_1" xmlns="http://www.w3.org/2000/svg" xmlns:xlink="http://www.w3.org/1999/xlink" x="0px" y="0px"
	 width="344.492px" height="344.492px" viewBox="0 0 344.492 344.492" style="enable-background:new 0 0 344.492 344.492;"
	 xml:space="preserve">
<g>
	<g>
		<path d="M289.708,117.492h-24.539V66.659C265.169,29.903,235.266,0,198.51,0h-52.527c-36.756,0-66.659,29.903-66.659,66.659
			v50.833H54.785c-6.904,0-12.5,5.596-12.5,12.5v122.095c0,50.953,41.453,92.405,92.406,92.405h75.11
			c50.953,0,92.406-41.453,92.406-92.405V129.992C302.208,123.088,296.612,117.492,289.708,117.492z M104.325,66.659
			c0-22.971,18.688-41.659,41.659-41.659h52.528c22.971,0,41.658,18.688,41.658,41.659v50.833H104.325V66.659z M277.208,252.087
			c0,37.167-30.238,67.405-67.405,67.405h-75.111c-37.167,0-67.406-30.238-67.406-67.405V142.492h209.922V252.087z"/>
		<path d="M159.747,277.992c0,6.904,5.596,12.5,12.5,12.5c6.903,0,12.5-5.596,12.5-12.5v-35.689
			c1.487-2.058,2.375-4.578,2.375-7.311c0-6.903-5.597-12.5-12.5-12.5h-4.75c-6.903,0-12.5,5.597-12.5,12.5
			c0,2.732,0.887,5.253,2.375,7.311V277.992z"/>
	</g>
</g>
<g>
</g>
<g>
</g>
<g>
</g>
<g>
</g>
<g>
</g>
<g>
</g>
<g>
</g>
<g>
</g>
<g>
</g>
<g>
</g>
<g>
</g>
<g>
</g>
<g>
</g>
<g>
</g>
<g>
</g>
</svg>
