<?xml version="1.0" encoding="iso-8859-1"?>
<!-- Generator: Adobe Illustrator 16.0.0, SVG Export Plug-In . SVG Version: 6.00 Build 0)  -->
<!DOCTYPE svg PUBLIC "-//W3C//DTD SVG 1.1//EN" "http://www.w3.org/Graphics/SVG/1.1/DTD/svg11.dtd">
<svg version="1.1" id="Capa_1" xmlns="http://www.w3.org/2000/svg" xmlns:xlink="http://www.w3.org/1999/xlink" x="0px" y="0px"
	 width="338.921px" height="338.92px" viewBox="0 0 338.921 338.92" style="enable-background:new 0 0 338.921 338.92;"
	 xml:space="preserve">
<g>
	<g>
		<path d="M329.653,99.424l-26.265-7.037c-6.668-1.785-13.521,2.171-15.31,8.839c-1.786,6.669,2.171,13.522,8.839,15.31
			l26.264,7.037c1.084,0.29,2.172,0.429,3.243,0.429c5.52,0,10.57-3.684,12.066-9.268
			C340.278,108.065,336.321,101.211,329.653,99.424z"/>
		<path d="M222.381,42.001c1.495,5.586,6.546,9.27,12.066,9.27c1.069,0,2.158-0.139,3.24-0.429
			c6.67-1.785,10.628-8.639,8.842-15.308L239.496,9.27c-1.785-6.669-8.641-10.626-15.309-8.841
			c-6.668,1.785-10.627,8.639-8.84,15.308L222.381,42.001z"/>
		<path d="M314.335,42.263c4.882-4.882,4.882-12.797,0-17.678c-4.883-4.881-12.797-4.881-17.678,0l-19.226,19.226
			c-4.882,4.882-4.882,12.797,0,17.679c2.441,2.439,5.641,3.66,8.839,3.66c3.199,0,6.398-1.221,8.84-3.66L314.335,42.263z"/>
		<path d="M238.969,64.225c-9.543,0-18.515,3.717-25.263,10.465L10.464,277.93C3.716,284.678,0,293.651,0,303.194
			c0,9.544,3.716,18.515,10.464,25.263s15.72,10.464,25.263,10.464s18.515-3.716,25.263-10.464l164.851-164.852
			c0.006-0.006,0.013-0.011,0.02-0.017c0.006-0.006,0.011-0.013,0.017-0.019l38.355-38.355c6.749-6.748,10.466-15.72,10.466-25.264
			c-0.001-9.542-3.717-18.514-10.466-25.262C257.482,67.941,248.512,64.225,238.969,64.225z M43.312,310.778
			c-2.025,2.025-4.72,3.142-7.585,3.142c-2.865,0-5.56-1.115-7.585-3.142c-2.026-2.025-3.142-4.72-3.142-7.585
			s1.115-5.561,3.142-7.585l156.03-156.029l15.17,15.17L43.312,310.778z M246.554,107.536l-29.534,29.535l-15.17-15.17
			l29.534-29.534c2.026-2.026,4.722-3.143,7.585-3.143c2.865,0,5.561,1.116,7.585,3.142c2.026,2.026,3.144,4.72,3.144,7.585
			C249.697,102.816,248.58,105.51,246.554,107.536z"/>
	</g>
</g>
<g>
</g>
<g>
</g>
<g>
</g>
<g>
</g>
<g>
</g>
<g>
</g>
<g>
</g>
<g>
</g>
<g>
</g>
<g>
</g>
<g>
</g>
<g>
</g>
<g>
</g>
<g>
</g>
<g>
</g>
</svg>
