<?xml version="1.0" encoding="iso-8859-1"?>
<!-- Generator: Adobe Illustrator 16.0.0, SVG Export Plug-In . SVG Version: 6.00 Build 0)  -->
<!DOCTYPE svg PUBLIC "-//W3C//DTD SVG 1.1//EN" "http://www.w3.org/Graphics/SVG/1.1/DTD/svg11.dtd">
<svg version="1.1" id="Capa_1" xmlns="http://www.w3.org/2000/svg" xmlns:xlink="http://www.w3.org/1999/xlink" x="0px" y="0px"
	 width="444.016px" height="444.017px" viewBox="0 0 444.016 444.017" style="enable-background:new 0 0 444.016 444.017;"
	 xml:space="preserve">
<g>
	<g>
		<path d="M359.352,0H84.665c-6.903,0-12.5,5.597-12.5,12.5v149.332c0,1.597,0.306,3.179,0.901,4.661l33.101,82.378
			c-10.55,19.314-16.115,41.021-16.115,63.188c0,72.761,59.195,131.957,131.957,131.957c72.761,0,131.957-59.194,131.957-131.957
			c0-22.167-5.564-43.874-16.115-63.188l33.102-82.378c0.596-1.482,0.9-3.064,0.9-4.661V12.5C371.852,5.596,366.256,0,359.352,0z
			 M346.852,25v111.88H97.165V25H346.852z M320.706,224.486c-9.502-10.697-20.717-19.847-33.166-26.983
			c-19.859-11.383-42.52-17.399-65.531-17.399c-23.011,0-45.671,6.017-65.529,17.399c-12.451,7.137-23.666,16.286-33.168,26.983
			L98.156,161.88h247.706L320.706,224.486z M222.009,419.016c-58.977,0-106.957-47.979-106.957-106.957
			c0-19.714,5.407-38.977,15.637-55.707c19.623-32.091,53.762-51.25,91.32-51.25s71.697,19.159,91.32,51.25
			c10.229,16.73,15.637,35.993,15.637,55.707C328.965,371.036,280.985,419.016,222.009,419.016z"/>
		<path d="M301.774,271.283l-47.372-6.883l-21.185-42.925c-2.104-4.267-6.451-6.968-11.208-6.968c-4.758,0-9.104,2.701-11.209,6.968
			L189.614,264.4l-47.37,6.883c-4.708,0.684-8.62,3.981-10.091,8.507c-1.47,4.524-0.243,9.493,3.164,12.813l34.278,33.413
			l-8.093,47.178c-0.804,4.689,1.124,9.43,4.973,12.227c3.85,2.797,8.956,3.166,13.164,0.951l42.37-22.274l42.369,22.275
			c1.83,0.962,3.825,1.436,5.815,1.436c2.591,0,5.171-0.805,7.349-2.387c3.85-2.797,5.775-7.537,4.973-12.227l-8.092-47.178
			l34.277-33.412c3.406-3.322,4.635-8.289,3.164-12.814S306.481,271.967,301.774,271.283z M252.266,312.701
			c-2.945,2.873-4.291,7.01-3.596,11.064l4.922,28.692l-25.768-13.546c-1.82-0.959-3.818-1.437-5.816-1.437
			c-1.998,0-3.996,0.479-5.816,1.437l-25.768,13.546l4.922-28.692c0.695-4.055-0.649-8.193-3.596-11.064l-20.847-20.319
			l28.809-4.187c4.071-0.592,7.591-3.147,9.411-6.838l12.885-26.104l12.882,26.104c1.82,3.688,5.341,6.246,9.412,6.838l28.811,4.186
			L252.266,312.701z"/>
	</g>
</g>
<g>
</g>
<g>
</g>
<g>
</g>
<g>
</g>
<g>
</g>
<g>
</g>
<g>
</g>
<g>
</g>
<g>
</g>
<g>
</g>
<g>
</g>
<g>
</g>
<g>
</g>
<g>
</g>
<g>
</g>
</svg>
