<?xml version="1.0" encoding="iso-8859-1"?>
<!-- Generator: Adobe Illustrator 16.0.0, SVG Export Plug-In . SVG Version: 6.00 Build 0)  -->
<!DOCTYPE svg PUBLIC "-//W3C//DTD SVG 1.1//EN" "http://www.w3.org/Graphics/SVG/1.1/DTD/svg11.dtd">
<svg version="1.1" id="Capa_1" xmlns="http://www.w3.org/2000/svg" xmlns:xlink="http://www.w3.org/1999/xlink" x="0px" y="0px"
	 width="346.906px" height="346.906px" viewBox="0 0 346.906 346.906" style="enable-background:new 0 0 346.906 346.906;"
	 xml:space="preserve">
<g>
	<g>
		<path d="M79.756,346.906c-32.118,0-58.248-26.129-58.248-58.247s26.13-58.248,58.248-58.248c6.902,0,12.5,5.597,12.5,12.5
			s-5.598,12.5-12.5,12.5c-18.333,0-33.248,14.915-33.248,33.248s14.915,33.247,33.248,33.247c18.332,0,33.246-14.915,33.246-33.247
			l-0.045-234.678c-0.001-5.864,4.074-10.94,9.799-12.207L310.197,0.295c3.699-0.819,7.578,0.086,10.533,2.462
			c2.955,2.375,4.672,5.965,4.668,9.757l-0.254,227.333c0,32.104-26.131,58.232-58.246,58.232
			c-32.119,0-58.249-26.129-58.249-58.247s26.13-58.248,58.249-58.248c6.902,0,12.5,5.598,12.5,12.5c0,6.904-5.598,12.5-12.5,12.5
			c-18.334,0-33.248,14.915-33.248,33.248s14.914,33.247,33.248,33.247c18.332,0,33.246-14.915,33.246-33.247l0.234-211.76
			L137.958,64.015L138,288.657C138.001,320.777,111.873,346.906,79.756,346.906z"/>
	</g>
</g>
<g>
</g>
<g>
</g>
<g>
</g>
<g>
</g>
<g>
</g>
<g>
</g>
<g>
</g>
<g>
</g>
<g>
</g>
<g>
</g>
<g>
</g>
<g>
</g>
<g>
</g>
<g>
</g>
<g>
</g>
</svg>
