<?xml version="1.0" encoding="iso-8859-1"?>
<!-- Generator: Adobe Illustrator 16.0.0, SVG Export Plug-In . SVG Version: 6.00 Build 0)  -->
<!DOCTYPE svg PUBLIC "-//W3C//DTD SVG 1.1//EN" "http://www.w3.org/Graphics/SVG/1.1/DTD/svg11.dtd">
<svg version="1.1" id="Capa_1" xmlns="http://www.w3.org/2000/svg" xmlns:xlink="http://www.w3.org/1999/xlink" x="0px" y="0px"
	 width="397.731px" height="397.731px" viewBox="0 0 397.731 397.731" style="enable-background:new 0 0 397.731 397.731;"
	 xml:space="preserve">
<g>
	<g>
		<path d="M386.366,82.772c0-32.001-8.288-54.097-25.338-67.551C343.931,1.731,321.357,0,303.6,0H94.134
			c-17.757,0-40.332,1.73-57.43,15.222c-17.051,13.454-25.339,35.55-25.338,67.55c0,30.827,15.645,46.365,28.769,53.971
			c6.401,3.709,13.323,6.186,20.142,7.826c-17.013,16.604-27.185,39.674-27.185,64.682v98.113c0,49.829,40.538,90.367,90.367,90.367
			h150.814c49.829,0,90.367-40.538,90.367-90.367v-98.113c0-25.008-10.27-48.08-27.24-64.67c6.837-1.64,13.778-4.119,20.197-7.838
			C370.721,129.137,386.366,113.6,386.366,82.772z M339.64,209.251v98.113c0,36.044-29.323,65.367-65.367,65.367H123.458
			c-36.044,0-65.367-29.323-65.367-65.367v-98.113c0-28.44,18.301-53.009,45.187-62.195c22.883-7.818,34.099-21.988,43.348-37.93
			c9.408-16.215,15.752-26.152,27.146-26.152l50.19-0.002c11.395,0,17,10.39,27.146,26.153
			c20.72,32.195,39.472,36.807,39.614,36.844C319.524,153.432,339.64,179.455,339.64,209.251z M345.062,115.112
			c-10.555,6.116-24.264,7.4-33.904,7.4c-8.743,0-15.099-1.061-15.137-1.067c-0.148-0.025-0.298-0.049-0.447-0.069
			c-8.567-1.171-14.346-10.148-22.843-24.796c-9.979-17.201-22.397-38.608-48.77-38.608l-50.194,0.002
			c-26.367,0-38.787,21.406-48.767,38.605c-8.498,14.648-14.277,23.627-22.846,24.799c-0.133,0.02-0.291,0.043-0.423,0.065
			c-0.063,0.011-6.416,1.07-15.157,1.07c-33.317,0-50.21-13.371-50.21-39.741c-0.001-23.846,5.175-39.521,15.823-47.924
			C60.82,28.037,73.755,25,94.132,25h209.467c37.464,0,57.766,9.207,57.766,57.771C361.366,98.177,356.033,108.755,345.062,115.112z
			"/>
		<path d="M198.866,177.716c-45.123,0-81.834,36.711-81.834,81.836c0,45.121,36.711,81.829,81.834,81.829
			s81.834-36.708,81.834-81.829C280.7,214.428,243.989,177.716,198.866,177.716z M198.866,316.383
			c-31.338,0-56.834-25.494-56.834-56.83c0-31.34,25.496-56.836,56.834-56.836s56.834,25.496,56.834,56.836
			C255.7,290.887,230.204,316.383,198.866,316.383z"/>
	</g>
</g>
<g>
</g>
<g>
</g>
<g>
</g>
<g>
</g>
<g>
</g>
<g>
</g>
<g>
</g>
<g>
</g>
<g>
</g>
<g>
</g>
<g>
</g>
<g>
</g>
<g>
</g>
<g>
</g>
<g>
</g>
</svg>
