<?xml version="1.0" encoding="iso-8859-1"?>
<!-- Generator: Adobe Illustrator 16.0.0, SVG Export Plug-In . SVG Version: 6.00 Build 0)  -->
<!DOCTYPE svg PUBLIC "-//W3C//DTD SVG 1.1//EN" "http://www.w3.org/Graphics/SVG/1.1/DTD/svg11.dtd">
<svg version="1.1" id="Capa_1" xmlns="http://www.w3.org/2000/svg" xmlns:xlink="http://www.w3.org/1999/xlink" x="0px" y="0px"
	 width="424.414px" height="424.414px" viewBox="0 0 424.414 424.414" style="enable-background:new 0 0 424.414 424.414;"
	 xml:space="preserve">
<g>
	<path d="M361.592,83.877c-39.988-34.539-93.042-53.561-149.385-53.561S102.811,49.338,62.822,83.877
		C22.31,118.869,0,165.544,0,215.308c0,6.724,5.314,12.192,11.97,12.474c0.668,0.108,1.338,0.184,2.006,0.184
		c4.448,0,8.754-2.381,11.013-6.569c11.576-21.465,38.952-39.452,68.885-32.29c17.222,4.119,32.172,15.889,41.018,32.29
		c3.277,6.077,10.86,8.347,16.936,5.067c2.177-1.174,3.856-2.906,4.976-4.92c0.032-0.049,0.064-0.097,0.093-0.148
		c8.077-14.976,23.851-28.248,42.812-32.477v157.885c0,26.078,21.216,47.295,47.295,47.295s47.295-21.217,47.295-47.295
		c0-6.903-5.596-12.5-12.5-12.5c-6.902,0-12.5,5.597-12.5,12.5c0,12.293-10.001,22.295-22.295,22.295s-22.297-10-22.297-22.294
		V188.876c0.357,0.079,0.714,0.144,1.072,0.229c17.203,4.115,32.14,15.864,40.987,32.236c0-0.002,0.001-0.004,0.001-0.006
		c1.117,2.104,2.845,3.912,5.098,5.127c1.887,1.019,3.919,1.5,5.923,1.5c4.448,0,8.753-2.379,11.013-6.568
		c11.576-21.466,38.953-39.453,68.886-32.29c17.223,4.12,32.173,15.889,41.018,32.29c2.59,4.805,7.873,7.215,12.974,6.398
		c0.079,0.002,0.156,0.013,0.236,0.013c6.903,0,12.5-5.597,12.5-12.5C424.415,165.544,402.104,118.869,361.592,83.877z
		 M363.503,164.792c-19.467-4.655-39.388-2.271-57.609,6.895c-10.682,5.374-20.244,12.893-28.022,21.869
		c-12.126-14.283-28.28-24.459-46.275-28.764c-19.468-4.655-39.388-2.271-57.609,6.895c-10.675,5.37-20.238,12.879-28.013,21.85
		c-12.127-14.28-28.292-24.44-46.285-28.745c-19.466-4.655-39.388-2.271-57.608,6.895c-4.279,2.153-8.375,4.654-12.255,7.449
		C49.06,108.281,123.532,55.316,212.207,55.316c88.771,0,163.308,53.079,182.443,124.051
		C385.349,172.493,374.785,167.491,363.503,164.792z"/>
</g>
<g>
</g>
<g>
</g>
<g>
</g>
<g>
</g>
<g>
</g>
<g>
</g>
<g>
</g>
<g>
</g>
<g>
</g>
<g>
</g>
<g>
</g>
<g>
</g>
<g>
</g>
<g>
</g>
<g>
</g>
</svg>
