<?xml version="1.0" encoding="iso-8859-1"?>
<!-- Generator: Adobe Illustrator 16.0.0, SVG Export Plug-In . SVG Version: 6.00 Build 0)  -->
<!DOCTYPE svg PUBLIC "-//W3C//DTD SVG 1.1//EN" "http://www.w3.org/Graphics/SVG/1.1/DTD/svg11.dtd">
<svg version="1.1" id="Capa_1" xmlns="http://www.w3.org/2000/svg" xmlns:xlink="http://www.w3.org/1999/xlink" x="0px" y="0px"
	 width="379.955px" height="379.955px" viewBox="0 0 379.955 379.955" style="enable-background:new 0 0 379.955 379.955;"
	 xml:space="preserve">
<g>
	<g>
		<path d="M109.978,105c3.198,0,6.398-1.221,8.839-3.661l58.661-58.661v213.654c0,6.902,5.596,12.5,12.5,12.5
			c6.902,0,12.5-5.598,12.5-12.5V42.678l58.661,58.659c4.882,4.881,12.796,4.881,17.678,0c4.881-4.882,4.881-12.796,0-17.678
			l-80-79.998c-4.882-4.881-12.796-4.881-17.677,0l-80.001,80c-4.881,4.882-4.881,12.796,0,17.678
			C103.58,103.781,106.778,105,109.978,105z"/>
		<path d="M358.862,243.833H245.475c-6.904,0-12.5,5.597-12.5,12.5v23.454c0,6.902,5.596,12.5,12.5,12.5s12.5-5.598,12.5-12.5
			v-10.954h88.388v86.122H33.593v-86.122h88.388v10.954c0,6.902,5.596,12.5,12.5,12.5c6.903,0,12.5-5.598,12.5-12.5v-23.454
			c0-6.903-5.597-12.5-12.5-12.5H21.093c-6.904,0-12.5,5.597-12.5,12.5v111.122c0,6.903,5.596,12.5,12.5,12.5h337.77
			c6.904,0,12.5-5.597,12.5-12.5V256.333C371.362,249.429,365.767,243.833,358.862,243.833z"/>
	</g>
</g>
<g>
</g>
<g>
</g>
<g>
</g>
<g>
</g>
<g>
</g>
<g>
</g>
<g>
</g>
<g>
</g>
<g>
</g>
<g>
</g>
<g>
</g>
<g>
</g>
<g>
</g>
<g>
</g>
<g>
</g>
</svg>
