<?xml version="1.0" encoding="iso-8859-1"?>
<!-- Generator: Adobe Illustrator 16.0.0, SVG Export Plug-In . SVG Version: 6.00 Build 0)  -->
<!DOCTYPE svg PUBLIC "-//W3C//DTD SVG 1.1//EN" "http://www.w3.org/Graphics/SVG/1.1/DTD/svg11.dtd">
<svg version="1.1" id="Capa_1" xmlns="http://www.w3.org/2000/svg" xmlns:xlink="http://www.w3.org/1999/xlink" x="0px" y="0px"
	 width="384.818px" height="384.817px" viewBox="0 0 384.818 384.817" style="enable-background:new 0 0 384.818 384.817;"
	 xml:space="preserve">
<g>
	<g>
		<path d="M324.402,0H133.323c-3.315,0-6.495,1.317-8.839,3.661L51.577,76.57c-2.344,2.344-3.661,5.524-3.661,8.839v286.908
			c0,6.902,5.597,12.5,12.5,12.5h263.986c6.903,0,12.5-5.598,12.5-12.5V12.5C336.902,5.597,331.305,0,324.402,0z M120.823,42.679
			v30.23h-30.23L120.823,42.679z M311.902,359.818H72.916V97.909h60.407c6.903,0,12.5-5.597,12.5-12.5V25h166.079V359.818
			L311.902,359.818z"/>
		<path d="M124.909,157.729c-6.903,0-12.5,5.596-12.5,12.5c0,6.904,5.597,12.5,12.5,12.5h37c6.903,0,12.5-5.596,12.5-12.5
			c0-6.904-5.597-12.5-12.5-12.5H124.909z"/>
		<path d="M192.909,182.729h67c6.903,0,12.5-5.596,12.5-12.5c0-6.904-5.597-12.5-12.5-12.5h-67c-6.903,0-12.5,5.596-12.5,12.5
			C180.409,177.133,186.006,182.729,192.909,182.729z"/>
		<path d="M124.909,232.729h77c6.903,0,12.5-5.596,12.5-12.5c0-6.902-5.597-12.5-12.5-12.5h-77c-6.903,0-12.5,5.598-12.5,12.5
			C112.409,227.133,118.006,232.729,124.909,232.729z"/>
		<path d="M259.909,207.729h-27c-6.903,0-12.5,5.597-12.5,12.5c0,6.904,5.597,12.5,12.5,12.5h27c6.903,0,12.5-5.596,12.5-12.5
			C272.409,213.325,266.812,207.729,259.909,207.729z"/>
		<path d="M156.909,257.729h-32c-6.903,0-12.5,5.597-12.5,12.5c0,6.904,5.597,12.5,12.5,12.5h32c6.903,0,12.5-5.596,12.5-12.5
			C169.409,263.325,163.812,257.729,156.909,257.729z"/>
		<path d="M259.909,257.729h-72c-6.903,0-12.5,5.598-12.5,12.5c0,6.904,5.597,12.5,12.5,12.5h72c6.903,0,12.5-5.596,12.5-12.5
			C272.409,263.326,266.812,257.729,259.909,257.729z"/>
	</g>
</g>
<g>
</g>
<g>
</g>
<g>
</g>
<g>
</g>
<g>
</g>
<g>
</g>
<g>
</g>
<g>
</g>
<g>
</g>
<g>
</g>
<g>
</g>
<g>
</g>
<g>
</g>
<g>
</g>
<g>
</g>
</svg>
