<?xml version="1.0" encoding="iso-8859-1"?>
<!-- Generator: Adobe Illustrator 16.0.0, SVG Export Plug-In . SVG Version: 6.00 Build 0)  -->
<!DOCTYPE svg PUBLIC "-//W3C//DTD SVG 1.1//EN" "http://www.w3.org/Graphics/SVG/1.1/DTD/svg11.dtd">
<svg version="1.1" id="Capa_1" xmlns="http://www.w3.org/2000/svg" xmlns:xlink="http://www.w3.org/1999/xlink" x="0px" y="0px"
	 width="407.551px" height="407.552px" viewBox="0 0 407.551 407.552" style="enable-background:new 0 0 407.551 407.552;"
	 xml:space="preserve">
<g>
	<path d="M298.776,121.703h-15.69c-0.111-6.806-5.655-12.292-12.488-12.292h-48.521L203.595,52.12
		c-0.767-2.375-2.227-4.468-4.193-6.006L143.87,2.656c-5.438-4.254-13.295-3.295-17.548,2.141
		c-4.256,5.437-3.297,13.293,2.14,17.548l52.518,41.098l14.829,45.97h-58.853c-6.833,0-12.377,5.485-12.489,12.292h-15.691
		c-6.903,0-12.5,5.597-12.5,12.5c0,6.903,5.597,12.5,12.5,12.5h0.791l21.109,249.4c0.548,6.472,5.959,11.446,12.455,11.446h121.289
		c6.494,0,11.908-4.975,12.455-11.446l21.108-249.4h0.793c6.903,0,12.5-5.597,12.5-12.5
		C311.276,127.302,305.679,121.703,298.776,121.703z M252.934,382.549h-98.316l-7.303-86.275h14.889
		c4.031,26.827,20.846,46.399,41.572,46.399c20.727,0,37.541-19.572,41.572-46.399h14.888L252.934,382.549z M186.276,283.774
		c0-19.402,9.239-33.9,17.5-33.9c8.26,0,17.5,14.498,17.5,33.9c0,19.401-9.24,33.899-17.5,33.899
		C195.515,317.673,186.276,303.176,186.276,283.774z M262.352,271.274h-17.004c-4.031-26.827-20.846-46.4-41.572-46.4
		c-20.726,0-37.541,19.573-41.572,46.4H145.2l-10.544-124.571h138.239L262.352,271.274z"/>
</g>
<g>
</g>
<g>
</g>
<g>
</g>
<g>
</g>
<g>
</g>
<g>
</g>
<g>
</g>
<g>
</g>
<g>
</g>
<g>
</g>
<g>
</g>
<g>
</g>
<g>
</g>
<g>
</g>
<g>
</g>
</svg>
