<?xml version="1.0" encoding="iso-8859-1"?>
<!-- Generator: Adobe Illustrator 16.0.0, SVG Export Plug-In . SVG Version: 6.00 Build 0)  -->
<!DOCTYPE svg PUBLIC "-//W3C//DTD SVG 1.1//EN" "http://www.w3.org/Graphics/SVG/1.1/DTD/svg11.dtd">
<svg version="1.1" id="Capa_1" xmlns="http://www.w3.org/2000/svg" xmlns:xlink="http://www.w3.org/1999/xlink" x="0px" y="0px"
	 width="389px" height="389px" viewBox="0 0 389 389" style="enable-background:new 0 0 389 389;" xml:space="preserve">
<g>
	<g>
		<path d="M376.5,88.673H121.744V66.827c0-6.904-5.596-12.5-12.5-12.5H62.578c-6.904,0-12.5,5.596-12.5,12.5v21.846H12.5
			c-6.903,0-12.5,5.597-12.5,12.5v221c0,6.903,5.597,12.5,12.5,12.5h364c6.903,0,12.5-5.597,12.5-12.5v-221
			C389,94.271,383.403,88.673,376.5,88.673z M75.078,79.327h21.666v9.346H75.078V79.327z M25,113.673h37.578h46.666h94.297
			c-38.608,15.8-65.88,53.772-65.88,98c0,44.229,27.272,82.201,65.88,98H25V113.673z M243.5,130.833
			c44.575,0,80.84,36.265,80.84,80.839c0,44.576-36.265,80.84-80.84,80.84s-80.84-36.264-80.84-80.84
			C162.66,167.098,198.925,130.833,243.5,130.833z M364,309.673h-80.541c38.608-15.799,65.88-53.771,65.88-98
			c0-44.228-27.271-82.2-65.88-98H364V309.673z"/>
		<path d="M243.5,179.267c17.869,0,32.406,14.538,32.406,32.406c0,6.903,5.597,12.5,12.5,12.5c6.902,0,12.5-5.597,12.5-12.5
			c0-31.653-25.752-57.406-57.406-57.406c-6.902,0-12.5,5.597-12.5,12.5C231,173.67,236.598,179.267,243.5,179.267z"/>
	</g>
</g>
<g>
</g>
<g>
</g>
<g>
</g>
<g>
</g>
<g>
</g>
<g>
</g>
<g>
</g>
<g>
</g>
<g>
</g>
<g>
</g>
<g>
</g>
<g>
</g>
<g>
</g>
<g>
</g>
<g>
</g>
</svg>
