<?xml version="1.0" encoding="iso-8859-1"?>
<!-- Generator: Adobe Illustrator 16.0.0, SVG Export Plug-In . SVG Version: 6.00 Build 0)  -->
<!DOCTYPE svg PUBLIC "-//W3C//DTD SVG 1.1//EN" "http://www.w3.org/Graphics/SVG/1.1/DTD/svg11.dtd">
<svg version="1.1" id="Capa_1" xmlns="http://www.w3.org/2000/svg" xmlns:xlink="http://www.w3.org/1999/xlink" x="0px" y="0px"
	 width="410.252px" height="410.252px" viewBox="0 0 410.252 410.252" style="enable-background:new 0 0 410.252 410.252;"
	 xml:space="preserve">
<g>
	<g>
		<g>
			<path d="M175.721,410.252C78.828,410.252,0,331.424,0,234.531C0,137.638,78.828,58.81,175.721,58.81
				c6.903,0,12.5,5.597,12.5,12.5v150.721h150.721c6.902,0,12.5,5.597,12.5,12.5C351.441,331.424,272.613,410.252,175.721,410.252z
				 M163.221,84.324C85.941,90.7,25,155.634,25,234.531c0,83.107,67.613,150.721,150.721,150.721
				c78.897,0,143.831-60.939,150.207-138.221H175.721c-6.903,0-12.5-5.598-12.5-12.5V84.324z"/>
		</g>
		<g>
			<path d="M397.752,188.221H234.531c-6.903,0-12.5-5.597-12.5-12.5V12.5c0-6.903,5.597-12.5,12.5-12.5
				c96.893,0,175.721,78.828,175.721,175.721C410.252,182.624,404.655,188.221,397.752,188.221z M247.031,163.221h137.707
				C378.702,90.065,320.187,31.55,247.031,25.514V163.221z"/>
		</g>
	</g>
</g>
<g>
</g>
<g>
</g>
<g>
</g>
<g>
</g>
<g>
</g>
<g>
</g>
<g>
</g>
<g>
</g>
<g>
</g>
<g>
</g>
<g>
</g>
<g>
</g>
<g>
</g>
<g>
</g>
<g>
</g>
</svg>
