<?xml version="1.0" encoding="iso-8859-1"?>
<!-- Generator: Adobe Illustrator 16.0.0, SVG Export Plug-In . SVG Version: 6.00 Build 0)  -->
<!DOCTYPE svg PUBLIC "-//W3C//DTD SVG 1.1//EN" "http://www.w3.org/Graphics/SVG/1.1/DTD/svg11.dtd">
<svg version="1.1" id="Capa_1" xmlns="http://www.w3.org/2000/svg" xmlns:xlink="http://www.w3.org/1999/xlink" x="0px" y="0px"
	 width="395.001px" height="395px" viewBox="0 0 395.001 395" style="enable-background:new 0 0 395.001 395;" xml:space="preserve"
	>
<g>
	<g>
		<path d="M322.852,0H72.15C32.366,0,0,32.368,0,72.151V322.85C0,362.633,32.366,395,72.15,395h250.701
			c39.784,0,72.15-32.367,72.15-72.15V72.151C395.002,32.368,362.636,0,322.852,0z M370.002,322.85
			c0,25.998-21.151,47.15-47.15,47.15H72.15C46.151,370,25,348.848,25,322.85V72.151C25,46.152,46.151,25,72.15,25h250.701
			c25.999,0,47.15,21.152,47.15,47.151L370.002,322.85L370.002,322.85z"/>
		<path d="M283.901,187.747L156.735,85.826c-3.751-3.006-8.893-3.596-13.228-1.515c-4.333,2.08-7.09,6.461-7.09,11.269v203.842
			c0,4.808,2.757,9.188,7.09,11.269c1.722,0.828,3.569,1.231,5.408,1.231c2.791,0,5.559-0.935,7.819-2.746l127.167-101.921
			c2.96-2.373,4.683-5.96,4.683-9.754S286.861,190.12,283.901,187.747z M161.418,273.383V121.618l94.679,75.883L161.418,273.383z"/>
	</g>
</g>
<g>
</g>
<g>
</g>
<g>
</g>
<g>
</g>
<g>
</g>
<g>
</g>
<g>
</g>
<g>
</g>
<g>
</g>
<g>
</g>
<g>
</g>
<g>
</g>
<g>
</g>
<g>
</g>
<g>
</g>
</svg>
