<?xml version="1.0" encoding="iso-8859-1"?>
<!-- Generator: Adobe Illustrator 16.0.0, SVG Export Plug-In . SVG Version: 6.00 Build 0)  -->
<!DOCTYPE svg PUBLIC "-//W3C//DTD SVG 1.1//EN" "http://www.w3.org/Graphics/SVG/1.1/DTD/svg11.dtd">
<svg version="1.1" id="Capa_1" xmlns="http://www.w3.org/2000/svg" xmlns:xlink="http://www.w3.org/1999/xlink" x="0px" y="0px"
	 width="375.002px" height="375.002px" viewBox="0 0 375.002 375.002" style="enable-background:new 0 0 375.002 375.002;"
	 xml:space="preserve">
<g>
	<path d="M371.34,138.717L236.283,3.661c-4.883-4.881-12.797-4.881-17.679,0c-10.439,10.439-19.515,44.235-22.42,55.99
		c-0.001,0.001-0.002,0.002-0.003,0.003l-54.231,54.233c-4.916-1.649-10.097-2.502-15.334-2.502
		c-12.849,0-24.928,5.003-34.017,14.089c-18.75,18.755-18.75,49.271,0.001,68.026l35.61,35.609L3.662,353.663
		c-4.882,4.882-4.882,12.796,0,17.678c2.44,2.44,5.64,3.661,8.839,3.661s6.397-1.221,8.839-3.661l124.549-124.552l35.613,35.613
		c9.086,9.084,21.166,14.089,34.014,14.089c12.85,0,24.929-5.005,34.012-14.089c13.125-13.121,17.339-32.321,11.595-49.358
		l54.225-54.225c11.751-2.903,45.551-11.976,55.996-22.428C376.222,151.51,376.22,143.598,371.34,138.717z M306.352,155.278
		c-2.641,0.531-5.038,1.9-6.838,3.904c-0.667,0.743-1.271,1.385-1.844,1.958l-60.319,60.319c-4.033,4.033-4.825,10.284-1.924,15.195
		c5.355,9.066,3.885,20.609-3.577,28.068c-4.362,4.363-10.164,6.768-16.334,6.768c-6.171,0-11.973-2.403-16.336-6.768l-44.43-44.431
		c-0.007-0.007-0.014-0.017-0.021-0.022s-0.016-0.013-0.022-0.021l-44.427-44.427c-9.006-9.008-9.006-23.665-0.002-32.672
		c4.365-4.363,10.167-6.767,16.339-6.767c4.141,0,8.196,1.103,11.73,3.189c4.912,2.9,11.163,2.109,15.196-1.924l60.304-60.306
		c0.607-0.605,1.258-1.218,1.937-1.821c2.022-1.802,3.406-4.213,3.94-6.869c1.773-8.813,6.467-24.428,10.739-35.46l111.341,111.34
		C330.76,148.82,315.16,153.508,306.352,155.278z"/>
</g>
<g>
</g>
<g>
</g>
<g>
</g>
<g>
</g>
<g>
</g>
<g>
</g>
<g>
</g>
<g>
</g>
<g>
</g>
<g>
</g>
<g>
</g>
<g>
</g>
<g>
</g>
<g>
</g>
<g>
</g>
</svg>
