<?xml version="1.0" encoding="iso-8859-1"?>
<!-- Generator: Adobe Illustrator 16.0.0, SVG Export Plug-In . SVG Version: 6.00 Build 0)  -->
<!DOCTYPE svg PUBLIC "-//W3C//DTD SVG 1.1//EN" "http://www.w3.org/Graphics/SVG/1.1/DTD/svg11.dtd">
<svg version="1.1" id="Capa_1" xmlns="http://www.w3.org/2000/svg" xmlns:xlink="http://www.w3.org/1999/xlink" x="0px" y="0px"
	 width="395.025px" height="395.025px" viewBox="0 0 395.025 395.025" style="enable-background:new 0 0 395.025 395.025;"
	 xml:space="preserve">
<g>
	<path d="M357.507,380.982L337.914,82.223c-0.431-6.572-5.887-11.682-12.473-11.682h-54.69V62.5c0-34.462-28.038-62.5-62.5-62.5
		h-21.495c-34.462,0-62.5,28.038-62.5,62.5v8.041h-54.69c-6.586,0-12.042,5.11-12.473,11.682L37.45,381.709
		c-0.227,3.449,0.986,6.838,3.35,9.361c2.364,2.525,5.666,3.955,9.124,3.955h295.159c0.007,0,0.013,0,0.02,0
		c6.903,0,12.5-5.596,12.5-12.5C357.601,382.004,357.57,381.488,357.507,380.982z M149.255,62.5c0-20.678,16.822-37.5,37.5-37.5
		h21.495c20.678,0,37.5,16.822,37.5,37.5v8.041h-96.495V62.5z M63.27,370.025L81.272,95.542h42.983v11.154
		c-8.895,4.56-15,13.818-15,24.482c0,15.164,12.336,27.5,27.5,27.5s27.5-12.336,27.5-27.5c0-10.664-6.105-19.922-15-24.482V95.542
		h96.495v11.154c-8.896,4.56-15,13.818-15,24.482c0,15.164,12.336,27.5,27.5,27.5s27.5-12.336,27.5-27.5
		c0-10.664-6.105-19.922-15-24.482V95.542h42.983l18.002,274.483H63.27z"/>
</g>
<g>
</g>
<g>
</g>
<g>
</g>
<g>
</g>
<g>
</g>
<g>
</g>
<g>
</g>
<g>
</g>
<g>
</g>
<g>
</g>
<g>
</g>
<g>
</g>
<g>
</g>
<g>
</g>
<g>
</g>
</svg>
