<?xml version="1.0" encoding="iso-8859-1"?>
<!-- Generator: Adobe Illustrator 16.0.0, SVG Export Plug-In . SVG Version: 6.00 Build 0)  -->
<!DOCTYPE svg PUBLIC "-//W3C//DTD SVG 1.1//EN" "http://www.w3.org/Graphics/SVG/1.1/DTD/svg11.dtd">
<svg version="1.1" id="Capa_1" xmlns="http://www.w3.org/2000/svg" xmlns:xlink="http://www.w3.org/1999/xlink" x="0px" y="0px"
	 width="329.388px" height="329.388px" viewBox="0 0 329.388 329.388" style="enable-background:new 0 0 329.388 329.388;"
	 xml:space="preserve">
<g>
	<path d="M185.161,263.996c40.734,0,79.03-15.863,107.834-44.666c2.344-2.344,3.661-5.523,3.661-8.84
		c0-3.315-1.317-6.494-3.661-8.838l-53.337-53.338V69.498c0-6.904-5.596-12.5-12.5-12.5h-78.816L95.004,3.661
		c-4.882-4.882-12.796-4.882-17.678,0c-59.459,59.459-59.459,156.208,0,215.668c14.325,14.324,31,25.445,49.153,33.01v52.049h-38
		c-6.902,0-12.5,5.598-12.5,12.5s5.598,12.5,12.5,12.5h101c6.903,0,12.5-5.598,12.5-12.5s-5.597-12.5-12.5-12.5h-38v-44.104
		C162.409,262.736,173.687,263.996,185.161,263.996z M214.658,81.998v41.316l-41.316-41.316H214.658z M86.595,30.607
		l179.458,179.458c-22.749,18.738-51.036,28.931-80.893,28.931c-34.058,0-66.075-13.263-90.156-37.345
		C48.274,154.921,45.473,80.642,86.595,30.607z"/>
</g>
<g>
</g>
<g>
</g>
<g>
</g>
<g>
</g>
<g>
</g>
<g>
</g>
<g>
</g>
<g>
</g>
<g>
</g>
<g>
</g>
<g>
</g>
<g>
</g>
<g>
</g>
<g>
</g>
<g>
</g>
</svg>
