<?xml version="1.0" encoding="iso-8859-1"?>
<!-- Generator: Adobe Illustrator 16.0.0, SVG Export Plug-In . SVG Version: 6.00 Build 0)  -->
<!DOCTYPE svg PUBLIC "-//W3C//DTD SVG 1.1//EN" "http://www.w3.org/Graphics/SVG/1.1/DTD/svg11.dtd">
<svg version="1.1" id="Capa_1" xmlns="http://www.w3.org/2000/svg" xmlns:xlink="http://www.w3.org/1999/xlink" x="0px" y="0px"
	 width="451.583px" height="451.583px" viewBox="0 0 451.583 451.583" style="enable-background:new 0 0 451.583 451.583;"
	 xml:space="preserve">
<g>
	<g>
		<path d="M443.438,131.743c-1.666-3.766-5.078-6.469-9.125-7.229c-4.054-0.762-8.211,0.523-11.128,3.43l-46.147,45.965
			c-6.986,6.988-16.279,10.836-26.162,10.836c-9.881,0-19.172-3.848-26.16-10.836c-6.988-6.988-10.837-16.279-10.838-26.162
			c0-9.883,3.85-19.172,10.823-26.148l46.106-45.973c2.921-2.912,4.219-7.08,3.464-11.135c-0.754-4.057-3.46-7.479-7.231-9.148
			c-12.121-5.361-25.594-8.197-38.964-8.197c-24.839,0-47.881,9.361-64.881,26.361l-15.196,15.197
			c-26.348,26.348-34.146,65.178-20.72,99.207l-15.468,15.468l-16.109-16.107l6.475-6.474c4.882-4.882,4.882-12.796,0-17.678
			l-62.931-62.931c4.058-16.895-0.817-34.763-13.438-47.377c-9.538-9.539-22.22-14.793-35.709-14.793
			c-13.488,0-26.17,5.252-35.71,14.79L14.793,92.408C5.254,101.945,0,114.627,0,128.116c0,13.489,5.254,26.172,14.792,35.712
			c9.532,9.532,22.209,14.782,35.693,14.783h0.002c3.97,0,7.874-0.455,11.677-1.356l62.938,62.94
			c2.344,2.344,5.523,3.661,8.839,3.661s6.495-1.317,8.839-3.661l6.471-6.472l16.108,16.106l-63.019,63.019
			c-11.143,11.144-17.28,25.959-17.281,41.717c-0.001,15.761,6.136,30.573,17.279,41.72c11.145,11.143,25.961,17.277,41.719,17.277
			c15.759,0,30.574-6.137,41.719-17.277l63.029-63.029l62.729,62.748c1.393,1.395,3.095,2.438,4.968,3.047l42.669,13.898
			c1.271,0.414,2.576,0.615,3.87,0.615c3.265,0,6.458-1.279,8.841-3.662c3.326-3.324,4.502-8.236,3.047-12.709l-13.896-42.673
			c-0.611-1.872-1.654-3.575-3.047-4.968l-62.729-62.749l15.471-15.472c10.72,4.191,22.238,6.379,33.798,6.379
			c24.705,0,47.929-9.621,65.396-27.088l15.195-15.195C451.737,208.808,459.1,167.14,443.438,131.743z M133.941,213.679
			l-59.519-59.521c-2.394-2.394-5.591-3.661-8.842-3.661c-1.671,0-3.356,0.335-4.954,1.024c-3.209,1.387-6.62,2.09-10.14,2.09
			c-6.809-0.001-13.207-2.65-18.018-7.46c-4.816-4.817-7.469-11.222-7.469-18.033c0-6.811,2.652-13.214,7.469-18.03l39.597-39.599
			c4.817-4.816,11.222-7.469,18.033-7.469s13.214,2.652,18.032,7.472c7.438,7.435,9.547,18.485,5.371,28.152
			c-2.031,4.704-0.986,10.172,2.637,13.795l59.521,59.521L133.941,213.679z M166.93,216.046l11.096-11.096l16.107,16.107
			l-11.096,11.096L166.93,216.046z M338.188,365.111l5.358,16.457l-16.455-5.359l-60.609-60.631l11.097-11.097L338.188,365.111z
			 M407.438,217.751l-15.195,15.195c-12.746,12.746-29.692,19.767-47.719,19.767c-10.802-0.002-21.476-2.541-31.001-7.482
			c-5.297-2.744-11.397-1.078-15.519,3.293L168.099,378.607c-6.422,6.422-14.96,9.957-24.041,9.957s-17.619-3.535-24.041-9.957
			c-6.42-6.424-9.957-14.96-9.957-24.04c0-9.082,3.537-17.618,9.959-24.041L250.079,200.6c4.485-4.262,6.041-10.225,3.294-15.521
			c-13.596-26.223-8.598-57.795,12.305-78.697l15.197-15.197c12.277-12.277,29.041-19.039,47.201-19.039
			c3.373,0,6.752,0.242,10.096,0.719l-31.135,31.045c-11.71,11.709-18.158,27.279-18.158,43.838
			c0.002,16.561,6.45,32.131,18.16,43.84c11.71,11.711,27.279,18.16,43.84,18.158c16.562-0.002,32.13-6.449,43.82-18.141
			l31.216-31.092C428.879,181.442,422.313,202.876,407.438,217.751z"/>
		<path d="M146.954,332.171c-5.209,0-10.106,2.027-13.789,5.711c-3.682,3.684-5.711,8.58-5.711,13.789s2.028,10.104,5.711,13.789
			c3.683,3.682,8.58,5.711,13.789,5.711c5.209-0.002,10.105-2.029,13.789-5.713c3.684-3.683,5.711-8.58,5.711-13.787
			c0-5.209-2.028-10.107-5.711-13.789C157.06,334.199,152.163,332.171,146.954,332.171z"/>
	</g>
</g>
<g>
</g>
<g>
</g>
<g>
</g>
<g>
</g>
<g>
</g>
<g>
</g>
<g>
</g>
<g>
</g>
<g>
</g>
<g>
</g>
<g>
</g>
<g>
</g>
<g>
</g>
<g>
</g>
<g>
</g>
</svg>
