<?xml version="1.0" encoding="iso-8859-1"?>
<!-- Generator: Adobe Illustrator 16.0.0, SVG Export Plug-In . SVG Version: 6.00 Build 0)  -->
<!DOCTYPE svg PUBLIC "-//W3C//DTD SVG 1.1//EN" "http://www.w3.org/Graphics/SVG/1.1/DTD/svg11.dtd">
<svg version="1.1" id="Capa_1" xmlns="http://www.w3.org/2000/svg" xmlns:xlink="http://www.w3.org/1999/xlink" x="0px" y="0px"
	 width="403.475px" height="403.475px" viewBox="0 0 403.475 403.475" style="enable-background:new 0 0 403.475 403.475;"
	 xml:space="preserve">
<g>
	<path d="M374.237,172.5c0-95.117-77.383-172.5-172.5-172.5s-172.5,77.383-172.5,172.5c0,56.08,27.084,108.311,72.689,140.699
		c0.834,8.939,4.465,17.356,10.541,24.197l38.226,43.035c0.385,0.434,0.784,0.852,1.197,1.258
		c10.26,10.049,29.396,21.785,49.559,21.785h37.636c16.22,0,31.597-5.77,43.3-16.244c12.3-11.01,19.354-26.486,19.354-42.461
		l-0.014-31.703C347.206,280.672,374.237,228.455,374.237,172.5z M239.083,378.475h-37.635c-11.272,0-24.383-7.121-32.064-14.646
		l-38.225-43.033c-6.425-7.234-5.771-18.309,1.465-24.734c3.338-2.965,7.491-4.423,11.63-4.423c4.833,0,9.644,1.989,13.105,5.886
		l6.202,6.981v-79.058c0-9.676,7.844-17.521,17.521-17.521c9.677,0,17.521,7.846,17.521,17.521v40.984
		c2.615-1.552,5.657-2.459,8.919-2.459c7.436,0,13.775,4.641,16.318,11.178c2.723-1.746,5.953-2.77,9.426-2.77
		c8.561,0,15.677,6.143,17.207,14.257c2.571-1.481,5.545-2.341,8.726-2.341c9.676,0,17.521,7.845,17.521,17.521l0.017,42.951
		C276.737,363.385,259.88,378.475,239.083,378.475z M297.943,284.3c-6.196-13.651-19.405-23.474-35.002-24.84
		c-7.724-7.524-18.252-12.079-29.675-12.079c-0.123,0-0.246,0-0.37,0.001c-0.353-0.263-0.71-0.521-1.071-0.772
		c-2.592-1.809-5.347-3.31-8.223-4.486v-16.676c0-23.446-19.075-42.521-42.521-42.521c-23.446,0-42.521,19.075-42.521,42.521v41.572
		c-8.333,1.125-16.18,4.7-22.538,10.348c-3.066,2.724-5.676,5.824-7.8,9.201C74.184,258.66,54.237,216.996,54.237,172.5
		c0-81.332,66.168-147.5,147.5-147.5s147.5,66.168,147.5,147.5C349.237,215.77,330.328,256.425,297.943,284.3z"/>
</g>
<g>
</g>
<g>
</g>
<g>
</g>
<g>
</g>
<g>
</g>
<g>
</g>
<g>
</g>
<g>
</g>
<g>
</g>
<g>
</g>
<g>
</g>
<g>
</g>
<g>
</g>
<g>
</g>
<g>
</g>
</svg>
