<?xml version="1.0" encoding="iso-8859-1"?>
<!-- Generator: Adobe Illustrator 16.0.0, SVG Export Plug-In . SVG Version: 6.00 Build 0)  -->
<!DOCTYPE svg PUBLIC "-//W3C//DTD SVG 1.1//EN" "http://www.w3.org/Graphics/SVG/1.1/DTD/svg11.dtd">
<svg version="1.1" id="Capa_1" xmlns="http://www.w3.org/2000/svg" xmlns:xlink="http://www.w3.org/1999/xlink" x="0px" y="0px"
	 width="364.031px" height="364.031px" viewBox="0 0 364.031 364.031" style="enable-background:new 0 0 364.031 364.031;"
	 xml:space="preserve">
<g>
	<g>
		<path d="M316.533,113.603H297.16c-0.475-22.646-3.229-42.759-17.148-59.082c-12.266-14.381-31.559-23.295-59.506-27.249
			c-3.753-6.281-10.886-10.535-19.057-10.535h-38.865c-8.17,0-15.304,4.254-19.057,10.535c-27.947,3.954-47.24,12.868-59.505,27.249
			c-13.921,16.323-16.674,36.436-17.149,59.082H47.5c-26.191,0-47.5,21.309-47.5,47.5c0,22.229,15.348,40.94,36.003,46.094v77.597
			c0,34.463,28.037,62.5,62.5,62.5h167.026c34.463,0,62.5-28.037,62.5-62.5v-77.597c20.654-5.153,36.002-23.865,36.002-46.094
			C364.033,134.911,342.725,113.603,316.533,113.603z M103.043,70.744c8.145-9.55,22.702-15.759,44.12-18.758
			c3.957,3.719,9.408,6.021,15.42,6.021h38.865c6.012,0,11.463-2.302,15.42-6.021c21.417,2.999,35.976,9.208,44.12,18.758
			c8.832,10.355,10.773,24.979,11.164,42.859H91.879C92.269,95.723,94.211,81.099,103.043,70.744z M316.533,183.603h-1.207
			c-3.504,0-6.717,1.472-9.084,4.055s-3.238,6.093-3.238,9.531l0.025,87.604c0,20.679-16.82,37.5-37.5,37.5H98.503
			c-20.678,0-37.5-16.821-37.5-37.5l-0.006-87.604c0-3.657-0.871-6.948-3.238-9.531c-2.367-2.583-5.549-4.055-9.053-4.055H47.5
			c-12.407,0-22.5-10.093-22.5-22.5c0-12.406,10.093-22.5,22.5-22.5h269.033c12.406,0,22.5,10.094,22.5,22.5
			C339.033,173.509,328.939,183.603,316.533,183.603z"/>
		<path d="M112.016,207.163c-6.904,0-12.5,5.598-12.5,12.5v54c0,6.902,5.596,12.5,12.5,12.5s12.5-5.598,12.5-12.5v-54
			C124.516,212.761,118.92,207.163,112.016,207.163z"/>
		<path d="M182.016,207.163c-6.904,0-12.5,5.598-12.5,12.5v54c0,6.902,5.596,12.5,12.5,12.5s12.5-5.598,12.5-12.5v-54
			C194.516,212.761,188.92,207.163,182.016,207.163z"/>
		<path d="M252.016,207.163c-6.904,0-12.5,5.598-12.5,12.5v54c0,6.902,5.596,12.5,12.5,12.5s12.5-5.598,12.5-12.5v-54
			C264.516,212.761,258.92,207.163,252.016,207.163z"/>
	</g>
</g>
<g>
</g>
<g>
</g>
<g>
</g>
<g>
</g>
<g>
</g>
<g>
</g>
<g>
</g>
<g>
</g>
<g>
</g>
<g>
</g>
<g>
</g>
<g>
</g>
<g>
</g>
<g>
</g>
<g>
</g>
</svg>
