<?xml version="1.0" encoding="iso-8859-1"?>
<!-- Generator: Adobe Illustrator 16.0.0, SVG Export Plug-In . SVG Version: 6.00 Build 0)  -->
<!DOCTYPE svg PUBLIC "-//W3C//DTD SVG 1.1//EN" "http://www.w3.org/Graphics/SVG/1.1/DTD/svg11.dtd">
<svg version="1.1" id="Capa_1" xmlns="http://www.w3.org/2000/svg" xmlns:xlink="http://www.w3.org/1999/xlink" x="0px" y="0px"
	 width="365.003px" height="365.003px" viewBox="0 0 365.003 365.003" style="enable-background:new 0 0 365.003 365.003;"
	 xml:space="preserve">
<g>
	<path d="M352.502,60.267H88.249L73.027,24.487c-1.558-3.662-4.767-6.363-8.64-7.275L15.365,5.678
		c-6.72-1.586-13.45,2.584-15.03,9.305c-1.582,6.72,2.584,13.449,9.305,15.03L52.5,40.099l109.723,257.924
		c-3.398,6.001-5.35,12.927-5.35,20.302c0,22.793,18.544,41.337,41.336,41.337c22.793,0,41.337-18.543,41.337-41.337
		c0-5.726-1.172-11.182-3.285-16.145h45.011c-2.113,4.962-3.285,10.418-3.285,16.145c0,22.793,18.545,41.337,41.339,41.337
		c22.792,0,41.335-18.543,41.335-41.337c0-22.795-18.543-41.338-41.335-41.338l-138.801,0.193l-17.12-40.243h189.098
		c6.904,0,12.5-5.597,12.5-12.5V72.767C365.002,65.864,359.406,60.267,352.502,60.267z M319.351,302
		c9.021,0,16.334,7.312,16.334,16.333c0,9.02-7.312,16.333-16.334,16.333c-9.021,0-16.333-7.313-16.333-16.333
		C303.018,309.312,310.33,302,319.351,302z M198.272,302c9.021,0,16.334,7.312,16.334,16.333c0,9.02-7.313,16.333-16.334,16.333
		c-9.021,0-16.333-7.313-16.333-16.333C181.939,309.312,189.252,302,198.272,302z M340.002,136.102h-82.854
		c-6.903,0-12.5,5.597-12.5,12.5s5.597,12.5,12.5,12.5h82.854v50.835H152.771L98.883,85.267h241.119V136.102L340.002,136.102z"/>
</g>
<g>
</g>
<g>
</g>
<g>
</g>
<g>
</g>
<g>
</g>
<g>
</g>
<g>
</g>
<g>
</g>
<g>
</g>
<g>
</g>
<g>
</g>
<g>
</g>
<g>
</g>
<g>
</g>
<g>
</g>
</svg>
