<?xml version="1.0" encoding="iso-8859-1"?>
<!-- Generator: Adobe Illustrator 16.0.0, SVG Export Plug-In . SVG Version: 6.00 Build 0)  -->
<!DOCTYPE svg PUBLIC "-//W3C//DTD SVG 1.1//EN" "http://www.w3.org/Graphics/SVG/1.1/DTD/svg11.dtd">
<svg version="1.1" id="Capa_1" xmlns="http://www.w3.org/2000/svg" xmlns:xlink="http://www.w3.org/1999/xlink" x="0px" y="0px"
	 width="379px" height="379px" viewBox="0 0 379 379" style="enable-background:new 0 0 379 379;" xml:space="preserve">
<g>
	<path d="M298.5,0h-218C73.597,0,68,5.597,68,12.5v354c0,6.903,5.597,12.5,12.5,12.5h218c6.902,0,12.5-5.597,12.5-12.5v-354
		C311,5.597,305.402,0,298.5,0z M93,306.073V72.927h193v233.146H93z M242.859,25v0.765c0,6.904,5.598,12.5,12.5,12.5
		c6.904,0,12.5-5.596,12.5-12.5V25h18.143v22.927H93.001V25H242.859z M93,354v-22.927h79.914c2.736,6.46,9.141,11.004,16.586,11.004
		c7.445,0,13.85-4.543,16.586-11.004H286V354H93z"/>
</g>
<g>
</g>
<g>
</g>
<g>
</g>
<g>
</g>
<g>
</g>
<g>
</g>
<g>
</g>
<g>
</g>
<g>
</g>
<g>
</g>
<g>
</g>
<g>
</g>
<g>
</g>
<g>
</g>
<g>
</g>
</svg>
