<?xml version="1.0" encoding="iso-8859-1"?>
<!-- Generator: Adobe Illustrator 16.0.0, SVG Export Plug-In . SVG Version: 6.00 Build 0)  -->
<!DOCTYPE svg PUBLIC "-//W3C//DTD SVG 1.1//EN" "http://www.w3.org/Graphics/SVG/1.1/DTD/svg11.dtd">
<svg version="1.1" id="Capa_1" xmlns="http://www.w3.org/2000/svg" xmlns:xlink="http://www.w3.org/1999/xlink" x="0px" y="0px"
	 width="350.953px" height="350.953px" viewBox="0 0 350.953 350.953" style="enable-background:new 0 0 350.953 350.953;"
	 xml:space="preserve">
<g>
	<g>
		<path d="M276.199,342.977c-1.988,0-3.985-0.475-5.814-1.436l-94.908-49.896l-94.908,49.896c-4.212,2.213-9.315,1.845-13.164-0.952
			c-3.85-2.796-5.777-7.536-4.973-12.227l18.125-105.682L3.775,147.836c-3.407-3.321-4.633-8.289-3.163-12.813
			c1.47-4.525,5.382-7.823,10.091-8.508l106.111-15.418l47.454-96.153c2.105-4.267,6.451-6.968,11.209-6.968
			c4.757,0,9.104,2.701,11.208,6.968l47.454,96.153l106.11,15.418c4.709,0.685,8.62,3.982,10.091,8.508
			c1.471,4.524,0.245,9.492-3.163,12.813l-76.783,74.845l18.126,105.682c0.804,4.689-1.124,9.431-4.973,12.227
			C281.37,342.172,278.792,342.977,276.199,342.977z M39.362,147.615l63.352,61.752c2.946,2.871,4.291,7.01,3.594,11.063
			l-14.955,87.196l78.306-41.17c3.642-1.914,7.992-1.914,11.634,0l78.306,41.168l-14.956-87.194
			c-0.695-4.056,0.649-8.192,3.595-11.063l63.353-61.752l-87.549-12.722c-4.071-0.592-7.591-3.148-9.412-6.838l-39.152-79.334
			l-39.153,79.334c-1.82,3.689-5.341,6.246-9.412,6.838L39.362,147.615z"/>
	</g>
</g>
<g>
</g>
<g>
</g>
<g>
</g>
<g>
</g>
<g>
</g>
<g>
</g>
<g>
</g>
<g>
</g>
<g>
</g>
<g>
</g>
<g>
</g>
<g>
</g>
<g>
</g>
<g>
</g>
<g>
</g>
</svg>
