<?xml version="1.0" encoding="iso-8859-1"?>
<!-- Generator: Adobe Illustrator 16.0.0, SVG Export Plug-In . SVG Version: 6.00 Build 0)  -->
<!DOCTYPE svg PUBLIC "-//W3C//DTD SVG 1.1//EN" "http://www.w3.org/Graphics/SVG/1.1/DTD/svg11.dtd">
<svg version="1.1" id="Capa_1" xmlns="http://www.w3.org/2000/svg" xmlns:xlink="http://www.w3.org/1999/xlink" x="0px" y="0px"
	 width="305.002px" height="305.002px" viewBox="0 0 305.002 305.002" style="enable-background:new 0 0 305.002 305.002;"
	 xml:space="preserve">
<g>
	<g>
		<g>
			<path d="M152.502,305.001C68.411,305.001,0,236.59,0,152.501s68.411-152.5,152.502-152.5c84.089,0,152.5,68.411,152.5,152.5
				S236.591,305.001,152.502,305.001z M152.502,25.001C82.197,25.001,25,82.197,25,152.501c0,70.305,57.197,127.5,127.502,127.5
				c70.304,0,127.5-57.195,127.5-127.5C280.002,82.197,222.806,25.001,152.502,25.001z"/>
		</g>
		<g>
			<path d="M225.998,165.001H79.006c-6.903,0-12.5-5.598-12.5-12.5c0-6.903,5.597-12.5,12.5-12.5h146.992
				c6.903,0,12.5,5.597,12.5,12.5C238.498,159.403,232.901,165.001,225.998,165.001z"/>
		</g>
	</g>
</g>
<g>
</g>
<g>
</g>
<g>
</g>
<g>
</g>
<g>
</g>
<g>
</g>
<g>
</g>
<g>
</g>
<g>
</g>
<g>
</g>
<g>
</g>
<g>
</g>
<g>
</g>
<g>
</g>
<g>
</g>
</svg>
