<?xml version="1.0" encoding="iso-8859-1"?>
<!-- Generator: Adobe Illustrator 16.0.0, SVG Export Plug-In . SVG Version: 6.00 Build 0)  -->
<!DOCTYPE svg PUBLIC "-//W3C//DTD SVG 1.1//EN" "http://www.w3.org/Graphics/SVG/1.1/DTD/svg11.dtd">
<svg version="1.1" id="Capa_1" xmlns="http://www.w3.org/2000/svg" xmlns:xlink="http://www.w3.org/1999/xlink" x="0px" y="0px"
	 width="379px" height="379px" viewBox="0 0 379 379" style="enable-background:new 0 0 379 379;" xml:space="preserve">
<g>
	<path d="M328.5,0h-278C43.597,0,38,5.597,38,12.5v354c0,6.903,5.597,12.5,12.5,12.5h278c6.903,0,12.5-5.597,12.5-12.5v-354
		C341,5.597,335.403,0,328.5,0z M272.859,25v0.766c0,6.903,5.597,12.5,12.5,12.5c6.902,0,12.5-5.597,12.5-12.5V25H316v281.073H63V25
		H272.859z M63,354v-22.927h109.914c2.736,6.46,9.14,11.004,16.586,11.004c7.445,0,13.85-4.544,16.586-11.004H316V354H63z"/>
</g>
<g>
</g>
<g>
</g>
<g>
</g>
<g>
</g>
<g>
</g>
<g>
</g>
<g>
</g>
<g>
</g>
<g>
</g>
<g>
</g>
<g>
</g>
<g>
</g>
<g>
</g>
<g>
</g>
<g>
</g>
</svg>
