<?xml version="1.0" encoding="iso-8859-1"?>
<!-- Generator: Adobe Illustrator 16.0.0, SVG Export Plug-In . SVG Version: 6.00 Build 0)  -->
<!DOCTYPE svg PUBLIC "-//W3C//DTD SVG 1.1//EN" "http://www.w3.org/Graphics/SVG/1.1/DTD/svg11.dtd">
<svg version="1.1" id="Capa_1" xmlns="http://www.w3.org/2000/svg" xmlns:xlink="http://www.w3.org/1999/xlink" x="0px" y="0px"
	 width="375.002px" height="375.003px" viewBox="0 0 375.002 375.003" style="enable-background:new 0 0 375.002 375.003;"
	 xml:space="preserve">
<g>
	<path d="M343.881,106.02h-132.74l62.796-62.797c4.882-4.882,4.882-12.796,0-17.678c-4.882-4.881-12.796-4.881-17.678,0
		l-68.758,68.76L96.86,3.661c-4.881-4.882-12.795-4.88-17.678,0c-4.881,4.882-4.881,12.796,0,17.678l84.678,84.681H31.122
		c-6.903,0-12.5,5.597-12.5,12.5v187.552c0,6.902,5.597,12.5,12.5,12.5h104.912v9.869l-50.471,22.655
		c-6.298,2.827-9.112,10.226-6.285,16.522c2.081,4.636,6.638,7.384,11.411,7.384c1.71,0,3.45-0.354,5.112-1.1l55.409-24.872h72.586
		l55.409,24.872c1.663,0.746,3.4,1.1,5.112,1.1c4.771,0,9.329-2.748,11.41-7.384c2.827-6.298,0.014-13.695-6.284-16.522
		l-50.472-22.655v-9.869h104.91c6.903,0,12.5-5.598,12.5-12.5V118.52C356.381,111.616,350.786,106.02,343.881,106.02z
		 M213.97,324.031h-52.938v-5.461h52.938V324.031z M331.381,293.57H43.622V131.02h287.76V293.57z"/>
</g>
<g>
</g>
<g>
</g>
<g>
</g>
<g>
</g>
<g>
</g>
<g>
</g>
<g>
</g>
<g>
</g>
<g>
</g>
<g>
</g>
<g>
</g>
<g>
</g>
<g>
</g>
<g>
</g>
<g>
</g>
</svg>
