<?xml version="1.0" encoding="iso-8859-1"?>
<!-- Generator: Adobe Illustrator 16.0.0, SVG Export Plug-In . SVG Version: 6.00 Build 0)  -->
<!DOCTYPE svg PUBLIC "-//W3C//DTD SVG 1.1//EN" "http://www.w3.org/Graphics/SVG/1.1/DTD/svg11.dtd">
<svg version="1.1" id="Capa_1" xmlns="http://www.w3.org/2000/svg" xmlns:xlink="http://www.w3.org/1999/xlink" x="0px" y="0px"
	 width="350px" height="350px" viewBox="0 0 350 350" style="enable-background:new 0 0 350 350;" xml:space="preserve">
<g>
	<g>
		<g>
			<g>
				<path d="M199.595,25c9.365,0.001,18.973,6.367,21.828,21.159c10.263,53.176-14.648,92.984-14.648,92.984h53.946
					c15.896,0,29.773,12.879,29.773,28.771c0,15.885-10.836,28.771-21.199,28.771c2.55,4.299,4.038,9.291,4.038,14.646
					c0,12.208-7.611,22.619-18.353,26.799c2.863,4.477,4.546,9.771,4.546,15.477c0,14.063-10.086,25.75-23.412,28.262
					c2.434,4.224,3.847,9.109,3.847,14.33c0,15.885-12.884,28.771-28.772,28.771L180.662,325
					c-90.319,0-73.312-31.335-121.159-31.335V174.969c30.568,0,57.156-1.621,83.819-43.766
					c18.678-29.521,30.692-48.09,35.718-88.036C180.467,31.817,189.902,25,199.595,25 M199.597,0L199.597,0
					c-10.726,0-21.16,3.771-29.381,10.619c-8.845,7.369-14.52,17.82-15.981,29.428c-4.265,33.898-13.875,49.086-31.322,76.656
					l-0.717,1.133c-20.329,32.133-36.275,32.133-62.693,32.133c-13.807,0-25,11.193-25,25v118.696c0,13.808,11.193,25,25,25
					c12.812,0,16.722,2.515,25.291,8.024c7.315,4.703,17.334,11.146,33.014,15.887c16.52,4.996,37.08,7.424,62.854,7.424
					l30.551-0.028c29.627,0,53.749-24.122,53.749-53.771c0-0.366-0.004-0.732-0.011-1.1c12.055-9.947,19.577-24.98,19.577-41.492
					c0-1.996-0.111-3.981-0.331-5.95c1.61-1.759,3.11-3.632,4.492-5.608c6.311-9.044,9.646-19.665,9.646-30.716
					c0-0.644-0.012-1.283-0.035-1.924c10.421-9.954,17.196-25,17.196-41.495c0-14.528-5.919-28.177-16.668-38.433
					c-10.367-9.892-23.899-15.339-38.105-15.339h-17.255c6.225-23.892,7.101-48.911,2.504-72.722
					c-2.387-12.365-8.109-22.808-16.551-30.198C221.155,3.986,210.562,0.001,199.597,0L199.597,0z"/>
			</g>
		</g>
	</g>
</g>
<g>
</g>
<g>
</g>
<g>
</g>
<g>
</g>
<g>
</g>
<g>
</g>
<g>
</g>
<g>
</g>
<g>
</g>
<g>
</g>
<g>
</g>
<g>
</g>
<g>
</g>
<g>
</g>
<g>
</g>
</svg>
