<svg width="187" height="322" viewBox="0 0 187 322" fill="none" xmlns="http://www.w3.org/2000/svg">
<path d="M176.122 68.4917H10.674C7.8431 68.4917 5.12817 69.6163 3.1264 71.618C1.12463 73.6198 0 76.3348 0 79.1657V294.835L39.3872 270.195C52.715 261.857 63.744 250.316 71.4688 236.623C79.1936 222.931 83.3686 207.523 83.6133 191.803H74.4691C74.3196 191.806 74.1734 191.759 74.0541 191.668C73.9349 191.578 73.8494 191.45 73.8115 191.306C73.7735 191.161 73.7852 191.008 73.8448 190.871C73.9044 190.733 74.0084 190.62 74.14 190.549L88.9592 183.389V152.994L51.689 160.626C51.528 160.627 51.3704 160.579 51.2365 160.49C51.1026 160.401 50.9985 160.273 50.9374 160.124C50.8763 159.975 50.8609 159.811 50.8934 159.654C50.9259 159.496 51.0047 159.351 51.1197 159.239L88.3721 130.775V106.429C88.3752 106.054 88.4966 105.69 88.719 105.388L93.3889 99.1618C93.4422 99.095 93.5098 99.0411 93.5868 99.0041C93.6638 98.9671 93.7482 98.9478 93.8336 98.9478C93.9191 98.9478 94.0035 98.9671 94.0804 99.0041C94.1574 99.0411 94.2251 99.095 94.2784 99.1618L98.637 104.988C99.0642 105.558 99.2952 106.251 99.2952 106.963V130.757L135.765 158.492C135.908 158.635 136.001 158.819 136.032 159.019C136.062 159.219 136.029 159.423 135.936 159.602C135.842 159.782 135.695 159.927 135.514 160.017C135.333 160.106 135.128 160.136 134.929 160.102L99.6243 152.994V183.389L113.536 190.549C113.669 190.621 113.773 190.735 113.833 190.873C113.892 191.011 113.903 191.165 113.864 191.31C113.825 191.456 113.738 191.583 113.617 191.673C113.496 191.762 113.348 191.808 113.198 191.803H102.738V315.773C102.738 317.425 103.394 319.009 104.561 320.176C105.729 321.344 107.313 322 108.964 322H176.122C178.952 322 181.667 320.875 183.669 318.874C185.671 316.872 186.796 314.157 186.796 311.326V79.1657C186.796 76.3348 185.671 73.6198 183.669 71.618C181.667 69.6163 178.952 68.4917 176.122 68.4917Z" fill="black"/>
<path d="M132.367 0H53.5747C51.5065 0 49.83 1.67661 49.83 3.74481V6.92923C49.83 8.99743 51.5065 10.674 53.5747 10.674H132.367C134.435 10.674 136.112 8.99743 136.112 6.92923V3.74481C136.112 1.67661 134.435 0 132.367 0Z" fill="black"/>
<path d="M56.7592 3.55798H53.5747C51.5065 3.55798 49.83 5.23459 49.83 7.30279V17.6032C49.83 19.6714 51.5065 21.348 53.5747 21.348H56.7592C58.8274 21.348 60.504 19.6714 60.504 17.6032V7.30279C60.504 5.23459 58.8274 3.55798 56.7592 3.55798Z" fill="black"/>
<path d="M132.367 3.55798H129.182C127.114 3.55798 125.438 5.23459 125.438 7.30279V17.6032C125.438 19.6714 127.114 21.348 129.182 21.348H132.367C134.435 21.348 136.112 19.6714 136.112 17.6032V7.30279C136.112 5.23459 134.435 3.55798 132.367 3.55798Z" fill="black"/>
<path d="M58.725 7.11603H51.609V93.3978H58.725V7.11603Z" fill="black"/>
<path d="M134.333 7.11603H127.217V93.3978H134.333V7.11603Z" fill="black"/>
<path d="M145.896 62.2652H40.0454C34.1503 62.2652 29.3714 67.0441 29.3714 72.9392V82.7238C29.3714 88.6189 34.1503 93.3978 40.0454 93.3978H145.896C151.791 93.3978 156.57 88.6189 156.57 82.7238V72.9392C156.57 67.0441 151.791 62.2652 145.896 62.2652Z" fill="black"/>
</svg>
