<?xml version="1.0" encoding="iso-8859-1"?>
<!-- Generator: Adobe Illustrator 16.0.0, SVG Export Plug-In . SVG Version: 6.00 Build 0)  -->
<!DOCTYPE svg PUBLIC "-//W3C//DTD SVG 1.1//EN" "http://www.w3.org/Graphics/SVG/1.1/DTD/svg11.dtd">
<svg version="1.1" id="Capa_1" xmlns="http://www.w3.org/2000/svg" xmlns:xlink="http://www.w3.org/1999/xlink" x="0px" y="0px"
	 width="367.43px" height="367.43px" viewBox="0 0 367.43 367.43" style="enable-background:new 0 0 367.43 367.43;"
	 xml:space="preserve">
<g>
	<g>
		<path d="M301.176,140.43h-36.963l10.939-46.389c8.438-35.774-13.806-71.743-49.578-80.18L174.449,1.804
			c-17.325-4.085-35.212-1.181-50.357,8.183c-15.145,9.364-25.736,24.065-29.822,41.396c-1.585,6.72,2.578,13.451,9.297,15.035
			c6.717,1.585,13.451-2.578,15.035-9.297c2.554-10.83,9.173-20.018,18.638-25.87c9.465-5.853,20.64-7.67,31.472-5.114
			l51.125,12.057c22.356,5.273,36.258,27.752,30.985,50.109l-12.295,52.127H66.254c-6.903,0-12.5,5.597-12.5,12.5v122.094
			c0,50.952,41.453,92.405,92.405,92.405h75.111c50.952,0,92.405-41.453,92.405-92.405V152.93
			C313.676,146.027,308.08,140.43,301.176,140.43z M288.676,275.024c0,37.168-30.238,67.405-67.404,67.405H146.16
			c-37.167,0-67.405-30.237-67.405-67.405V165.43h209.922L288.676,275.024L288.676,275.024z"/>
		<path d="M171.215,300.93c0,6.903,5.596,12.5,12.5,12.5c6.902,0,12.5-5.597,12.5-12.5V265.24c1.488-2.057,2.375-4.577,2.375-7.311
			c0-6.902-5.598-12.5-12.5-12.5h-4.75c-6.903,0-12.5,5.598-12.5,12.5c0,2.732,0.887,5.254,2.375,7.311V300.93z"/>
	</g>
</g>
<g>
</g>
<g>
</g>
<g>
</g>
<g>
</g>
<g>
</g>
<g>
</g>
<g>
</g>
<g>
</g>
<g>
</g>
<g>
</g>
<g>
</g>
<g>
</g>
<g>
</g>
<g>
</g>
<g>
</g>
</svg>
