<?xml version="1.0" encoding="iso-8859-1"?>
<!-- Generator: Adobe Illustrator 16.0.0, SVG Export Plug-In . SVG Version: 6.00 Build 0)  -->
<!DOCTYPE svg PUBLIC "-//W3C//DTD SVG 1.1//EN" "http://www.w3.org/Graphics/SVG/1.1/DTD/svg11.dtd">
<svg version="1.1" id="Capa_1" xmlns="http://www.w3.org/2000/svg" xmlns:xlink="http://www.w3.org/1999/xlink" x="0px" y="0px"
	 width="393.85px" height="393.85px" viewBox="0 0 393.85 393.85" style="enable-background:new 0 0 393.85 393.85;"
	 xml:space="preserve">
<g>
	<path d="M306.979,144.593c-16.921-26.564-46.168-42.779-78.009-42.779c-4.252,0-8.498,0.291-12.697,0.869
		c-17.287-23.797-45.246-38.258-74.926-38.258c-50.474,0-91.635,40.64-92.484,90.917C18.917,171.333,0,202.481,0,236.926
		c0,51.004,41.495,92.499,92.499,92.499h208.852c51.004,0,92.499-41.495,92.499-92.499
		C393.85,187.81,355.374,147.512,306.979,144.593z M301.351,304.425h-91.926V196.4l38.661,38.659c4.882,4.882,12.797,4.882,17.678,0
		s4.881-12.796,0-17.678l-60-59.998c-4.881-4.88-12.795-4.881-17.678,0l-60,60c-4.881,4.882-4.881,12.796,0,17.679
		c2.441,2.439,5.64,3.66,8.839,3.66s6.398-1.221,8.839-3.66l38.661-38.662v108.025H92.499C55.28,304.425,25,274.146,25,236.926
		c0-27.28,16.258-51.726,41.419-62.278c4.965-2.083,8.04-7.11,7.629-12.479c-0.132-1.721-0.198-3.484-0.198-5.243
		c0-37.22,30.279-67.5,67.497-67.5c23.843,0,46.167,12.795,58.261,33.392c2.781,4.736,8.325,7.104,13.674,5.831
		c5.113-1.217,10.393-1.834,15.688-1.834c25.079,0,47.953,13.786,59.698,35.979c2.211,4.178,6.585,6.772,11.315,6.65
		c0.456-0.01,0.909-0.02,1.366-0.02c37.22,0,67.499,30.281,67.499,67.502C368.85,274.146,338.569,304.425,301.351,304.425z"/>
</g>
<g>
</g>
<g>
</g>
<g>
</g>
<g>
</g>
<g>
</g>
<g>
</g>
<g>
</g>
<g>
</g>
<g>
</g>
<g>
</g>
<g>
</g>
<g>
</g>
<g>
</g>
<g>
</g>
<g>
</g>
</svg>
