<?xml version="1.0" encoding="iso-8859-1"?>
<!-- Generator: Adobe Illustrator 16.0.0, SVG Export Plug-In . SVG Version: 6.00 Build 0)  -->
<!DOCTYPE svg PUBLIC "-//W3C//DTD SVG 1.1//EN" "http://www.w3.org/Graphics/SVG/1.1/DTD/svg11.dtd">
<svg version="1.1" id="Capa_1" xmlns="http://www.w3.org/2000/svg" xmlns:xlink="http://www.w3.org/1999/xlink" x="0px" y="0px"
	 width="410.32px" height="410.32px" viewBox="0 0 410.32 410.32" style="enable-background:new 0 0 410.32 410.32;"
	 xml:space="preserve">
<g>
	<path d="M327.154,166.785c0-6.903-5.598-12.5-12.5-12.5c-6.904,0-12.5,5.597-12.5,12.5c0,55.6-36.896,101.652-84.494,108.598
		v-27.125h0.08c34.463,0,62.5-28.037,62.5-62.5V62.5c0-34.463-28.037-62.5-62.5-62.5h-25.16c-34.463,0-62.5,28.037-62.5,62.5
		v123.258c0,34.462,28.037,62.5,62.5,62.5h0.08v27.125c-47.6-6.945-84.494-52.998-84.494-108.598c0-6.903-5.598-12.5-12.5-12.5
		c-6.903,0-12.5,5.597-12.5,12.5c0,69.514,48.076,126.879,109.494,133.803v97.232c0,6.902,5.597,12.5,12.5,12.5
		c6.902,0,12.5-5.598,12.5-12.5v-97.232C279.078,293.664,327.154,236.299,327.154,166.785z M192.58,25h25.16
		c20.678,0,37.5,16.822,37.5,37.5v14.449H155.08V62.5C155.08,41.822,171.902,25,192.58,25z M155.08,185.758v-83.809h100.16v83.809
		c0,20.677-16.822,37.5-37.5,37.5h-25.16C171.902,223.258,155.08,206.436,155.08,185.758z"/>
</g>
<g>
</g>
<g>
</g>
<g>
</g>
<g>
</g>
<g>
</g>
<g>
</g>
<g>
</g>
<g>
</g>
<g>
</g>
<g>
</g>
<g>
</g>
<g>
</g>
<g>
</g>
<g>
</g>
<g>
</g>
</svg>
