<?xml version="1.0" encoding="iso-8859-1"?>
<!-- Generator: Adobe Illustrator 16.0.0, SVG Export Plug-In . SVG Version: 6.00 Build 0)  -->
<!DOCTYPE svg PUBLIC "-//W3C//DTD SVG 1.1//EN" "http://www.w3.org/Graphics/SVG/1.1/DTD/svg11.dtd">
<svg version="1.1" id="Capa_1" xmlns="http://www.w3.org/2000/svg" xmlns:xlink="http://www.w3.org/1999/xlink" x="0px" y="0px"
	 width="338.939px" height="338.94px" viewBox="0 0 338.939 338.94" style="enable-background:new 0 0 338.939 338.94;"
	 xml:space="preserve">
<g>
	<g>
		<path d="M222.362,1.349c-4.202-2.128-9.243-1.715-13.042,1.072L72.954,102.462c-2.184-1.862-5.01-2.992-8.104-2.992H18.243
			c-6.902,0-12.5,5.598-12.5,12.5v115c0,6.903,5.598,12.5,12.5,12.5H64.85c3.094,0,5.92-1.13,8.104-2.992l136.367,100.041
			c2.186,1.604,4.781,2.421,7.395,2.421c1.928,0,3.863-0.444,5.648-1.349c4.201-2.129,6.85-6.44,6.85-11.151L229.212,12.5
			C229.212,7.79,226.563,3.478,222.362,1.349z M52.351,214.47H30.744v-90h21.607V214.47z M77.351,208.7v-78.458l126.861-93.068
			l0.002,264.594L77.351,208.7z"/>
		<path d="M284.157,74.296c-5.619-4.012-13.424-2.707-17.436,2.912s-2.707,13.425,2.91,17.436
			c24.146,17.236,38.562,45.208,38.562,74.826s-14.416,57.59-38.562,74.826c-5.617,4.011-6.922,11.817-2.91,17.437
			c2.439,3.418,6.281,5.238,10.184,5.238c2.514,0,5.053-0.756,7.252-2.327c30.707-21.918,49.039-57.497,49.039-95.174
			S314.864,96.214,284.157,74.296z"/>
	</g>
</g>
<g>
</g>
<g>
</g>
<g>
</g>
<g>
</g>
<g>
</g>
<g>
</g>
<g>
</g>
<g>
</g>
<g>
</g>
<g>
</g>
<g>
</g>
<g>
</g>
<g>
</g>
<g>
</g>
<g>
</g>
</svg>
