<?xml version="1.0" encoding="iso-8859-1"?>
<!-- Generator: Adobe Illustrator 16.0.0, SVG Export Plug-In . SVG Version: 6.00 Build 0)  -->
<!DOCTYPE svg PUBLIC "-//W3C//DTD SVG 1.1//EN" "http://www.w3.org/Graphics/SVG/1.1/DTD/svg11.dtd">
<svg version="1.1" id="Capa_1" xmlns="http://www.w3.org/2000/svg" xmlns:xlink="http://www.w3.org/1999/xlink" x="0px" y="0px"
	 width="373.01px" height="373.01px" viewBox="0 0 373.01 373.01" style="enable-background:new 0 0 373.01 373.01;"
	 xml:space="preserve">
<g>
	<path d="M373.003,134.54c0,0,1.371-66.827-34.954-104.305C320.888,12.529,298.437,3.551,271.32,3.551H47.454
		C21.287,3.551,0,24.839,0,51.005v255.954c0,34.462,28.038,62.5,62.5,62.5h248c34.462,0,62.5-28.038,62.5-62.5L373.003,134.54z
		 M47.454,28.552H271.32c20.341,0,36.274,6.22,48.713,19.017c9.066,9.329,15.196,21.132,19.342,32.989
		c-7.103-3.716-15.029-7.097-28.875-7.097s-248,0-248,0H47.454C35.073,73.461,25,63.388,25,51.007S35.073,28.552,47.454,28.552z
		 M348,215.298h-22.18c-6.904,0-12.5,5.597-12.5,12.5s5.596,12.5,12.5,12.5H348v25.804h-28.492c-20.678,0-37.5-16.822-37.5-37.5
		v-1.605c0-20.678,16.822-37.5,37.5-37.5H348V215.298z M348,164.495h-28.492c-34.462,0-62.5,28.038-62.5,62.5v1.604
		c0,34.463,28.038,62.5,62.5,62.5H348v15.859c0,20.678-16.822,37.5-37.5,37.5h-248c-20.678,0-37.5-16.822-37.5-37.5V92.799
		c6.689,3.608,14.336,5.661,22.454,5.661H62.5h248c20.678,0,37.5,16.822,37.5,37.5V164.495z"/>
</g>
<g>
</g>
<g>
</g>
<g>
</g>
<g>
</g>
<g>
</g>
<g>
</g>
<g>
</g>
<g>
</g>
<g>
</g>
<g>
</g>
<g>
</g>
<g>
</g>
<g>
</g>
<g>
</g>
<g>
</g>
</svg>
