<svg id="Icon" xmlns="http://www.w3.org/2000/svg" width="101" height="98" viewBox="0 0 101 98">
  <rect id="Rectangle_444" data-name="Rectangle 444" width="92" height="92" rx="15" transform="translate(0 6)" fill="#ededed"/>
  <rect id="Rectangle_445" data-name="Rectangle 445" width="94" height="92" rx="15" transform="translate(7)" fill="#484bb4"/>
  <g id="_7-01" data-name="7-01" transform="translate(-65.79 -55.83)">
    <path id="Path_2071" data-name="Path 2071" d="M155.33,156.593c.291.037.586.067.884.094a25.176,25.176,0,0,0,14.89-23.508l-4.979-4.979A28.906,28.906,0,0,1,155.33,156.593Z" transform="translate(-41.6 -32.174)" fill="#fff"/>
    <path id="Path_2072" data-name="Path 2072" d="M150,139.866l.137.027a27.951,27.951,0,0,0,10.872-29.425l-7.088-7.088A34.316,34.316,0,0,1,150,139.866Z" transform="translate(-38.055 -15.665)" fill="#fff"/>
    <path id="Path_2073" data-name="Path 2073" d="M197.4,160.57a25.885,25.885,0,0,1-8.344,13.982,26.3,26.3,0,0,1-3.964,2.849,23.364,23.364,0,0,0,15.188-13.952Z" transform="translate(-61.395 -53.706)" fill="#fff"/>
    <path id="Path_2074" data-name="Path 2074" d="M182.807,150.078,178.712,146a26.137,26.137,0,0,1-13.862,22.644h.017a23.263,23.263,0,0,0,2.749-.164A25.2,25.2,0,0,0,182.807,150.078Z" transform="translate(-47.932 -44.014)" fill="#fff"/>
    <path id="Path_2075" data-name="Path 2075" d="M112.555,84.725l-4.9-4.9a23.254,23.254,0,0,0-14.87,21.62h0a23.25,23.25,0,0,0,17.615,22.484A33.2,33.2,0,0,0,112.555,84.725Z" transform="translate(0)" fill="#fff"/>
    <path id="Path_2076" data-name="Path 2076" d="M189.69,109.913A23.23,23.23,0,0,0,166.524,86.75h0a23,23,0,0,0-8.294,1.544l29.91,29.913a22.929,22.929,0,0,0,1.547-8.294Z" transform="translate(-43.529 -4.603)" fill="#fff"/>
  </g>
</svg>
