<svg id="Layer_1" data-name="Layer 1" xmlns="http://www.w3.org/2000/svg" viewBox="0 0 1920 1080"><defs><style>.cls-1,.cls-3{fill:#110235;}.cls-1{fill-rule:evenodd;}.cls-2{fill:#ffa008;}</style></defs><title>Logomaker Logov1</title><polygon class="cls-1" points="1254.58 753.17 1198.94 808.81 1192.86 790.11 1236.18 746.79 1254.58 753.17"/><path class="cls-1" d="M1207,722.77A47.4,47.4,0,0,0,1192.25,689a48.23,48.23,0,0,0-27.52-14.44c-72.51-18.86-103.82-62.94-13.53,27.66a10.86,10.86,0,0,1,12.92,2,11.24,11.24,0,0,1,0,15.81,11.12,11.12,0,0,1-15.81,0,10.93,10.93,0,0,1-1.82-13.38c-92.42-99.12-40.59-48.8-26.6,16.87a50.93,50.93,0,0,0,47,39.22l19.61,24,44.23-44.39Z"/><path class="cls-2" d="M287.92,871.59c25.24,0,41.17,5,52.26,15.58,8.77,8.59,15.21,21.11,15.21,38.3,0,20.94-8.59,37.94-22.37,48.32-13.6,10.2-31,14.14-53,14.14H238.17v-5c15.39-1.43,16.1-2.69,16.1-17.36V894.15c0-15.4-2.14-16.11-16.1-17.54v-5Zm-18.08,92.54c0,13.42,5.73,17.18,19.15,17.18,32.22,0,48.69-22,48.69-53.34,0-19.51-6.63-34.36-20.77-43-8.23-5.19-18.61-7.16-30.6-7.16-8.05,0-12.35,1.07-14.14,2.5-1.61,1.08-2.33,3-2.33,10Z"/><path class="cls-2" d="M437.19,972.72c-11.46,14.31-24,17.36-29.71,17.36-21.84,0-35.08-17.9-35.08-38.48,0-12.17,4.29-23.45,11.63-31.32,7.52-8.42,17.36-13.07,26.67-13.07,15.57,0,27.38,13.42,27.38,27.74-.18,3.58-.72,5.19-3.58,5.91-3.58.71-26.49,2.32-47.79,3-.53,24,14.14,33.83,26.85,33.83,7.34,0,14.14-3.05,20.76-9.13ZM406.4,914c-8.23,0-16.29,7.7-18.79,22.2,10,0,20,0,30.6-.54,3.23,0,4.3-.9,4.3-3.58C422.69,922.6,416.42,914,406.4,914Z"/><path class="cls-2" d="M518.44,971.82c-7.88,10.38-19.87,18.26-30.61,18.26-22.73,0-36.15-18.44-36.15-37.59,0-14.14,6.08-26,18.08-35.08,9.48-7.34,20.22-10.2,27.2-10.2,8.05,0,14,2.51,16.65,4.83,2.5,2,2.86,3.22,2.86,5.19,0,4.3-4.48,8.06-6.44,8.06-.9,0-1.62-.36-3.41-1.79-5.54-5-11.63-7.52-18.07-7.52-11.81,0-22.19,10-22.19,28.64-.18,24.87,16.82,33.11,27.2,33.11,7.52,0,13.6-2,21.84-9.85Z"/><path class="cls-2" d="M584.84,990.08c-2.69,0-6.62-1.44-8.41-3.4a16.78,16.78,0,0,1-4.3-8.06c-7.16,4.83-15.93,11.46-21.48,11.46a22,22,0,0,1-21.83-22c0-8.77,4.83-14.49,14.67-17.9,10.92-3.75,24.34-8.41,28.28-11.63V935c0-12.71-6.44-20-15.75-20a10.38,10.38,0,0,0-8.41,4.11c-2,2.51-3.22,6.45-4.83,11.64-.9,2.86-2.51,4.11-5.19,4.11-3.4,0-7.88-3.58-7.88-7.87,0-2.51,2.33-4.66,5.91-7.16,5.19-3.76,15.57-10.38,25.77-12.53a24.77,24.77,0,0,1,15,4.83c6.26,5.37,9.12,11.46,9.12,20.76v34.55c0,8.23,3.05,10.73,6.27,10.73a14.24,14.24,0,0,0,6.44-2l1.79,5Zm-13.07-45.29c-3.94,2-12.53,5.73-16.64,7.52-6.8,3-10.92,6.45-10.92,13.07,0,9.48,7.16,13.78,12.89,13.78,4.65,0,11.09-2.86,14.67-6.44Z"/><path class="cls-2" d="M643.19,909a21.21,21.21,0,0,1,7.87-1.79c19.15,0,35.26,16.65,35.26,37.94,0,24.17-20.76,44.93-44.21,44.93a66.29,66.29,0,0,1-27.56-6.45V883.05c0-11.1-.54-12.17-12-13.07v-4.65a147.87,147.87,0,0,0,26.13-6.08v56Zm-14.5,58a15.58,15.58,0,0,0,.89,6.26c2.15,4.48,8.24,9.67,16.83,9.67,14.85,0,24-13.07,24-33.29,0-20.41-12.35-32.4-27.2-32.4a34.62,34.62,0,0,0-14.5,3.4Z"/><path class="cls-2" d="M698.84,987.93v-5c11.28-1.08,12.53-2,12.53-14.14V931.91c0-11.1-.53-11.81-11.27-13.6V914a117.21,117.21,0,0,0,25.41-7.16v61.93c0,12.17,1.26,13.06,12.89,14.14v5Zm18.62-98.62a9.79,9.79,0,0,1-9.49-9.48,9.67,9.67,0,0,1,9.67-9.85c5,0,9.13,4.12,9.13,9.85A9.51,9.51,0,0,1,717.46,889.31Z"/><path class="cls-2" d="M781.71,987.75a18.06,18.06,0,0,1-7.69,2.33c-11.46,0-17.54-7-17.54-21.3V916.7H744.13l-.72-2.15,4.83-5.19h8.24v-15c3.4-3.58,8.59-8.23,12-11.81l2.68.36c-.36,7.52-.53,17.9-.53,26.49H791c1.61,1.79,1.07,5.73-1.07,7.34H770.62v45.81c0,14.5,5.72,17.19,10.38,17.19a25.58,25.58,0,0,0,10.91-2.87l1.61,4.66Z"/><path class="cls-2" d="M848.11,930.66c-3.22-10.38-8.23-17.54-19.15-17.54-6.26,0-11.45,4.47-11.45,11.63,0,7.87,5.9,11.63,15.57,15.93,14.67,6.44,23.08,12.17,23.08,24.52,0,16.46-15,24.88-29.17,24.88a46.57,46.57,0,0,1-21.3-5.19c-.89-5.19-2.5-15.4-3.22-21.3l5.19-.9c3.22,11.46,9.49,21.3,22,21.3,6.8,0,12.88-4.65,12.88-12.17,0-8.05-4.83-12.35-14.67-16.64-11.64-5.37-23.09-11.28-23.09-24.88,0-13.07,11.45-23.09,28.28-23.09,7.51,0,14,1.79,17.54,2.33.53,4.29,1.79,15.57,2.68,19.86Z"/><path class="cls-3" d="M1001.49,958.22c-1.08,5.55-6.45,24.16-8.23,29.71H910v-5c16.29-1.61,17.72-2.51,17.72-17.72V894.15c0-15.22-1.79-16.11-16.11-17.54v-5h48v5c-14.32,1.43-16.29,2.14-16.29,17.54V967c0,10.92,1.43,13.42,11.63,13.6.18.18,13.07.18,14.14.18,9.13,0,11.82-1.07,15.93-5.55,4.48-4.65,8.24-11.81,10.92-18.43Z"/><path class="cls-3" d="M1056.07,907.21c22.38,0,39,17,39,40.09,0,29-21.48,42.78-39,42.78-24.7,0-39.73-19.87-39.73-39.92C1016.34,921,1039.07,907.21,1056.07,907.21Zm-2.15,6.09c-10.91,0-20.76,10.56-20.76,31.32,0,22.73,10,39.19,24.7,39.19,11.1,0,20.41-8,20.41-32.57C1078.27,930.3,1069.67,913.3,1053.92,913.3Z"/><path class="cls-3" d="M1133.57,961.8c-4.3,3.4-5.91,6.8-5.91,9,0,3.22,3,6.8,11.1,6.8,6.62,0,14.14-.18,20-.18,11.46,0,26.13,3.76,26.13,21.48,0,18.61-22,36.15-45.81,36.15-20.23,0-31.15-11.81-31.5-22.37a14.11,14.11,0,0,1,4.47-10.2,167.08,167.08,0,0,1,14.68-12.89,23.36,23.36,0,0,1-13.43-9.66,16.26,16.26,0,0,1-2.14-7.7,37.9,37.9,0,0,0,16.46-12.35Zm8.59,1.79c-16.65,0-30.43-10.2-30.43-27,0-20.4,18.26-29.89,32.22-29.89a36.64,36.64,0,0,1,17.18,4.48,119.69,119.69,0,0,0,24-2.69l1.08,1.61c-1.08,2.87-3.94,7.88-6.63,9.49-2.68,0-8.59-.72-11.09-.89a27.6,27.6,0,0,1,5.19,16.28C1173.66,954.46,1157.55,963.59,1142.16,963.59Zm4.12,26.49c-8.78,0-12.71,1.07-15.93,3.75-5,4.12-8.6,9.49-8.6,14.68,0,9.85,10.21,17.18,24,17.18,17,0,26.67-8.77,26.67-20.22,0-6.09-2.87-10.92-7.88-13.07C1160.06,990.44,1153.79,990.08,1146.28,990.08Zm-4.12-77.68c-8.05,0-15.22,7.34-15.22,21.48s7.17,24,17,24c7.87-.36,14.85-7,14.85-21.48C1158.8,922.42,1152.18,912.4,1142.16,912.4Z"/><path class="cls-3" d="M1231.29,907.21c22.37,0,39,17,39,40.09,0,29-21.48,42.78-39,42.78-24.7,0-39.73-19.87-39.73-39.92C1191.56,921,1214.29,907.21,1231.29,907.21Zm-2.15,6.09c-10.91,0-20.76,10.56-20.76,31.32,0,22.73,10,39.19,24.7,39.19,11.1,0,20.4-8,20.4-32.57C1253.48,930.3,1244.89,913.3,1229.14,913.3Z"/><path class="cls-3" d="M1380.74,987.93v-5c10.56-1.08,11.81-1.79,11.81-14.32V938.71c0-12.71-4.3-20.76-15.39-20.76-6.8,0-13.07,3.76-19.87,9.31a72.93,72.93,0,0,1,.54,7.69v34.72c0,11.28,1.61,12.17,11.45,13.25v5H1331v-5c11.1-1.08,12.71-1.79,12.71-13.6V938.53c0-13.24-4.12-20.58-15-20.58-7.16,0-14.13,4.83-19.68,9.31v42.06c0,11.81,1.25,12.52,11.45,13.6v5h-38.48v-5c11.81-1.08,12.89-1.79,12.89-13.6V932.27c0-11.46-.72-12.17-10.74-14v-4.48a96.08,96.08,0,0,0,24.88-7.16v14.5a124.39,124.39,0,0,1,13.24-9.31c4.48-2.86,8.41-4.65,14.14-4.65,8.59,0,15.93,5.37,19.51,14.68,5-3.94,9.66-7,14.14-10,3.93-2.5,9-4.65,14.14-4.65,14,0,22.55,10,22.55,27.56v34.55c0,12,1.07,12.52,11.27,13.6v5Z"/><path class="cls-3" d="M1485.61,990.08c-2.68,0-6.62-1.44-8.41-3.4a16.85,16.85,0,0,1-4.29-8.06c-7.16,4.83-15.93,11.46-21.48,11.46a22,22,0,0,1-21.83-22c0-8.77,4.83-14.49,14.67-17.9,10.92-3.75,24.34-8.41,28.28-11.63V935c0-12.71-6.44-20-15.75-20a10.36,10.36,0,0,0-8.41,4.11c-2,2.51-3.22,6.45-4.83,11.64-.9,2.86-2.51,4.11-5.19,4.11-3.41,0-7.88-3.58-7.88-7.87,0-2.51,2.33-4.66,5.91-7.16,5.19-3.76,15.57-10.38,25.77-12.53a24.72,24.72,0,0,1,15,4.83c6.27,5.37,9.13,11.46,9.13,20.76v34.55c0,8.23,3,10.73,6.26,10.73a14.28,14.28,0,0,0,6.45-2l1.79,5Zm-13.06-45.29c-3.94,2-12.53,5.73-16.64,7.52-6.81,3-10.92,6.45-10.92,13.07,0,9.48,7.16,13.78,12.88,13.78,4.66,0,11.1-2.86,14.68-6.44Z"/><path class="cls-3" d="M1595.33,987.93c-9.67,0-20.23.18-24,.36-1.07-1.26-29-34.55-30.24-35.62-2.33-2.86-3.58-3.76-5.19-3.76a11,11,0,0,0-3.22.36v19.87c0,12,.89,12.7,12.52,13.78v5h-39.55v-5c12-1.08,12.89-2.33,12.89-13.78V883.59c0-11.64-1.26-12-12.35-13.61v-4.65a111.5,111.5,0,0,0,26.49-6.08v85.37c5.37-1.26,8.77-3.4,11.45-6.27a139.43,139.43,0,0,0,13.6-16.11c3.76-5.19,2.33-6.62-6.26-7.33v-5l36.87-1.62v4.84c-12.53,2-16.11,3.4-23.81,11.45-3.4,3.58-11.27,12.17-15,16.83,3.58,5,21.83,25.77,27.74,32,8.59,8.59,11.1,9.13,18.08,9.49Z"/><path class="cls-3" d="M1662.8,972.72c-11.45,14.31-24,17.36-29.71,17.36-21.83,0-35.08-17.9-35.08-38.48,0-12.17,4.3-23.45,11.63-31.32,7.52-8.42,17.37-13.07,26.67-13.07,15.57,0,27.38,13.42,27.38,27.74-.17,3.58-.71,5.19-3.57,5.91-3.58.71-26.49,2.32-47.79,3-.54,24,14.14,33.83,26.85,33.83,7.33,0,14.13-3.05,20.76-9.13ZM1632,914c-8.24,0-16.29,7.7-18.8,22.2,10,0,20,0,30.61-.54,3.22,0,4.29-.9,4.29-3.58C1648.3,922.6,1642,914,1632,914Z"/><path class="cls-3" d="M1715.6,987.93h-41.17v-5c11.28-1.08,12.35-2,12.35-13.6V932.09c0-11.81-.71-12.35-11.09-13.6V914a98.87,98.87,0,0,0,25.23-7.34v19.69c6.27-9.31,13.78-19.15,22.73-19.15,6.62,0,10.38,4.12,10.38,8.59,0,4.12-2.86,8.06-6.08,9.85a3.55,3.55,0,0,1-4.66-.36c-2.68-2.69-4.83-4.48-8-4.48-3.76,0-10.38,5.55-14.32,14.68v33.65c0,11.81.9,12.7,14.68,13.78Z"/><path class="cls-2" d="M1240.4,372.53c0,8.36-.41,196.82-123.55,266.86A186.16,186.16,0,0,1,1091,651.58c26.81-59.48,57.84-152.8,51.55-265.21-3.19-57.08-8.82-133.68-63.36-194.79a224.35,224.35,0,0,0-51.29-42.42c-43.39-27.38-97.55-38.45-159.92-39.43l-.2-34.7c139.36,0,227.33,27.68,288.61,86C1204.82,208.46,1240.4,277.65,1240.4,372.53Z"/><path class="cls-3" d="M1039.68,717.47H580.06V689.8c90-8.9,97.86-13.84,97.86-97.86V199.54c0-84-9.88-89-89-96.87V75h264.9v27.67c-79.08,7.91-90,11.86-90,96.87V601.83c0,60.29,7.91,74.13,64.25,75.12,1,1,72.16,1,78.08,1,50.42,0,65.24-5.93,88-30.65,24.71-25.69,45.46-65.23,60.29-101.8C1054.51,545.49,1049.57,686.83,1039.68,717.47Z"/></svg>